<svg width="437" height="389" viewBox="0 0 437 389" fill="none" xmlns="http://www.w3.org/2000/svg">
<ellipse cx="216.594" cy="324.265" rx="213.823" ry="50.2017" transform="rotate(-3.66304 216.594 324.265)" fill="#666666"/>
<g clip-path="url(#clip0_971_6457)">
<mask id="path-2-inside-1_971_6457" fill="white">
<path d="M321.422 322.466L318.371 320.342C317.879 319.999 317.62 319.406 317.723 318.819C317.83 318.198 317.911 317.577 317.967 316.957C318.018 316.366 318.416 315.86 318.977 315.654L322.461 314.372C323.146 314.12 323.564 313.43 323.465 312.708L323.063 309.777C322.964 309.057 322.376 308.499 321.646 308.434L317.933 308.105C317.333 308.051 316.813 307.662 316.603 307.101C316.385 306.52 316.144 305.949 315.88 305.39C315.624 304.848 315.71 304.207 316.092 303.747L318.466 300.901C318.932 300.342 318.946 299.537 318.496 298.959L316.671 296.617C316.223 296.042 315.432 295.849 314.768 296.155L311.398 297.708C310.853 297.96 310.209 297.878 309.743 297.498C309.264 297.105 308.766 296.728 308.249 296.371C307.754 296.028 307.502 295.431 307.603 294.84L308.22 291.198C308.34 290.482 307.946 289.776 307.268 289.501L304.51 288.374C303.832 288.096 303.054 288.323 302.634 288.918L300.499 291.94C300.155 292.428 299.558 292.682 298.966 292.581C298.34 292.474 297.713 292.39 297.089 292.335C296.493 292.281 295.982 291.885 295.774 291.327L294.474 287.866C294.218 287.184 293.521 286.77 292.795 286.865L289.843 287.257C289.118 287.355 288.557 287.936 288.493 288.66L288.17 292.343C288.119 292.936 287.733 293.452 287.17 293.658C286.579 293.874 285.999 294.114 285.428 294.378C284.885 294.63 284.243 294.538 283.781 294.16L280.906 291.799C280.341 291.335 279.529 291.321 278.95 291.764L276.594 293.569C276.016 294.013 275.824 294.794 276.135 295.455L277.708 298.803C277.964 299.344 277.884 299.983 277.5 300.443C277.104 300.917 276.727 301.411 276.369 301.923C276.024 302.414 275.421 302.66 274.827 302.561L271.155 301.94C270.434 301.817 269.722 302.208 269.445 302.881L268.316 305.616C268.038 306.288 268.268 307.062 268.868 307.48L271.92 309.604C272.411 309.947 272.671 310.54 272.568 311.127C272.461 311.748 272.38 312.369 272.324 312.99C272.273 313.581 271.874 314.087 271.314 314.293L267.83 315.574C267.145 315.826 266.726 316.516 266.825 317.238L267.228 320.17C267.327 320.89 267.915 321.447 268.645 321.512L272.358 321.842C272.954 321.895 273.475 322.278 273.686 322.837C273.905 323.424 274.149 324.002 274.417 324.567C274.67 325.106 274.581 325.743 274.199 326.201L271.827 329.047C271.361 329.607 271.347 330.412 271.797 330.989L273.622 333.331C274.07 333.907 274.861 334.099 275.524 333.794L278.895 332.241C279.44 331.989 280.084 332.07 280.55 332.451C281.029 332.844 281.528 333.22 282.044 333.577C282.539 333.921 282.791 334.517 282.69 335.109L282.071 338.75C281.95 339.466 282.345 340.172 283.022 340.448L285.781 341.574C286.458 341.852 287.237 341.626 287.657 341.031L289.791 338.008C290.136 337.52 290.733 337.266 291.325 337.368C291.951 337.475 292.577 337.558 293.202 337.614C293.798 337.667 294.309 338.064 294.517 338.621L295.817 342.08C296.073 342.762 296.77 343.177 297.496 343.082L300.448 342.691C301.173 342.594 301.734 342.013 301.797 341.289L302.12 337.606C302.172 337.011 302.564 336.497 303.129 336.289C303.714 336.074 304.288 335.836 304.853 335.575C305.4 335.323 306.044 335.408 306.507 335.789L309.383 338.151C309.947 338.615 310.76 338.629 311.338 338.187L313.694 336.382C314.273 335.938 314.465 335.156 314.154 334.496L312.581 331.148C312.325 330.606 312.404 329.968 312.789 329.507C313.185 329.033 313.562 328.54 313.92 328.028C314.265 327.536 314.866 327.29 315.462 327.389L319.134 328.01C319.855 328.133 320.566 327.742 320.844 327.07L321.973 324.335C322.251 323.662 322.021 322.889 321.42 322.47L321.422 322.466ZM293.473 327.56C286.464 326.626 281.534 320.235 282.458 313.283C283.381 306.332 289.813 301.455 296.82 302.389C303.828 303.323 308.758 309.713 307.835 316.665C306.912 323.617 300.482 328.494 293.473 327.56Z"/>
</mask>
<path d="M321.422 322.466L318.371 320.342C317.879 319.999 317.62 319.406 317.723 318.819C317.83 318.198 317.911 317.577 317.967 316.957C318.018 316.366 318.416 315.86 318.977 315.654L322.461 314.372C323.146 314.12 323.564 313.43 323.465 312.708L323.063 309.777C322.964 309.057 322.376 308.499 321.646 308.434L317.933 308.105C317.333 308.051 316.813 307.662 316.603 307.101C316.385 306.52 316.144 305.949 315.88 305.39C315.624 304.848 315.71 304.207 316.092 303.747L318.466 300.901C318.932 300.342 318.946 299.537 318.496 298.959L316.671 296.617C316.223 296.042 315.432 295.849 314.768 296.155L311.398 297.708C310.853 297.96 310.209 297.878 309.743 297.498C309.264 297.105 308.766 296.728 308.249 296.371C307.754 296.028 307.502 295.431 307.603 294.84L308.22 291.198C308.34 290.482 307.946 289.776 307.268 289.501L304.51 288.374C303.832 288.096 303.054 288.323 302.634 288.918L300.499 291.94C300.155 292.428 299.558 292.682 298.966 292.581C298.34 292.474 297.713 292.39 297.089 292.335C296.493 292.281 295.982 291.885 295.774 291.327L294.474 287.866C294.218 287.184 293.521 286.77 292.795 286.865L289.843 287.257C289.118 287.355 288.557 287.936 288.493 288.66L288.17 292.343C288.119 292.936 287.733 293.452 287.17 293.658C286.579 293.874 285.999 294.114 285.428 294.378C284.885 294.63 284.243 294.538 283.781 294.16L280.906 291.799C280.341 291.335 279.529 291.321 278.95 291.764L276.594 293.569C276.016 294.013 275.824 294.794 276.135 295.455L277.708 298.803C277.964 299.344 277.884 299.983 277.5 300.443C277.104 300.917 276.727 301.411 276.369 301.923C276.024 302.414 275.421 302.66 274.827 302.561L271.155 301.94C270.434 301.817 269.722 302.208 269.445 302.881L268.316 305.616C268.038 306.288 268.268 307.062 268.868 307.48L271.92 309.604C272.411 309.947 272.671 310.54 272.568 311.127C272.461 311.748 272.38 312.369 272.324 312.99C272.273 313.581 271.874 314.087 271.314 314.293L267.83 315.574C267.145 315.826 266.726 316.516 266.825 317.238L267.228 320.17C267.327 320.89 267.915 321.447 268.645 321.512L272.358 321.842C272.954 321.895 273.475 322.278 273.686 322.837C273.905 323.424 274.149 324.002 274.417 324.567C274.67 325.106 274.581 325.743 274.199 326.201L271.827 329.047C271.361 329.607 271.347 330.412 271.797 330.989L273.622 333.331C274.07 333.907 274.861 334.099 275.524 333.794L278.895 332.241C279.44 331.989 280.084 332.07 280.55 332.451C281.029 332.844 281.528 333.22 282.044 333.577C282.539 333.921 282.791 334.517 282.69 335.109L282.071 338.75C281.95 339.466 282.345 340.172 283.022 340.448L285.781 341.574C286.458 341.852 287.237 341.626 287.657 341.031L289.791 338.008C290.136 337.52 290.733 337.266 291.325 337.368C291.951 337.475 292.577 337.558 293.202 337.614C293.798 337.667 294.309 338.064 294.517 338.621L295.817 342.08C296.073 342.762 296.77 343.177 297.496 343.082L300.448 342.691C301.173 342.594 301.734 342.013 301.797 341.289L302.12 337.606C302.172 337.011 302.564 336.497 303.129 336.289C303.714 336.074 304.288 335.836 304.853 335.575C305.4 335.323 306.044 335.408 306.507 335.789L309.383 338.151C309.947 338.615 310.76 338.629 311.338 338.187L313.694 336.382C314.273 335.938 314.465 335.156 314.154 334.496L312.581 331.148C312.325 330.606 312.404 329.968 312.789 329.507C313.185 329.033 313.562 328.54 313.92 328.028C314.265 327.536 314.866 327.29 315.462 327.389L319.134 328.01C319.855 328.133 320.566 327.742 320.844 327.07L321.973 324.335C322.251 323.662 322.021 322.889 321.42 322.47L321.422 322.466ZM293.473 327.56C286.464 326.626 281.534 320.235 282.458 313.283C283.381 306.332 289.813 301.455 296.82 302.389C303.828 303.323 308.758 309.713 307.835 316.665C306.912 323.617 300.482 328.494 293.473 327.56Z" fill="#FFBD00" stroke="black" stroke-width="1.68037" mask="url(#path-2-inside-1_971_6457)"/>
<mask id="path-3-inside-2_971_6457" fill="white">
<path d="M356.067 305.935L354.337 304.015C354.058 303.706 353.977 303.263 354.139 302.883C354.309 302.48 354.462 302.071 354.597 301.661C354.726 301.268 355.074 300.99 355.486 300.939L358.047 300.623C358.55 300.562 358.942 300.159 358.99 299.658L359.18 297.611C359.228 297.107 358.916 296.637 358.433 296.478L355.972 295.669C355.574 295.538 355.284 295.193 355.231 294.778C355.175 294.352 355.102 293.928 355.013 293.505C354.926 293.099 355.084 292.678 355.415 292.428L357.47 290.877C357.874 290.572 358.009 290.028 357.797 289.568L356.933 287.694C356.721 287.234 356.216 286.98 355.718 287.081L353.192 287.599C352.784 287.682 352.36 287.527 352.106 287.194C351.844 286.851 351.565 286.52 351.274 286.196C350.992 285.885 350.917 285.443 351.078 285.058L352.07 282.692C352.266 282.226 352.11 281.686 351.694 281.393L350.006 280.195C349.591 279.901 349.027 279.929 348.65 280.266L346.73 281.974C346.421 282.249 345.977 282.327 345.593 282.164C345.187 281.992 344.776 281.837 344.362 281.702C343.966 281.571 343.685 281.222 343.631 280.813L343.298 278.267C343.233 277.765 342.827 277.374 342.321 277.325L340.26 277.122C339.755 277.073 339.284 277.378 339.125 277.858L338.324 280.3C338.196 280.692 337.853 280.98 337.441 281.032C337.007 281.085 336.577 281.155 336.149 281.244C335.743 281.327 335.322 281.164 335.069 280.835L333.497 278.782C333.188 278.38 332.641 278.241 332.18 278.449L330.299 279.298C329.838 279.506 329.584 280.006 329.691 280.502L330.228 283.017C330.315 283.424 330.161 283.844 329.828 284.094C329.485 284.352 329.152 284.627 328.829 284.917C328.518 285.195 328.072 285.266 327.686 285.105L325.298 284.104C324.828 283.908 324.287 284.058 323.992 284.469L322.797 286.141C322.504 286.551 322.536 287.111 322.877 287.49L324.606 289.409C324.886 289.719 324.967 290.161 324.805 290.542C324.634 290.945 324.482 291.351 324.347 291.764C324.218 292.156 323.869 292.434 323.457 292.486L320.897 292.801C320.394 292.862 320.001 293.265 319.954 293.767L319.764 295.814C319.716 296.318 320.027 296.788 320.511 296.946L322.972 297.755C323.368 297.886 323.659 298.228 323.713 298.638C323.768 299.07 323.842 299.499 323.935 299.923C324.022 300.328 323.859 300.744 323.53 300.994L321.476 302.545C321.071 302.851 320.937 303.394 321.149 303.854L322.013 305.729C322.225 306.189 322.73 306.443 323.227 306.342L325.754 305.824C326.162 305.741 326.586 305.895 326.84 306.229C327.101 306.572 327.381 306.903 327.672 307.226C327.953 307.538 328.029 307.98 327.868 308.365L326.875 310.731C326.679 311.197 326.836 311.736 327.252 312.03L328.94 313.228C329.354 313.521 329.919 313.494 330.295 313.156L332.215 311.449C332.525 311.173 332.968 311.096 333.353 311.258C333.759 311.431 334.169 311.586 334.583 311.721C334.98 311.851 335.261 312.2 335.315 312.609L335.647 315.156C335.713 315.658 336.119 316.048 336.624 316.098L338.685 316.3C339.19 316.35 339.662 316.044 339.821 315.564L340.621 313.123C340.75 312.728 341.097 312.442 341.511 312.391C341.941 312.337 342.367 312.268 342.791 312.181C343.201 312.095 343.623 312.256 343.877 312.587L345.448 314.64C345.757 315.043 346.304 315.182 346.766 314.973L348.646 314.124C349.108 313.916 349.362 313.416 349.255 312.92L348.718 310.406C348.63 309.999 348.785 309.578 349.118 309.329C349.461 309.071 349.794 308.795 350.117 308.505C350.428 308.228 350.873 308.156 351.26 308.317L353.648 309.319C354.117 309.515 354.658 309.364 354.953 308.954L356.148 307.282C356.442 306.871 356.41 306.312 356.069 305.933L356.067 305.935ZM336.351 304.959C331.756 303.22 329.429 298.114 331.151 293.557C332.875 288.999 337.996 286.716 342.591 288.455C347.186 290.195 349.512 295.3 347.79 299.858C346.066 304.416 340.946 306.699 336.351 304.959Z"/>
</mask>
<path d="M356.067 305.935L354.337 304.015C354.058 303.706 353.977 303.263 354.139 302.883C354.309 302.48 354.462 302.071 354.597 301.661C354.726 301.268 355.074 300.99 355.486 300.939L358.047 300.623C358.55 300.562 358.942 300.159 358.99 299.658L359.18 297.611C359.228 297.107 358.916 296.637 358.433 296.478L355.972 295.669C355.574 295.538 355.284 295.193 355.231 294.778C355.175 294.352 355.102 293.928 355.013 293.505C354.926 293.099 355.084 292.678 355.415 292.428L357.47 290.877C357.874 290.572 358.009 290.028 357.797 289.568L356.933 287.694C356.721 287.234 356.216 286.98 355.718 287.081L353.192 287.599C352.784 287.682 352.36 287.527 352.106 287.194C351.844 286.851 351.565 286.52 351.274 286.196C350.992 285.885 350.917 285.443 351.078 285.058L352.07 282.692C352.266 282.226 352.11 281.686 351.694 281.393L350.006 280.195C349.591 279.901 349.027 279.929 348.65 280.266L346.73 281.974C346.421 282.249 345.977 282.327 345.593 282.164C345.187 281.992 344.776 281.837 344.362 281.702C343.966 281.571 343.685 281.222 343.631 280.813L343.298 278.267C343.233 277.765 342.827 277.374 342.321 277.325L340.26 277.122C339.755 277.073 339.284 277.378 339.125 277.858L338.324 280.3C338.196 280.692 337.853 280.98 337.441 281.032C337.007 281.085 336.577 281.155 336.149 281.244C335.743 281.327 335.322 281.164 335.069 280.835L333.497 278.782C333.188 278.38 332.641 278.241 332.18 278.449L330.299 279.298C329.838 279.506 329.584 280.006 329.691 280.502L330.228 283.017C330.315 283.424 330.161 283.844 329.828 284.094C329.485 284.352 329.152 284.627 328.829 284.917C328.518 285.195 328.072 285.266 327.686 285.105L325.298 284.104C324.828 283.908 324.287 284.058 323.992 284.469L322.797 286.141C322.504 286.551 322.536 287.111 322.877 287.49L324.606 289.409C324.886 289.719 324.967 290.161 324.805 290.542C324.634 290.945 324.482 291.351 324.347 291.764C324.218 292.156 323.869 292.434 323.457 292.486L320.897 292.801C320.394 292.862 320.001 293.265 319.954 293.767L319.764 295.814C319.716 296.318 320.027 296.788 320.511 296.946L322.972 297.755C323.368 297.886 323.659 298.228 323.713 298.638C323.768 299.07 323.842 299.499 323.935 299.923C324.022 300.328 323.859 300.744 323.53 300.994L321.476 302.545C321.071 302.851 320.937 303.394 321.149 303.854L322.013 305.729C322.225 306.189 322.73 306.443 323.227 306.342L325.754 305.824C326.162 305.741 326.586 305.895 326.84 306.229C327.101 306.572 327.381 306.903 327.672 307.226C327.953 307.538 328.029 307.98 327.868 308.365L326.875 310.731C326.679 311.197 326.836 311.736 327.252 312.03L328.94 313.228C329.354 313.521 329.919 313.494 330.295 313.156L332.215 311.449C332.525 311.173 332.968 311.096 333.353 311.258C333.759 311.431 334.169 311.586 334.583 311.721C334.98 311.851 335.261 312.2 335.315 312.609L335.647 315.156C335.713 315.658 336.119 316.048 336.624 316.098L338.685 316.3C339.19 316.35 339.662 316.044 339.821 315.564L340.621 313.123C340.75 312.728 341.097 312.442 341.511 312.391C341.941 312.337 342.367 312.268 342.791 312.181C343.201 312.095 343.623 312.256 343.877 312.587L345.448 314.64C345.757 315.043 346.304 315.182 346.766 314.973L348.646 314.124C349.108 313.916 349.362 313.416 349.255 312.92L348.718 310.406C348.63 309.999 348.785 309.578 349.118 309.329C349.461 309.071 349.794 308.795 350.117 308.505C350.428 308.228 350.873 308.156 351.26 308.317L353.648 309.319C354.117 309.515 354.658 309.364 354.953 308.954L356.148 307.282C356.442 306.871 356.41 306.312 356.069 305.933L356.067 305.935ZM336.351 304.959C331.756 303.22 329.429 298.114 331.151 293.557C332.875 288.999 337.996 286.716 342.591 288.455C347.186 290.195 349.512 295.3 347.79 299.858C346.066 304.416 340.946 306.699 336.351 304.959Z" fill="#FFBD00" stroke="black" stroke-width="1.68037" mask="url(#path-3-inside-2_971_6457)"/>
<path d="M284.007 213.777L209.344 202.611C208.86 202.611 208.702 203.061 208.702 203.493V267.077C208.702 273.164 166.279 288.981 165.865 288.176L165.813 294.905C165.81 296.159 166.854 297.008 168.314 297.27L231.868 308.904C234.772 308.904 237.642 308.254 240.271 307.151L274.69 292.644C280.886 290.032 284.794 284.425 284.794 278.306V214.658C284.794 214.225 284.491 213.775 284.007 213.775V213.777Z" fill="black"/>
<path d="M201.138 198.908V262.505C201.138 268.774 197.108 274.486 190.775 277.192L167.555 287.111C166.039 287.759 166.398 289.511 168.237 289.792L232.032 301.427C234.901 301.427 237.735 300.86 240.329 299.767L266.055 288.926C272.435 286.236 276.507 280.502 276.507 274.201V210.54C276.507 210.28 276.271 210.068 275.98 210.068L201.669 198.434C201.378 198.434 201.142 198.644 201.142 198.906L201.138 198.908Z" fill="white"/>
<path d="M232.032 301.877C232.004 301.877 231.978 301.875 231.951 301.869L168.155 290.235C167.064 290.066 166.279 289.396 166.17 288.527C166.073 287.759 166.537 287.059 167.379 286.698L190.598 276.779C196.729 274.161 200.69 268.556 200.69 262.505V198.908C200.69 198.4 201.128 197.987 201.667 197.987C201.691 197.987 201.713 197.987 201.736 197.993L276.018 209.624C276.537 209.644 276.955 210.048 276.955 210.544V274.205C276.955 280.655 272.744 286.597 266.229 289.342L240.503 300.183C237.871 301.292 234.941 301.879 232.032 301.879V301.877ZM201.586 198.912V262.503C201.586 268.915 197.411 274.843 190.949 277.602L167.729 287.521C167.264 287.72 167.014 288.053 167.06 288.412C167.103 288.763 167.456 289.217 168.304 289.348L232.071 300.979C234.85 300.973 237.643 300.411 240.154 299.354L265.88 288.513C272.063 285.907 276.057 280.29 276.057 274.203V210.542C276.057 210.542 275.98 210.524 275.909 210.514L201.643 198.886C201.611 198.892 201.594 198.906 201.586 198.914V198.912Z" fill="#666666"/>
<path d="M400.075 264.74L391.745 272.523L90.1329 220.281C85.9677 219.559 82.9499 215.909 83.0192 211.681L86.2075 18.9117L96.2023 13.5427C98.0372 12.5629 100.148 12.2317 102.192 12.6026L395.335 65.5391C399.734 66.3344 402.934 70.1663 402.934 74.6408L402.998 257.993C402.998 260.549 401.939 262.993 400.075 264.742V264.74Z" fill="#666666"/>
<path d="M385.033 273.538L89.3976 220.106C85.7219 219.442 83.0488 216.24 83.0488 212.502V26.4604C83.0488 21.6427 87.4042 17.9993 92.1401 18.8561L387.775 72.2864C391.451 72.9509 394.124 76.1521 394.124 79.8907V265.932C394.124 270.75 389.769 274.393 385.033 273.536V273.538Z" fill="white"/>
<path d="M386.412 274.11C385.927 274.11 385.439 274.066 384.954 273.979L89.3165 220.548C85.4248 219.844 82.5991 216.461 82.5991 212.502V26.4624C82.5991 24.0328 83.6672 21.7459 85.5298 20.189C87.3924 18.632 89.8297 17.9854 92.2194 18.4178L387.855 71.8482C391.746 72.5523 394.572 75.9359 394.572 79.8948V265.936C394.572 268.366 393.504 270.653 391.641 272.21C390.157 273.449 388.309 274.114 386.41 274.114L386.412 274.11ZM385.112 273.096C387.24 273.481 389.41 272.906 391.067 271.519C392.725 270.133 393.676 268.096 393.676 265.934V79.8928C393.676 76.3683 391.162 73.3556 387.696 72.7308L92.0609 19.2984C89.9347 18.9117 87.765 19.4889 86.1064 20.8752C84.4479 22.2616 83.4968 24.2986 83.4968 26.4604V212.502C83.4968 216.026 86.0113 219.039 89.477 219.664L385.112 273.094V273.096Z" fill="#666666"/>
<path d="M359.039 162.558C358.564 162.558 358.076 162.517 357.585 162.429L294.581 151.36C289.922 150.541 286.133 145.979 286.133 141.189V76.3723C286.133 73.9982 287.043 71.9275 288.695 70.5391C290.32 69.1746 292.466 68.641 294.737 69.0397L357.742 80.109C362.4 80.9281 366.189 85.4899 366.189 90.2798V155.097C366.189 157.471 365.279 159.541 363.629 160.93C362.357 161.999 360.763 162.558 359.041 162.558H359.039ZM357.74 161.545C359.743 161.898 361.631 161.436 363.05 160.244C364.495 159.028 365.291 157.201 365.291 155.097V90.2798C365.291 85.9064 361.833 81.7393 357.585 80.9935L294.581 69.9243C292.575 69.5732 290.689 70.0334 289.27 71.2254C287.826 72.4412 287.029 74.2679 287.029 76.3723V141.189C287.029 145.563 290.487 149.73 294.735 150.475L357.74 161.545Z" fill="black"/>
<path d="M269.77 147.08C269.294 147.08 268.807 147.036 268.316 146.951L205.311 135.882C200.652 135.063 196.864 130.501 196.864 125.711V60.8941C196.864 58.52 197.773 56.4493 199.426 55.061C201.051 53.6964 203.197 53.1629 205.468 53.5615L268.472 64.6308C273.131 65.4499 276.919 70.0117 276.919 74.8016V139.619C276.919 141.993 276.01 144.063 274.357 145.452C273.085 146.521 271.492 147.08 269.77 147.08ZM204.015 54.3311C202.501 54.3311 201.108 54.817 200.001 55.7492C198.556 56.965 197.759 58.7917 197.759 60.8961V125.713C197.759 130.086 201.217 134.254 205.466 134.999L268.47 146.069C270.477 146.422 272.362 145.959 273.781 144.767C275.225 143.554 276.022 141.725 276.022 139.621V74.8036C276.022 70.4302 272.564 66.2631 268.316 65.5174L205.311 54.4481C204.873 54.3708 204.439 54.3331 204.015 54.3331V54.3311Z" fill="black"/>
<path d="M177.241 222.429C176.765 222.429 176.278 222.387 175.786 222.3L112.784 211.23C108.125 210.411 104.336 205.85 104.336 201.06V136.243C104.336 133.869 105.246 131.798 106.899 130.41C108.523 129.045 110.669 128.513 112.94 128.91L175.943 139.979C180.601 140.799 184.39 145.36 184.39 150.15V214.967C184.39 217.341 183.48 219.412 181.83 220.8C180.558 221.869 178.965 222.429 177.243 222.429H177.241ZM175.941 221.415C177.946 221.768 179.832 221.306 181.251 220.112C182.696 218.898 183.492 217.07 183.492 214.965V150.148C183.492 145.775 180.035 141.608 175.786 140.862L112.784 129.793C110.778 129.44 108.892 129.902 107.473 131.094C106.029 132.308 105.232 134.136 105.232 136.241V201.058C105.232 205.431 108.69 209.598 112.938 210.344L175.941 221.413V221.415Z" fill="black"/>
<path d="M136.33 153.068L135.809 195.954C135.791 197.394 136.98 198.822 138.401 199.072L149.755 201.068C151.053 201.296 152.075 200.451 152.091 199.136L152.612 156.249C152.63 154.809 151.441 153.381 150.02 153.131L138.664 151.136C137.366 150.908 136.344 151.753 136.328 153.068H136.33Z" fill="white"/>
<path d="M120.672 166.319L120.573 177.566C120.561 179.002 121.746 180.426 123.165 180.676L165.429 188.102C166.73 188.33 167.753 187.481 167.765 186.162L167.864 174.915C167.876 173.479 166.691 172.055 165.272 171.805L123.008 164.379C121.706 164.151 120.684 165 120.672 166.319Z" fill="black"/>
<path d="M149.801 211.45C147.918 211.45 145.996 211.282 144.048 210.939C125.473 207.676 110.362 189.477 110.362 170.369C110.362 160.999 113.937 152.836 120.426 147.379C126.805 142.018 135.25 139.932 144.205 141.504C162.78 144.769 177.891 162.967 177.891 182.075C177.891 191.444 174.316 199.61 167.826 205.064C162.835 209.261 156.577 211.45 149.801 211.45ZM138.456 141.893C131.888 141.893 125.83 144.011 121.003 148.069C114.72 153.351 111.26 161.271 111.26 170.371C111.26 189.062 126.038 206.865 144.205 210.056C152.894 211.583 161.079 209.566 167.25 204.378C173.533 199.096 176.993 191.176 176.993 182.077C176.993 163.385 162.215 145.582 144.048 142.391C142.156 142.058 140.285 141.893 138.456 141.893Z" fill="black"/>
<path d="M359.343 254.397C358.867 254.397 358.38 254.355 357.888 254.268L294.886 243.199C290.227 242.38 286.438 237.818 286.438 233.028V168.211C286.438 165.837 287.348 163.766 289.001 162.378C290.625 161.013 292.771 160.48 295.042 160.878L358.045 171.948C362.703 172.767 366.492 177.329 366.492 182.118V246.935C366.492 249.309 365.583 251.38 363.93 252.768C362.658 253.838 361.065 254.397 359.343 254.397ZM358.043 253.383C360.048 253.736 361.935 253.274 363.353 252.082C364.798 250.866 365.594 249.04 365.594 246.935V182.118C365.594 177.745 362.137 173.578 357.888 172.832L294.886 161.763C292.88 161.41 290.994 161.872 289.575 163.064C288.131 164.28 287.334 166.107 287.334 168.211V233.028C287.334 237.401 290.792 241.568 295.04 242.314L358.043 253.383Z" fill="black"/>
<path d="M268.452 238.09C267.976 238.09 267.489 238.046 266.998 237.961L203.993 226.891C199.335 226.072 195.546 221.51 195.546 216.721V151.904C195.546 149.53 196.455 147.459 198.106 146.07C199.731 144.706 201.877 144.172 204.148 144.571L267.152 155.64C271.811 156.459 275.599 161.021 275.599 165.811V230.628C275.599 233.002 274.69 235.073 273.037 236.461C271.765 237.53 270.172 238.09 268.45 238.09H268.452ZM202.697 145.341C201.183 145.341 199.79 145.827 198.683 146.759C197.238 147.975 196.442 149.801 196.442 151.906V216.723C196.442 221.096 199.899 225.263 204.148 226.009L267.152 237.078C269.159 237.431 271.044 236.969 272.463 235.777C273.907 234.563 274.704 232.734 274.704 230.63V165.813C274.704 161.44 271.246 157.273 266.998 156.527L203.993 145.458C203.555 145.38 203.121 145.343 202.697 145.343V145.341Z" fill="black"/>
<path d="M213.094 222.028L207.195 220.991C206.442 220.858 205.832 220.122 205.832 219.348V210.885C205.832 210.11 206.442 209.588 207.195 209.721L213.094 210.758C213.847 210.891 214.458 211.627 214.458 212.401V220.864C214.458 221.639 213.847 222.161 213.094 222.028Z" fill="url(#paint0_linear_971_6457)"/>
<path d="M225.858 224.269L219.959 223.232C219.206 223.099 218.595 222.363 218.595 221.59V204.669C218.595 203.894 219.206 203.372 219.959 203.505L225.858 204.542C226.61 204.675 227.221 205.411 227.221 206.185V223.105C227.221 223.88 226.61 224.402 225.858 224.269Z" fill="url(#paint1_linear_971_6457)"/>
<path d="M238.908 226.562L233.009 225.525C232.256 225.392 231.646 224.656 231.646 223.882V199.858C231.646 199.082 232.256 198.561 233.009 198.693L238.908 199.731C239.661 199.864 240.271 200.599 240.271 201.373V225.398C240.271 226.173 239.661 226.695 238.908 226.562Z" fill="url(#paint2_linear_971_6457)"/>
<path d="M251.956 228.855L246.057 227.817C245.304 227.685 244.694 226.949 244.694 226.175V194.994C244.694 194.219 245.304 193.697 246.057 193.83L251.956 194.867C252.709 195 253.319 195.736 253.319 196.51V227.69C253.319 228.466 252.709 228.988 251.956 228.855Z" fill="url(#paint3_linear_971_6457)"/>
<path d="M265.617 231.255L259.718 230.217C258.965 230.084 258.354 229.349 258.354 228.575V184.076C258.354 183.3 258.965 182.779 259.718 182.912L265.617 183.949C266.37 184.082 266.98 184.818 266.98 185.591V230.09C266.98 230.866 266.37 231.388 265.617 231.255Z" fill="url(#paint4_linear_971_6457)"/>
<path d="M206.821 197.105L206.815 201.048C222.176 201.24 249.382 186.952 258.711 169.52L262.486 173.116L261.84 158.31L251.439 162.935L255.075 166.253C243.97 181.49 232.176 192.057 206.821 197.107V197.105Z" fill="#FFBD00"/>
<path d="M179.157 132.05C178.68 132.05 178.194 132.006 177.703 131.921L114.698 120.852C110.04 120.033 106.251 115.471 106.251 110.681V45.864C106.251 43.4899 107.16 41.4192 108.811 40.0308C110.436 38.6663 112.582 38.1347 114.853 38.5314L177.857 49.6007C182.516 50.4198 186.305 54.9816 186.305 59.7714V124.588C186.305 126.963 185.395 129.033 183.742 130.422C182.47 131.491 180.877 132.05 179.157 132.05ZM113.402 39.301C111.888 39.301 110.495 39.7869 109.388 40.7191C107.943 41.9329 107.147 43.7616 107.147 45.8659V110.683C107.147 115.056 110.604 119.223 114.853 119.969L177.857 131.038C179.863 131.391 181.749 130.929 183.168 129.737C184.612 128.523 185.409 126.695 185.409 124.59V59.7734C185.409 55.4001 181.951 51.233 177.703 50.4872L114.698 39.418C114.26 39.3406 113.826 39.3029 113.402 39.3029V39.301Z" fill="black"/>
<path d="M165.49 119.144C165.465 119.144 165.439 119.142 165.413 119.138L120.304 111.214C120.09 111.177 119.933 110.99 119.933 110.772V49.196C119.933 49.0631 119.993 48.9382 120.094 48.8529C120.195 48.7676 120.329 48.7319 120.46 48.7537L165.57 56.6793C165.784 56.717 165.94 56.9035 165.94 57.1216V118.696C165.94 118.829 165.881 118.954 165.78 119.039C165.698 119.106 165.595 119.144 165.492 119.144H165.49ZM120.831 110.393L165.042 118.16V57.4965L120.831 49.7296V110.393Z" fill="black"/>
<path d="M152.518 61.5069C152.492 61.5069 152.466 61.5049 152.44 61.501L133.572 58.1867C133.329 58.1431 133.166 57.911 133.208 57.6671C133.251 57.4231 133.481 57.2625 133.727 57.3021L152.595 60.6164C152.839 60.66 153.001 60.892 152.959 61.136C152.922 61.3542 152.732 61.5069 152.518 61.5069Z" fill="black"/>
<path d="M160.626 69.4543C160.6 69.4543 160.572 69.4524 160.547 69.4464L125.61 63.1571C125.367 63.1135 125.204 62.8794 125.248 62.6355C125.291 62.3915 125.523 62.2289 125.769 62.2725L160.705 68.5618C160.949 68.6054 161.111 68.8395 161.068 69.0834C161.028 69.3016 160.84 69.4523 160.628 69.4523L160.626 69.4543Z" fill="black"/>
<path d="M160.626 75.823C160.6 75.823 160.572 75.821 160.547 75.815L125.61 69.5257C125.367 69.4821 125.204 69.2481 125.248 69.0041C125.291 68.7601 125.523 68.5975 125.769 68.6411L160.705 74.9304C160.949 74.9741 161.111 75.2081 161.068 75.4521C161.028 75.6703 160.84 75.821 160.628 75.821L160.626 75.823Z" fill="black"/>
<path d="M160.626 81.8901C160.6 81.8901 160.572 81.8881 160.547 81.8822L125.61 75.5929C125.367 75.5492 125.204 75.3152 125.248 75.0712C125.291 74.8273 125.523 74.6646 125.769 74.7083L160.705 80.9976C160.949 81.0412 161.111 81.2753 161.068 81.5192C161.028 81.7374 160.84 81.8881 160.628 81.8881L160.626 81.8901Z" fill="black"/>
<path d="M161.216 107.472C161.191 107.472 161.163 107.47 161.137 107.464L126.199 101.175C125.955 101.131 125.793 100.897 125.836 100.653C125.88 100.409 126.112 100.246 126.357 100.29L161.296 106.579C161.539 106.623 161.702 106.857 161.658 107.101C161.619 107.319 161.43 107.47 161.218 107.47L161.216 107.472Z" fill="black"/>
<path d="M161.216 97.765C161.191 97.765 161.163 97.763 161.137 97.757L126.199 91.4677C125.955 91.4241 125.793 91.19 125.836 90.9461C125.88 90.7021 126.112 90.5395 126.357 90.5831L161.296 96.8724C161.539 96.9161 161.702 97.1501 161.658 97.3941C161.619 97.6122 161.43 97.763 161.218 97.763L161.216 97.765Z" fill="white"/>
<path d="M175.681 122.502L144.455 117.016V73.3872L175.681 78.8732V122.502Z" fill="white"/>
<path d="M175.682 122.95C175.656 122.95 175.63 122.948 175.604 122.944L144.375 117.458C144.161 117.42 144.005 117.234 144.005 117.016V73.3892C144.005 73.2563 144.064 73.1313 144.165 73.0461C144.266 72.9608 144.401 72.9251 144.532 72.9469L175.761 78.4329C175.975 78.4706 176.131 78.6571 176.131 78.8752V122.502C176.131 122.635 176.072 122.76 175.971 122.845C175.89 122.912 175.787 122.95 175.683 122.95H175.682ZM144.903 116.639L175.234 121.968V79.2521L144.903 73.9227V116.639Z" fill="black"/>
<path d="M170.742 90.5513C170.716 90.5513 170.69 90.5494 170.664 90.5454L149.315 86.7948C149.101 86.7571 148.945 86.5707 148.945 86.3525V79.5991C148.945 79.4662 149.004 79.3413 149.105 79.256C149.206 79.1707 149.341 79.135 149.472 79.1568L170.821 82.9074C171.035 82.9451 171.191 83.1315 171.191 83.3497V90.1031C171.191 90.236 171.132 90.3609 171.031 90.4462C170.95 90.5137 170.847 90.5513 170.744 90.5513H170.742ZM149.84 85.9757L170.292 89.5696V83.7265L149.84 80.1326V85.9757Z" fill="black"/>
<path d="M156.759 100.982C156.734 100.982 156.708 100.98 156.682 100.976L149.687 99.7465C149.473 99.7088 149.317 99.5223 149.317 99.3042V92.5508C149.317 92.4179 149.376 92.2929 149.477 92.2076C149.578 92.1223 149.713 92.0866 149.844 92.1085L156.839 93.3382C157.053 93.3758 157.209 93.5623 157.209 93.7805V100.534C157.209 100.667 157.15 100.792 157.049 100.877C156.968 100.944 156.865 100.982 156.761 100.982H156.759ZM150.215 98.9273L156.312 99.9984V94.1553L150.215 93.0843V98.9273Z" fill="black"/>
<path d="M169.798 103.273C169.772 103.273 169.747 103.271 169.721 103.267L162.728 102.037C162.514 102 162.357 101.813 162.357 101.595V94.8416C162.357 94.7087 162.417 94.5837 162.518 94.4984C162.619 94.4132 162.754 94.3775 162.885 94.3993L169.877 95.629C170.091 95.6667 170.248 95.8531 170.248 96.0713V102.825C170.248 102.958 170.188 103.083 170.087 103.168C170.006 103.235 169.903 103.273 169.8 103.273H169.798ZM163.253 101.218L169.35 102.289V96.4461L163.253 95.3751V101.218Z" fill="black"/>
<path d="M156.759 114.013C156.734 114.013 156.708 114.011 156.682 114.007L149.687 112.777C149.473 112.74 149.317 112.553 149.317 112.335V105.582C149.317 105.449 149.376 105.324 149.477 105.238C149.578 105.153 149.713 105.117 149.844 105.139L156.839 106.369C157.053 106.407 157.209 106.593 157.209 106.811V113.565C157.209 113.698 157.15 113.823 157.049 113.908C156.968 113.975 156.865 114.013 156.761 114.013H156.759ZM150.215 111.958L156.312 113.029V107.186L150.215 106.115V111.958Z" fill="black"/>
<path d="M169.798 116.304C169.772 116.304 169.747 116.302 169.721 116.298L162.728 115.068C162.514 115.03 162.357 114.844 162.357 114.626V107.872C162.357 107.74 162.417 107.615 162.518 107.529C162.619 107.444 162.754 107.408 162.885 107.43L169.877 108.658C170.091 108.696 170.248 108.882 170.248 109.1V115.854C170.248 115.986 170.188 116.111 170.087 116.197C170.006 116.264 169.903 116.302 169.8 116.302L169.798 116.304ZM163.253 114.249L169.35 115.32V109.477L163.253 108.406V114.249Z" fill="black"/>
<path d="M343.097 232.154L311.871 226.668V183.039L343.097 188.526V232.154Z" fill="white"/>
<path d="M343.098 232.602C343.072 232.602 343.047 232.6 343.021 232.596L311.792 227.11C311.578 227.073 311.421 226.886 311.421 226.668V183.042C311.421 182.909 311.481 182.784 311.582 182.698C311.683 182.613 311.818 182.577 311.948 182.599L343.177 188.085C343.391 188.123 343.548 188.309 343.548 188.528V232.154C343.548 232.287 343.488 232.412 343.387 232.497C343.306 232.565 343.203 232.602 343.1 232.602H343.098ZM312.319 226.291L342.65 231.621V188.904L312.319 183.575V226.291Z" fill="black"/>
<path d="M338.158 200.204C338.132 200.204 338.106 200.202 338.08 200.198L316.731 196.447C316.517 196.409 316.361 196.223 316.361 196.005V189.251C316.361 189.119 316.42 188.994 316.521 188.908C316.622 188.823 316.757 188.787 316.888 188.809L338.237 192.56C338.451 192.597 338.607 192.784 338.607 193.002V199.755C338.607 199.888 338.548 200.013 338.447 200.099C338.366 200.166 338.263 200.204 338.16 200.204H338.158ZM317.256 195.628L337.708 199.222V193.379L317.256 189.785V195.628Z" fill="black"/>
<path d="M324.176 210.634C324.15 210.634 324.124 210.632 324.099 210.628L317.104 209.399C316.89 209.361 316.733 209.175 316.733 208.956V202.203C316.733 202.07 316.793 201.945 316.894 201.86C316.995 201.775 317.13 201.739 317.26 201.761L324.255 202.99C324.469 203.028 324.626 203.215 324.626 203.433V210.186C324.626 210.319 324.566 210.444 324.465 210.529C324.384 210.597 324.281 210.634 324.178 210.634H324.176ZM317.631 208.58L323.728 209.651V203.808L317.631 202.737V208.58Z" fill="black"/>
<path d="M337.215 212.925C337.189 212.925 337.163 212.923 337.137 212.919L330.144 211.69C329.93 211.652 329.774 211.465 329.774 211.247V204.494C329.774 204.361 329.833 204.236 329.934 204.151C330.035 204.065 330.17 204.03 330.301 204.052L337.294 205.281C337.508 205.319 337.664 205.505 337.664 205.724V212.477C337.664 212.61 337.605 212.735 337.504 212.82C337.423 212.888 337.32 212.925 337.217 212.925H337.215ZM330.67 210.87L336.767 211.941V206.098L330.67 205.027V210.87Z" fill="black"/>
<path d="M324.176 223.665C324.15 223.665 324.124 223.663 324.099 223.659L317.104 222.43C316.89 222.392 316.733 222.205 316.733 221.987V215.234C316.733 215.101 316.793 214.976 316.894 214.891C316.995 214.805 317.13 214.77 317.26 214.792L324.255 216.021C324.469 216.059 324.626 216.245 324.626 216.464V223.217C324.626 223.35 324.566 223.475 324.465 223.56C324.384 223.628 324.281 223.665 324.178 223.665H324.176ZM317.631 221.61L323.728 222.682V216.838L317.631 215.767V221.61Z" fill="black"/>
<path d="M337.215 225.956C337.189 225.956 337.163 225.954 337.137 225.95L330.144 224.72C329.93 224.683 329.774 224.496 329.774 224.278V217.525C329.774 217.392 329.833 217.267 329.934 217.182C330.035 217.096 330.17 217.061 330.301 217.082L337.294 218.31C337.508 218.348 337.664 218.534 337.664 218.752V225.506C337.664 225.639 337.605 225.764 337.504 225.849C337.423 225.916 337.32 225.954 337.217 225.954L337.215 225.956ZM330.67 223.901L336.767 224.972V219.129L330.67 218.058V223.901Z" fill="black"/>
<path d="M125.45 330.966C125.45 330.966 122.434 344.752 125.769 348.691L126.804 350.379L123.578 351.757C119.48 353.509 114.73 352.727 111.421 349.758L110.975 349.357L111.758 347.616C113.153 344.516 115.55 334.897 115.319 331.62L125.448 330.964L125.45 330.966Z" fill="white"/>
<path d="M119.081 353.126C116.192 353.126 113.339 352.082 111.124 350.095L110.678 349.694C110.533 349.564 110.488 349.355 110.569 349.177L111.352 347.435C112.709 344.415 115.097 334.817 114.875 331.654C114.867 331.535 114.906 331.418 114.984 331.326C115.063 331.237 115.174 331.182 115.293 331.174L125.422 330.517C125.563 330.513 125.7 330.565 125.791 330.672C125.882 330.779 125.92 330.922 125.89 331.061C125.86 331.197 122.959 344.677 126.114 348.401C126.13 348.419 126.142 348.437 126.153 348.457L127.188 350.145C127.255 350.256 127.273 350.391 127.233 350.516C127.194 350.641 127.103 350.742 126.982 350.791L123.756 352.17C122.254 352.81 120.663 353.124 119.083 353.124L119.081 353.126ZM111.52 349.246L111.722 349.427C114.892 352.271 119.478 353.025 123.403 351.347L126.152 350.172L125.406 348.957C122.361 345.293 124.352 334.165 124.893 331.453L115.786 332.042C115.806 335.729 113.535 344.766 112.17 347.802L111.52 349.246Z" fill="black"/>
<path d="M126.623 343.968L128.44 345.583C132.062 348.802 136.404 351.083 141.094 352.231L141.988 352.449C142.328 352.533 142.606 352.78 142.729 353.112L142.792 353.28C143.49 355.155 141.821 359.825 135.028 362.19C133.265 362.803 128.547 362.344 121.536 362.34C118.495 362.338 115.36 362.33 113.543 362.326C111.759 362.323 109.992 361.841 108.514 360.833C106.861 359.706 105.365 357.816 105.987 354.764C106.598 351.769 109.007 345.906 110.309 343.699C110.561 343.272 111.11 343.175 111.506 343.47L112.855 346.783C113.769 349.024 116.059 350.466 118.431 350.101C118.58 350.077 118.73 350.049 118.883 350.014C120.407 349.665 121.719 348.693 122.638 347.417L124.998 344.149C125.382 343.617 126.135 343.534 126.623 343.968Z" fill="white"/>
<path d="M131.537 362.959C130.489 362.959 129.259 362.927 127.842 362.892C125.997 362.844 123.907 362.793 121.533 362.791C118.491 362.789 115.356 362.781 113.539 362.777C111.585 362.771 109.758 362.227 108.258 361.206C105.934 359.623 104.997 357.364 105.546 354.675C106.154 351.69 108.526 345.835 109.921 343.473C110.105 343.161 110.398 342.949 110.749 342.877C111.102 342.808 111.474 342.891 111.77 343.112C111.835 343.161 111.887 343.227 111.918 343.302L113.268 346.614C114.118 348.703 116.26 349.982 118.362 349.659C118.499 349.637 118.64 349.611 118.78 349.577C120.13 349.268 121.37 348.409 122.274 347.156L124.634 343.887C124.891 343.53 125.288 343.298 125.724 343.25C126.16 343.203 126.593 343.342 126.922 343.633L128.739 345.248C132.292 348.405 136.602 350.67 141.201 351.795L142.095 352.013C142.58 352.132 142.975 352.485 143.149 352.955L143.212 353.124C143.547 354.024 143.389 355.323 142.79 356.597C142.083 358.1 140.153 360.881 135.175 362.612C134.413 362.878 133.206 362.957 131.539 362.957L131.537 362.959ZM111.001 343.75C110.977 343.75 110.953 343.752 110.93 343.758C110.86 343.772 110.763 343.814 110.696 343.929C109.364 346.186 107.01 351.999 106.428 354.855C105.95 357.194 106.737 359.082 108.766 360.464C110.117 361.384 111.77 361.874 113.543 361.88C115.36 361.884 118.495 361.892 121.535 361.894C123.92 361.894 126.017 361.95 127.866 361.995C131.306 362.083 133.792 362.146 134.88 361.767C139.549 360.143 141.33 357.592 141.978 356.218C142.567 354.968 142.567 353.963 142.372 353.439L142.309 353.27C142.238 353.078 142.077 352.935 141.881 352.886L140.987 352.667C136.245 351.507 131.805 349.175 128.143 345.92L126.326 344.306C126.185 344.181 126.007 344.125 125.821 344.143C125.634 344.163 125.472 344.26 125.361 344.413L123.001 347.681C121.969 349.109 120.542 350.093 118.982 350.452C118.82 350.49 118.659 350.519 118.501 350.545C115.953 350.938 113.462 349.46 112.439 346.953L111.146 343.78C111.098 343.76 111.05 343.75 111.001 343.75Z" fill="black"/>
<path d="M116.936 359.532C111.241 359.532 108.431 356.523 108.31 356.388C108.144 356.206 108.155 355.92 108.34 355.754C108.522 355.587 108.805 355.599 108.972 355.781C109 355.813 111.873 358.862 117.607 358.618C121.891 358.433 128.204 358.511 131.587 358.57C133.6 358.606 135.495 358.064 137.066 357.003C137.587 356.652 137.981 356.301 138.237 355.962C138.386 355.764 138.667 355.726 138.865 355.875C139.063 356.023 139.101 356.305 138.952 356.503C138.635 356.922 138.17 357.34 137.567 357.747C135.841 358.911 133.767 359.502 131.571 359.466C128.201 359.405 121.907 359.33 117.647 359.512C117.405 359.522 117.169 359.528 116.938 359.528L116.936 359.532Z" fill="black"/>
<path d="M80.3546 330.164C80.3546 330.164 76.2053 338.591 77.4972 343.377L77.733 345.279L64.2686 336.87L65.7547 335.908C68.7012 333.958 71.6042 330.802 72.5791 327.79L80.3565 330.164H80.3546Z" fill="white"/>
<path d="M77.7331 345.727C77.6498 345.727 77.5686 345.706 77.4953 345.66L64.0308 337.25C63.9001 337.169 63.8208 337.026 63.8208 336.874C63.8208 336.721 63.8961 336.576 64.0269 336.493L65.513 335.531C68.6735 333.438 71.2832 330.344 72.1531 327.651C72.2284 327.417 72.4761 327.288 72.7099 327.359L80.4874 329.733C80.6142 329.771 80.7153 329.864 80.7688 329.983C80.8203 330.104 80.8183 330.241 80.7589 330.36C80.7172 330.443 76.6987 338.692 77.9312 343.258C77.9372 343.278 77.9411 343.3 77.9431 343.32L78.1789 345.22C78.2007 345.392 78.1214 345.561 77.9748 345.654C77.9015 345.702 77.8183 345.725 77.7331 345.725V345.727ZM65.1048 336.864L77.1723 344.401L77.0554 343.464C75.922 339.178 78.8606 332.318 79.7265 330.441L72.8565 328.345C71.8083 331.116 69.165 334.188 66.0005 336.283L65.1028 336.864H65.1048Z" fill="black"/>
<path d="M79.0263 340.58L79.272 342.905C79.7575 347.508 81.3427 351.921 83.8929 355.767L85.8527 358.722C86.0389 359.004 86.0766 359.361 85.9497 359.675L85.8863 359.835C85.1769 361.61 81.0078 363.812 74.7086 361.037C70.8109 359.32 66.8776 354.066 55.6582 343.478C55.0776 342.931 55.2639 341.931 55.7672 341.312C57.606 339.055 62.2032 333.829 66.3109 332.568C66.7686 332.427 67.2461 332.702 67.3393 333.177L68.223 337.728C68.6193 339.771 70.585 341.1 72.6062 340.69L77.768 339.644C78.3783 339.521 78.9629 339.954 79.0283 340.58H79.0263Z" fill="white"/>
<path d="M80.364 362.804C78.8105 362.804 76.8567 362.473 74.5265 361.448C71.9802 360.325 69.533 357.856 65.0944 353.373C62.5818 350.837 59.455 347.681 55.3493 343.806C54.5745 343.074 54.7746 341.82 55.4186 341.031C57.2416 338.792 61.9418 333.442 66.1783 332.139C66.5211 332.034 66.8936 332.08 67.1968 332.262C67.498 332.443 67.71 332.746 67.7774 333.093L68.6611 337.645C68.8316 338.52 69.3289 339.274 70.066 339.767C70.7913 340.253 71.6612 340.426 72.5152 340.253L77.6771 339.208C78.0892 339.125 78.5212 339.22 78.862 339.47C79.2048 339.722 79.4268 340.111 79.4723 340.537L79.718 342.861C80.1936 347.374 81.7669 351.753 84.2676 355.523L86.2273 358.479C86.4949 358.883 86.5484 359.395 86.368 359.845L86.3046 360.004C85.9618 360.863 85.0147 361.678 83.7703 362.188C83.043 362.485 81.8997 362.806 80.368 362.806L80.364 362.804ZM66.5528 332.98C66.5152 332.98 66.4775 332.986 66.4418 332.998C62.4411 334.228 57.8876 339.422 56.1141 341.598C55.7377 342.06 55.5871 342.796 55.9655 343.153C60.0812 347.036 63.2139 350.2 65.7325 352.743C70.0958 357.148 72.4974 359.573 74.8891 360.629C79.2108 362.533 82.0939 361.902 83.4275 361.357C84.6322 360.863 85.2723 360.163 85.4684 359.671L85.5318 359.512C85.6032 359.335 85.5834 359.133 85.4763 358.974L83.5166 356.019C80.9367 352.128 79.3138 347.612 78.8224 342.955L78.5767 340.63C78.5589 340.454 78.4697 340.299 78.327 340.194C78.1883 340.093 78.0179 340.053 77.8495 340.089L72.6876 341.134C71.5978 341.354 70.4881 341.134 69.5608 340.513C68.6255 339.886 67.9914 338.928 67.7754 337.816L66.8916 333.264C66.8718 333.165 66.8144 333.083 66.7311 333.032C66.6757 332.998 66.6123 332.98 66.5488 332.98H66.5528Z" fill="black"/>
<path d="M81.5176 359.006C81.4958 359.006 81.474 359.006 81.4522 359.002L80.3961 358.845C76.8808 358.328 73.5598 356.644 71.0472 354.107L59.3305 342.274C59.1561 342.098 59.1581 341.814 59.3325 341.64C59.5088 341.465 59.7922 341.467 59.9665 341.642L71.6833 353.474C74.0611 355.874 77.1999 357.467 80.5268 357.957L81.583 358.114C81.8287 358.149 81.9971 358.377 81.9615 358.623C81.9278 358.845 81.7375 359.006 81.5196 359.006H81.5176Z" fill="black"/>
<path d="M133.245 191.982C142.461 194.542 148.17 196.107 148.17 196.107C148.17 196.107 129.809 262.049 124.495 278.57C119.676 293.547 88.0982 326.169 82.4985 332.772C81.9199 333.454 80.2772 334.143 80.2772 334.143C77.0572 334.922 73.6886 333.651 71.7626 330.929C71.7626 330.929 70.748 328.645 70.9858 327.482L72.7395 318.916C79.3974 291.736 92.1287 278.283 97.5224 249.906C105.664 207.079 111.752 197.408 113.111 194.155C117.324 184.078 133.245 191.98 133.245 191.98V191.982Z" fill="url(#paint5_linear_971_6457)"/>
<path d="M163.812 193.201C165.443 208.662 164.478 235.346 162.98 247.399C158.854 280.577 131.452 327.254 126.401 336.731C125.755 337.945 124.562 338.768 123.207 338.923C119.323 339.365 117.882 338.399 115.895 337.38C114.468 336.648 113.636 335.15 113.602 333.536C112.921 301.034 119.838 273.201 127.013 255.472C129.781 248.633 132.809 209.727 132.435 195.704L163.812 193.201Z" fill="url(#paint6_linear_971_6457)"/>
<path d="M114.389 301.006C114.361 301.006 114.333 301.004 114.305 300.998C114.062 300.953 113.901 300.719 113.947 300.475C117.188 282.987 119.911 272.148 123.05 264.23C127.437 253.163 129.741 241.644 129.902 229.989L129.981 224.206C129.985 223.958 130.203 223.759 130.435 223.763C130.683 223.767 130.881 223.972 130.877 224.218L130.798 230.001C130.635 241.765 128.309 253.391 123.882 264.562C120.765 272.422 118.058 283.211 114.826 300.639C114.787 300.856 114.599 301.006 114.387 301.006H114.389Z" fill="white"/>
<path d="M88.8945 205.99C88.6587 206.661 89.2512 207.98 89.168 208.529C88.8609 210.53 85.8886 213.339 83.701 215.166C81.9612 216.617 80.9368 218.777 80.9288 221.056C80.9288 221.594 80.9546 222.179 80.9863 222.808C81.0596 224.251 80.5979 225.017 79.9737 225.406C78.7472 226.169 77.154 225.277 76.9975 223.831C76.6586 220.669 76.0979 214.118 76.9816 211.81C77.5622 210.29 79.4367 208.305 81.1924 206.677C82.9183 205.076 83.8734 202.805 83.8635 200.439C83.8278 192.255 88.3635 168.366 93.6878 151.594L107 158.998C107 158.998 97.637 181.154 88.8945 205.988V205.99Z" fill="white"/>
<path d="M79.003 226.132C78.6503 226.132 78.2956 226.05 77.9607 225.888C77.1721 225.503 76.645 224.751 76.5519 223.878C76.1694 220.32 75.6622 213.999 76.5638 211.649C77.073 210.32 78.5274 208.537 80.8894 206.347C82.5044 204.85 83.4258 202.696 83.4159 200.441C83.3822 192.41 87.7653 168.77 93.2601 151.459C93.3017 151.33 93.3968 151.227 93.5216 151.178C93.6465 151.128 93.7872 151.136 93.9041 151.203L107.216 158.607C107.416 158.718 107.501 158.962 107.41 159.175C107.317 159.397 97.9523 181.605 89.3149 206.139C89.2217 206.403 89.3525 206.968 89.4595 207.422C89.5665 207.882 89.6577 208.279 89.6081 208.596C89.2851 210.699 86.3723 213.517 83.9846 215.509C82.332 216.889 81.3808 218.912 81.3749 221.056C81.3749 221.588 81.4007 222.177 81.4304 222.784C81.5037 224.224 81.0915 225.235 80.2058 225.784C79.8372 226.015 79.4211 226.13 78.999 226.13L79.003 226.132ZM93.9496 152.255C88.5559 169.441 84.2778 192.551 84.3115 200.437C84.3214 202.942 83.297 205.338 81.4978 207.006C79.2705 209.072 77.8537 210.788 77.4 211.97C76.536 214.225 77.1424 220.983 77.4436 223.783C77.505 224.347 77.8438 224.83 78.3551 225.08C78.8148 225.305 79.3181 225.285 79.7382 225.023C80.3247 224.658 80.5962 223.92 80.5407 222.829C80.509 222.21 80.4812 221.607 80.4832 221.054C80.4911 218.642 81.5592 216.371 83.4159 214.82C86.622 212.143 88.5084 209.884 88.7263 208.46C88.7481 208.313 88.661 207.932 88.5896 207.625C88.445 206.998 88.2944 206.349 88.4727 205.84C96.5058 183.017 105.169 162.207 106.431 159.194L93.9516 152.253L93.9496 152.255Z" fill="black"/>
<path d="M170.839 132.96L189.174 154.047C190.474 155.543 192.725 155.731 194.254 154.47C199.502 150.14 210.503 141.005 211.26 139.898C212.257 138.442 217.127 130.979 219.842 128.587C222.394 126.34 224.459 123.799 225.66 122.206C226.383 121.246 227.338 121.048 228.012 121.474C228.604 121.849 228.808 122.532 227.754 123.973C226.533 125.641 225.354 127.339 224.326 128.771C224.003 129.221 223.595 129.604 224.098 129.404C225.271 128.938 226.69 128.595 227.391 129.261C228.709 130.515 228.069 136.528 224.56 139.977C221.051 143.426 218.568 141.78 217.242 143.547C215.916 145.315 203.292 170.2 198.634 172.975C187.963 179.33 168.017 159.363 168.017 159.363L170.841 132.96H170.839Z" fill="white"/>
<path d="M193.765 174.679C182.829 174.679 168.405 160.386 167.698 159.68C167.603 159.585 167.555 159.45 167.569 159.315L170.393 132.913C170.413 132.736 170.534 132.585 170.704 132.532C170.874 132.478 171.059 132.532 171.178 132.665L189.513 153.752C190.662 155.073 192.62 155.237 193.969 154.123C204.055 145.801 210.38 140.388 210.889 139.644C211.002 139.48 211.165 139.238 211.367 138.936C212.932 136.604 217.093 130.409 219.545 128.252C222 126.09 224.029 123.624 225.299 121.938C226.111 120.86 227.326 120.512 228.249 121.096C228.622 121.332 228.85 121.647 228.923 122.032C229.034 122.621 228.771 123.343 228.115 124.239C227.348 125.286 226.607 126.334 225.889 127.347C225.574 127.791 225.269 128.222 224.976 128.634C226.222 128.299 227.138 128.398 227.703 128.936C228.329 129.531 228.469 130.687 228.475 131.55C228.495 134.122 227.391 137.825 224.877 140.297C222.757 142.381 220.946 142.699 219.622 142.933C218.681 143.099 218.058 143.208 217.603 143.815C217.288 144.234 216.188 146.235 214.795 148.77C208.825 159.631 202.179 171.386 198.865 173.358C197.318 174.28 195.59 174.677 193.769 174.677L193.765 174.679ZM168.485 159.194C170.341 161.003 188.635 178.405 198.404 172.588C201.784 170.575 209.736 156.108 214.006 148.337C215.526 145.572 216.529 143.748 216.881 143.278C217.549 142.387 218.479 142.223 219.463 142.05C220.737 141.826 222.323 141.546 224.245 139.658C226.559 137.383 227.594 133.865 227.576 131.558C227.568 130.612 227.384 129.874 227.082 129.586C226.664 129.19 225.638 129.275 224.263 129.82C224.134 129.872 223.739 130.029 223.506 129.713C223.268 129.394 223.5 129.102 223.743 128.793C223.811 128.706 223.888 128.611 223.959 128.509C224.34 127.98 224.74 127.415 225.154 126.828C225.874 125.812 226.617 124.761 227.389 123.708C228.037 122.821 228.075 122.381 228.041 122.198C228.024 122.107 227.978 121.984 227.77 121.855C227.249 121.526 226.543 121.776 226.014 122.478C224.718 124.198 222.648 126.712 220.135 128.924C217.771 131.005 213.658 137.129 212.11 139.436C211.906 139.741 211.741 139.985 211.628 140.152C210.897 141.219 201.933 148.716 194.54 154.815C192.812 156.241 190.307 156.033 188.837 154.341L171.178 134.031L168.485 159.194Z" fill="black"/>
<path d="M117.659 118.515C131.704 113.997 155.736 116.274 163.026 121.669C172.496 128.676 181.44 140.011 184.949 144.704C185.924 146.009 186.075 147.756 185.342 149.214C182.189 155.481 175.185 170.962 171.204 168.044C167.241 165.141 162.206 159.664 162.489 162.532C163.244 170.137 164.538 195.54 164.538 195.54C164.538 195.54 160.369 196.978 160.188 200.393L159.762 209.644C159.659 210.721 158.514 211.353 157.561 210.857C149.898 206.869 119.565 203.047 108.255 196.849C106.899 196.107 106.166 194.58 106.43 193.045C107.757 185.325 115.428 169.018 112.325 159.202C112.004 158.189 109.586 162.38 106.661 164.875C106.192 165.275 105.512 165.299 105.029 164.912L91.6435 154.232C90.4586 153.286 90.0306 151.667 90.5953 150.253C93.3754 143.294 102.502 123.392 117.659 118.515Z" fill="white"/>
<path d="M158.254 211.476C157.945 211.476 157.636 211.403 157.355 211.256C154.032 209.527 146.098 207.765 137.698 205.903C126.788 203.483 114.423 200.74 108.04 197.244C106.517 196.409 105.692 194.691 105.99 192.969C106.386 190.661 107.317 187.676 108.397 184.219C110.874 176.283 113.945 166.438 111.996 159.66C111.663 159.976 111.114 160.646 110.616 161.255C109.608 162.489 108.352 164.026 106.955 165.218C106.322 165.759 105.395 165.779 104.753 165.265L91.3679 154.585C90.0383 153.524 89.5508 151.673 90.183 150.089C93.3791 142.084 102.441 122.942 117.526 118.091C132.124 113.396 156.073 115.965 163.295 121.31C172.84 128.373 181.87 139.835 185.31 144.436C186.394 145.886 186.56 147.794 185.744 149.416C185.425 150.051 185.066 150.779 184.676 151.574C181.488 158.056 176.669 167.85 172.88 168.78C172.17 168.953 171.519 168.83 170.942 168.407C169.721 167.513 168.429 166.402 167.179 165.329C165.639 164.006 163.551 162.211 162.941 162.173C162.931 162.223 162.923 162.32 162.939 162.489C163.686 170.018 164.976 195.264 164.989 195.518C164.999 195.718 164.876 195.899 164.688 195.964C164.649 195.978 160.802 197.349 160.64 200.417L160.214 209.663C160.149 210.346 159.766 210.925 159.189 211.238C158.9 211.397 158.579 211.474 158.26 211.474L158.254 211.476ZM112.148 158.597C112.19 158.597 112.229 158.601 112.271 158.609C112.378 158.629 112.64 158.716 112.751 159.067C114.98 166.12 111.801 176.303 109.249 184.484C108.179 187.912 107.256 190.871 106.869 193.122C106.638 194.465 107.282 195.806 108.468 196.456C114.74 199.891 127.039 202.621 137.89 205.026C146.716 206.984 154.339 208.674 157.767 210.459C158.082 210.623 158.442 210.619 158.756 210.451C159.075 210.276 159.279 209.967 159.314 209.6L159.738 200.373C159.905 197.234 163.042 195.669 164.072 195.238C163.917 192.257 162.74 169.619 162.041 162.574C161.979 161.961 162.13 161.555 162.489 161.368C163.357 160.914 164.811 162.112 167.758 164.645C168.994 165.708 170.274 166.807 171.465 167.681C171.822 167.943 172.212 168.016 172.66 167.907C176.044 167.076 181.133 156.733 183.865 151.176C184.258 150.378 184.616 149.648 184.937 149.012C185.599 147.695 185.464 146.148 184.587 144.972C181.171 140.402 172.204 129.021 162.756 122.03C155.843 116.915 131.898 114.408 117.793 118.944C102.659 123.813 93.4663 144.267 91.0092 150.42C90.5218 151.642 90.8963 153.064 91.9208 153.881L105.306 164.561C105.619 164.811 106.055 164.799 106.368 164.532C107.704 163.391 108.932 161.89 109.919 160.684C111.144 159.184 111.653 158.595 112.148 158.595V158.597Z" fill="black"/>
<path d="M134.012 117.349L134.174 101.652L147.118 107.648L147.25 116.873C147.247 119.346 145.202 120.802 145.202 120.802C142.673 122.809 139.023 122.595 136.309 120.85L135.68 120.445C134.628 119.769 133.998 118.6 134.012 117.349Z" fill="white"/>
<path d="M140.915 122.694C139.284 122.694 137.59 122.206 136.066 121.228L135.438 120.826C134.249 120.06 133.548 118.761 133.564 117.347L133.726 101.65C133.726 101.498 133.805 101.357 133.934 101.276C134.063 101.194 134.224 101.182 134.362 101.248L147.306 107.242C147.462 107.313 147.563 107.47 147.565 107.642L147.698 116.867C147.694 119.548 145.552 121.103 145.461 121.169C144.181 122.184 142.582 122.694 140.913 122.694H140.915ZM134.459 117.355C134.448 118.458 134.994 119.473 135.922 120.07L136.55 120.473C139.265 122.218 142.708 122.208 144.922 120.451C144.957 120.423 146.798 119.076 146.8 116.873L146.672 107.938L134.612 102.353L134.457 117.355H134.459Z" fill="black"/>
<path d="M151.602 78.8019C148.201 78.7305 151.203 82.5207 138.946 79.2084C133.921 77.8498 136.635 83.6532 135.326 83.326C130.485 82.122 128.792 83.7801 127.713 84.6489C126.464 85.6525 125.275 87.9889 125.644 90.1012C126.129 92.8898 129.88 93.6038 132.151 99.4509C133.746 103.556 133.485 106.097 135.181 106.643C136.895 107.194 138.064 104.887 139.982 105.349C142.465 105.946 142.134 110.203 144.591 111.873C146.141 112.926 149.67 113.313 155.196 110.381C156.092 109.907 156.524 108.858 156.219 107.89C155.828 106.651 155.325 105.086 154.721 103.632C151.836 96.7019 149.266 95.2044 150.11 93.352C151.404 90.5137 156.758 91.9199 157.552 89.5974C158.377 87.1856 156.258 78.899 151.604 78.7999L151.602 78.8019Z" fill="black"/>
<path d="M141.102 95.5813C141.591 96.4163 142.021 97.283 142.39 98.1775C143.081 99.8515 144.29 102.718 145.09 104.27C146.081 106.196 151.76 104.142 153.52 103.449C153.803 103.338 153.932 103.009 153.803 102.733L153.122 101.061L154.515 100.653C154.679 100.579 154.832 100.47 154.937 100.324C155.202 99.9566 155.186 99.4846 154.937 99.1454C153.643 97.3842 151.35 94.4885 150.137 90.8509C150.015 90.48 149.686 90.2143 149.297 90.1766C147.96 90.0477 144.801 90.0358 141.807 92.2353C140.753 93.0088 140.442 94.4508 141.104 95.5813H141.102Z" fill="white"/>
<path d="M147.086 105.52C145.97 105.52 145.081 105.236 144.69 104.479C143.876 102.896 142.639 99.9607 141.974 98.3521C141.613 97.4775 141.189 96.6226 140.713 95.8114C139.937 94.4845 140.291 92.7927 141.538 91.8764C144.688 89.5638 148.043 89.6074 149.337 89.7343C149.9 89.7879 150.379 90.1727 150.56 90.7141C151.644 93.9629 153.621 96.6266 154.929 98.3898L155.293 98.8837C155.666 99.3914 155.666 100.078 155.295 100.591C155.151 100.79 154.943 100.954 154.693 101.067C154.675 101.075 154.655 101.083 154.636 101.089L153.718 101.357L154.212 102.567C154.317 102.789 154.326 103.073 154.227 103.322C154.128 103.572 153.928 103.771 153.679 103.87C151.822 104.602 149.087 105.522 147.082 105.522L147.086 105.52ZM141.488 95.3552C141.984 96.2022 142.427 97.0947 142.804 98.007C143.464 99.6037 144.688 102.513 145.489 104.066C146.018 105.094 149.178 104.679 153.356 103.033C153.381 103.023 153.393 103.003 153.399 102.989C153.405 102.975 153.409 102.952 153.397 102.926L152.706 101.232C152.658 101.115 152.662 100.982 152.718 100.867C152.773 100.752 152.874 100.667 152.995 100.631L154.356 100.232C154.451 100.187 154.527 100.127 154.574 100.062C154.717 99.8655 154.717 99.6056 154.574 99.4132L154.212 98.9234C152.868 97.1145 150.839 94.3794 149.712 90.9958C149.644 90.7915 149.464 90.6467 149.252 90.6249C148.059 90.5098 144.972 90.4682 142.069 92.5983C141.193 93.241 140.943 94.427 141.488 95.3552Z" fill="black"/>
<path d="M140.59 102.057C137.168 103.598 135.68 100.409 136.29 98.3799C136.546 97.527 137.677 97.3426 138.214 98.0546L140.759 101.422C140.921 101.639 140.838 101.948 140.59 102.059V102.057Z" fill="white"/>
<path d="M63.7691 96.5354C61.6786 96.5354 59.8517 94.9844 59.5643 92.8543C59.2513 90.5317 60.884 88.3877 63.2044 88.0743C65.5208 87.7629 67.6668 89.3953 67.9799 91.7178C68.2929 94.0403 66.6602 96.1844 64.3398 96.4978C64.1476 96.5236 63.9574 96.5354 63.7691 96.5354ZM60.4521 92.7333C60.6998 94.564 62.388 95.8551 64.2189 95.6072C66.0499 95.3593 67.3379 93.6695 67.0902 91.8368C66.8425 90.0042 65.1542 88.715 63.3233 88.9629C61.4924 89.2108 60.2064 90.9007 60.4521 92.7333Z" fill="#FFBD00"/>
<path d="M66.8223 72.953C66.7272 72.953 66.632 72.9233 66.5508 72.8618L64.817 71.5389C64.6208 71.3881 64.5812 71.1065 64.7318 70.9101C64.8824 70.7138 65.1637 70.6741 65.3599 70.8249L67.0937 72.1478C67.2899 72.2985 67.3295 72.5801 67.1789 72.7765C67.0898 72.8915 66.957 72.953 66.8223 72.953Z" fill="#FFBD00"/>
<path d="M73.3732 77.9511C73.2781 77.9511 73.183 77.9213 73.1017 77.8598L71.3679 76.5369C71.1717 76.3862 71.1341 76.1045 71.2827 75.9082C71.4333 75.7118 71.7127 75.6721 71.9108 75.8229L73.6446 77.1458C73.8408 77.2965 73.8785 77.5782 73.7298 77.7745C73.6407 77.8896 73.5079 77.9511 73.3732 77.9511Z" fill="#FFBD00"/>
<path d="M66.0738 78.9369C65.9787 78.9369 65.8836 78.9072 65.8023 78.8457C65.6061 78.6949 65.5665 78.4133 65.7171 78.2169L67.0388 76.4815C67.1894 76.2851 67.4688 76.2455 67.6669 76.3962C67.8631 76.5469 67.9027 76.8286 67.7521 77.0249L66.4305 78.7604C66.3413 78.8754 66.2085 78.9369 66.0738 78.9369Z" fill="#FFBD00"/>
<path d="M71.0669 72.3797C70.9718 72.3797 70.8767 72.35 70.7955 72.2885C70.5993 72.1378 70.5597 71.8561 70.7103 71.6598L72.032 69.9243C72.1826 69.728 72.4639 69.6883 72.6601 69.839C72.8563 69.9898 72.8959 70.2714 72.7453 70.4678L71.4236 72.2032C71.3345 72.3183 71.2017 72.3797 71.0669 72.3797Z" fill="#FFBD00"/>
<path d="M225.64 338.895C203.14 338.895 179.756 333.103 163.652 328.058C163.416 327.984 163.283 327.732 163.359 327.496C163.432 327.26 163.683 327.128 163.919 327.203C181.057 332.574 206.471 338.79 230.215 337.917C230.463 337.899 230.671 338.102 230.679 338.35C230.689 338.597 230.494 338.806 230.247 338.814C228.717 338.869 227.177 338.897 225.636 338.897L225.64 338.895Z" fill="white"/>
<path d="M226.02 346.898C192.588 346.898 154.582 333.695 154.134 333.538C153.901 333.457 153.778 333.199 153.861 332.967C153.942 332.733 154.198 332.608 154.432 332.691C154.955 332.875 207.243 351.035 242.895 344.637C243.141 344.593 243.372 344.756 243.416 345C243.46 345.244 243.297 345.478 243.053 345.521C237.674 346.487 231.915 346.898 226.02 346.898Z" fill="white"/>
<path d="M250.391 348.661C250.335 348.661 250.282 348.651 250.228 348.631C250.078 348.574 249.971 348.439 249.947 348.278L248.409 337.961C248.387 337.814 248.439 337.667 248.548 337.566C248.655 337.465 248.807 337.423 248.95 337.457L260.07 339.954C260.239 339.992 260.37 340.121 260.409 340.289C260.449 340.456 260.389 340.632 260.257 340.739L250.674 348.56C250.593 348.625 250.492 348.661 250.391 348.661ZM249.394 338.474L250.718 347.366L258.975 340.626L249.392 338.474H249.394Z" fill="white"/>
<path d="M268.462 8.71523C268.066 8.71523 267.661 8.65771 267.263 8.53474C265.109 7.87229 263.899 5.57752 264.56 3.42356C265.222 1.26961 267.513 0.0557747 269.667 0.718225C271.821 1.38266 273.031 3.67545 272.37 5.82941C271.829 7.5847 270.208 8.71523 268.462 8.71523ZM267.527 7.67594C269.207 8.1936 270.996 7.24554 271.512 5.56561C272.029 3.88371 271.082 2.09271 269.403 1.57505C267.723 1.05738 265.934 2.00544 265.418 3.68536C264.901 5.36727 265.848 7.15827 267.527 7.67594Z" fill="#FFBD00"/>
<path d="M208.311 4.00065C208.109 4.00065 207.925 3.86181 207.875 3.65554C207.818 3.41357 207.966 3.1716 208.208 3.11606C224.837 -0.834839 241.753 -1.02921 258.487 2.54287C258.729 2.59443 258.884 2.83244 258.832 3.07441C258.78 3.31638 258.543 3.47307 258.301 3.41952C241.698 -0.124788 224.914 0.0675997 208.416 3.98875C208.38 3.99668 208.347 4.00065 208.313 4.00065H208.311Z" fill="#FFBD00"/>
<path d="M300.278 22.5752C300.22 22.5752 300.165 22.5653 300.107 22.5415C299.647 22.3531 253.595 3.84217 214.874 12.095C214.63 12.1446 214.394 11.9919 214.343 11.7499C214.291 11.5079 214.446 11.2699 214.688 11.2184C253.68 2.90998 299.982 21.524 300.446 21.7125C300.676 21.8057 300.785 22.0675 300.692 22.2976C300.62 22.4721 300.454 22.5772 300.278 22.5772V22.5752Z" fill="#FFBD00"/>
<path fill-rule="evenodd" clip-rule="evenodd" d="M236.987 98.0217C241.587 94.42 257.362 86.0514 261.808 84.7122C262.643 90.4579 261.251 108.113 259.194 117.485C258.522 117.285 257.773 117.24 257.272 116.86C255.791 115.687 254.379 114.412 253.005 113.124C247.772 108.208 242.542 103.275 236.987 98.0217Z" fill="url(#paint7_linear_971_6457)"/>
<path fill-rule="evenodd" clip-rule="evenodd" d="M258.11 81.2741C250.591 87.044 242.229 90.5842 234.341 95.4026C227.522 88.7298 220.917 82.2511 214.34 75.8315C214.926 74.0507 216.266 74.7635 217.204 74.9071C227.147 76.346 237.063 77.8548 246.994 79.3841C250.707 79.9538 254.386 80.6477 258.092 81.2717L258.11 81.2741Z" fill="url(#paint8_linear_971_6457)"/>
<path fill-rule="evenodd" clip-rule="evenodd" d="M255.929 119.757C246.513 119.604 220.569 115.806 213.54 113.615C216.86 109.678 223.879 104.891 233.81 99.7927C237.153 101.896 251.709 114.978 255.929 119.757Z" fill="url(#paint9_linear_971_6457)"/>
<path fill-rule="evenodd" clip-rule="evenodd" d="M210.096 111.445C209.702 110.674 209.267 110.211 209.257 109.731C209.308 98.9851 209.433 88.231 209.53 76.9945C210.642 77.3456 211.431 77.359 211.855 77.7655C218.227 83.9377 224.534 90.1751 230.862 96.3968C230.961 96.4836 230.889 96.7501 230.941 97.3278C229.776 98.7556 227.8 99.5042 226.106 100.622C224.212 101.86 222.242 102.978 220.33 104.214C218.579 105.342 216.876 106.532 215.19 107.725C213.525 108.902 211.891 110.12 210.099 111.427L210.096 111.445Z" fill="url(#paint10_linear_971_6457)"/>
<path d="M349.505 96.3644L309.811 91.4294C308.854 91.3104 307.889 91.5769 307.128 92.1703C306.368 92.7636 305.873 93.6353 305.755 94.5934L301.721 127.108C301.603 128.066 301.869 129.032 302.461 129.794C303.054 130.556 303.925 131.05 304.882 131.169L344.576 136.105C345.533 136.223 346.498 135.957 347.259 135.364C348.019 134.77 348.514 133.899 348.632 132.94L352.666 100.426C352.784 99.4677 352.518 98.5015 351.925 97.7398C351.333 96.9782 350.462 96.4834 349.505 96.3644ZM318.762 116.754C319.109 117.089 319.309 117.548 319.318 118.031C319.327 118.514 319.144 118.98 318.809 119.328C318.474 119.675 318.015 119.876 317.533 119.884C317.051 119.893 316.585 119.71 316.238 119.375L309.693 113.059C309.49 112.862 309.335 112.622 309.241 112.355C309.147 112.089 309.116 111.804 309.151 111.524C309.186 111.243 309.285 110.975 309.441 110.74C309.598 110.504 309.807 110.309 310.052 110.168L317.941 105.647C318.359 105.407 318.856 105.343 319.321 105.47C319.787 105.596 320.183 105.903 320.422 106.322C320.662 106.741 320.725 107.238 320.599 107.704C320.472 108.17 320.166 108.566 319.748 108.806L313.961 112.122L318.762 116.754ZM334.043 102.283L323.689 126.675C323.599 126.9 323.465 127.104 323.295 127.276C323.125 127.448 322.922 127.584 322.699 127.677C322.475 127.769 322.236 127.817 321.994 127.815C321.753 127.814 321.513 127.765 321.291 127.67C321.069 127.575 320.867 127.437 320.699 127.264C320.53 127.09 320.398 126.885 320.31 126.659C320.222 126.434 320.179 126.193 320.185 125.952C320.191 125.71 320.245 125.471 320.344 125.25L330.698 100.859C330.892 100.424 331.25 100.083 331.693 99.9087C332.136 99.7347 332.63 99.7418 333.068 99.9284C333.506 100.115 333.854 100.466 334.036 100.907C334.219 101.347 334.221 101.841 334.043 102.283ZM344.335 117.366L336.446 121.887C336.027 122.127 335.531 122.191 335.066 122.064C334.6 121.937 334.204 121.631 333.965 121.212C333.725 120.793 333.662 120.296 333.788 119.83C333.915 119.364 334.221 118.968 334.639 118.728L340.426 115.412L335.625 110.78C335.453 110.614 335.316 110.416 335.22 110.197C335.125 109.978 335.074 109.742 335.069 109.503C335.065 109.264 335.107 109.026 335.195 108.804C335.282 108.581 335.412 108.378 335.578 108.206C335.744 108.034 335.942 107.896 336.161 107.801C336.379 107.705 336.615 107.654 336.854 107.65C337.092 107.645 337.33 107.688 337.552 107.775C337.774 107.863 337.977 107.993 338.149 108.159L344.694 114.475C344.897 114.671 345.052 114.912 345.146 115.179C345.24 115.445 345.271 115.73 345.236 116.01C345.201 116.291 345.102 116.559 344.945 116.794C344.789 117.03 344.58 117.225 344.335 117.366Z" fill="#FFBD00"/>
</g>
<defs>
<linearGradient id="paint0_linear_971_6457" x1="214.458" y1="215.874" x2="205.832" y2="215.874" gradientUnits="userSpaceOnUse">
<stop stop-color="#00E4AD"/>
<stop offset="0.45" stop-color="#00BDC3"/>
<stop offset="1" stop-color="#008AE0"/>
</linearGradient>
<linearGradient id="paint1_linear_971_6457" x1="227.221" y1="213.887" x2="218.595" y2="213.887" gradientUnits="userSpaceOnUse">
<stop stop-color="#00E4AD"/>
<stop offset="0.45" stop-color="#00BDC3"/>
<stop offset="1" stop-color="#008AE0"/>
</linearGradient>
<linearGradient id="paint2_linear_971_6457" x1="240.271" y1="212.628" x2="231.646" y2="212.628" gradientUnits="userSpaceOnUse">
<stop stop-color="#00E4AD"/>
<stop offset="0.45" stop-color="#00BDC3"/>
<stop offset="1" stop-color="#008AE0"/>
</linearGradient>
<linearGradient id="paint3_linear_971_6457" x1="253.319" y1="211.342" x2="244.694" y2="211.342" gradientUnits="userSpaceOnUse">
<stop stop-color="#00E4AD"/>
<stop offset="0.45" stop-color="#00BDC3"/>
<stop offset="1" stop-color="#008AE0"/>
</linearGradient>
<linearGradient id="paint4_linear_971_6457" x1="266.98" y1="207.083" x2="258.354" y2="207.083" gradientUnits="userSpaceOnUse">
<stop stop-color="#00E4AD"/>
<stop offset="0.45" stop-color="#00BDC3"/>
<stop offset="1" stop-color="#008AE0"/>
</linearGradient>
<linearGradient id="paint5_linear_971_6457" x1="148.17" y1="261.701" x2="70.9497" y2="261.701" gradientUnits="userSpaceOnUse">
<stop stop-color="#00E4AD"/>
<stop offset="0.45" stop-color="#00BDC3"/>
<stop offset="1" stop-color="#008AE0"/>
</linearGradient>
<linearGradient id="paint6_linear_971_6457" x1="164.661" y1="266.117" x2="113.556" y2="266.117" gradientUnits="userSpaceOnUse">
<stop stop-color="#00E4AD"/>
<stop offset="0.45" stop-color="#00BDC3"/>
<stop offset="1" stop-color="#008AE0"/>
</linearGradient>
<linearGradient id="paint7_linear_971_6457" x1="261.648" y1="101.252" x2="236.994" y2="97.9713" gradientUnits="userSpaceOnUse">
<stop stop-color="#00E4AD"/>
<stop offset="0.45" stop-color="#00BDC3"/>
<stop offset="1" stop-color="#008AE0"/>
</linearGradient>
<linearGradient id="paint8_linear_971_6457" x1="257.043" y1="89.2902" x2="213.323" y2="83.472" gradientUnits="userSpaceOnUse">
<stop stop-color="#00E4AD"/>
<stop offset="0.45" stop-color="#00BDC3"/>
<stop offset="1" stop-color="#008AE0"/>
</linearGradient>
<linearGradient id="paint9_linear_971_6457" x1="256.997" y1="111.73" x2="214.542" y2="106.08" gradientUnits="userSpaceOnUse">
<stop stop-color="#00E4AD"/>
<stop offset="0.45" stop-color="#00BDC3"/>
<stop offset="1" stop-color="#008AE0"/>
</linearGradient>
<linearGradient id="paint10_linear_971_6457" x1="230.978" y1="97.0474" x2="207.281" y2="93.894" gradientUnits="userSpaceOnUse">
<stop stop-color="#00E4AD"/>
<stop offset="0.45" stop-color="#00BDC3"/>
<stop offset="1" stop-color="#008AE0"/>
</linearGradient>
<clipPath id="clip0_971_6457">
<rect width="381.443" height="362.959" fill="white" transform="translate(54.9014)"/>
</clipPath>
</defs>
</svg>
