<svg width="358" height="385" viewBox="0 0 358 385" fill="none" xmlns="http://www.w3.org/2000/svg">
<circle cx="204.5" cy="123.5" r="123.5" fill="#666666"/>
<path d="M73.1929 125.265L73.269 128.976L77.2447 129.787C77.4164 130.644 77.6564 131.475 77.9626 132.273L75.0422 135.08L76.9658 138.256L80.8167 136.972C81.3883 137.618 82.0125 138.217 82.6817 138.761L81.556 142.657L84.812 144.446L87.4983 141.416C88.3098 141.689 89.1506 141.894 90.0129 142.031L90.9883 145.965L94.7026 145.889L95.5142 141.917C96.3706 141.746 97.2036 141.508 98.0015 141.201L100.813 144.12L103.99 142.198L102.705 138.351C103.353 137.782 103.951 137.157 104.496 136.488L108.395 137.614L110.186 134.362L107.151 131.678C107.424 130.868 107.629 130.027 107.765 129.165L111.704 128.191L111.628 124.481L107.652 123.669C107.481 122.813 107.241 121.982 106.934 121.184L109.855 118.377L107.931 115.201L104.08 116.485C103.509 115.839 102.884 115.24 102.215 114.696L103.341 110.8L100.085 109.011L97.3987 112.041C96.5871 111.767 95.7463 111.563 94.8841 111.426L93.9087 107.491L90.1943 107.567L89.3827 111.539C88.5263 111.711 87.6933 111.949 86.8954 112.255L84.0843 109.337L80.9064 111.258L82.192 115.103C81.5443 115.673 80.9454 116.297 80.4012 116.966L76.5015 115.841L74.7106 119.093L77.7461 121.777C77.473 122.587 77.2681 123.427 77.1316 124.29L73.1929 125.263V125.265ZM92.2524 117.175C97.5333 117.068 101.905 121.256 102.014 126.533C102.124 131.808 97.9312 136.172 92.6484 136.281C87.3675 136.389 82.9958 132.2 82.8865 126.923C82.7773 121.648 86.9696 117.284 92.2524 117.175Z" fill="white"/>
<path d="M90.9898 146.393C90.7928 146.393 90.6191 146.258 90.5723 146.065L89.6652 142.405C88.9727 142.284 88.2918 142.116 87.6344 141.91L85.1354 144.728C85.0027 144.879 84.7823 144.918 84.6048 144.82L81.3488 143.031C81.1733 142.934 81.0874 142.727 81.142 142.534L82.1896 138.911C81.659 138.464 81.1537 137.981 80.6856 137.469L77.1038 138.663C76.9127 138.726 76.7039 138.65 76.5986 138.478L74.6751 135.302C74.5717 135.13 74.599 134.908 74.7453 134.768L77.4628 132.157C77.2287 131.512 77.0356 130.839 76.8834 130.152L73.1846 129.397C72.9876 129.356 72.8433 129.184 72.8394 128.983L72.7633 125.273C72.7594 125.072 72.8959 124.894 73.091 124.846L76.7566 123.941C76.8776 123.248 77.0434 122.569 77.2521 121.914L74.4293 119.417C74.2791 119.284 74.24 119.063 74.3376 118.886L76.1284 115.634C76.226 115.458 76.4308 115.373 76.6259 115.427L80.2544 116.475C80.7012 115.944 81.185 115.441 81.698 114.973L80.5022 111.395C80.4378 111.204 80.5158 110.993 80.6875 110.89L83.8654 108.968C84.0371 108.865 84.2595 108.894 84.398 109.038L87.0121 111.754C87.6598 111.52 88.3328 111.327 89.0195 111.176L89.7744 107.481C89.8154 107.284 89.9871 107.142 90.188 107.136L93.9024 107.06C94.115 107.058 94.2808 107.193 94.3296 107.388L95.2367 111.048C95.9293 111.169 96.6101 111.336 97.2675 111.543L99.7665 108.724C99.8992 108.574 100.12 108.535 100.297 108.632L103.553 110.421C103.729 110.519 103.815 110.726 103.76 110.919L102.712 114.541C103.243 114.988 103.748 115.472 104.216 115.983L107.798 114.789C107.989 114.727 108.198 114.803 108.303 114.975L110.227 118.15C110.33 118.322 110.303 118.545 110.157 118.685L107.439 121.295C107.673 121.941 107.866 122.614 108.019 123.301L111.717 124.056C111.914 124.097 112.059 124.268 112.063 124.469L112.139 128.18C112.143 128.381 112.006 128.558 111.811 128.607L108.145 129.512C108.024 130.205 107.859 130.884 107.65 131.539L110.473 134.036C110.623 134.169 110.662 134.389 110.564 134.567L108.773 137.819C108.676 137.994 108.471 138.08 108.276 138.025L104.648 136.978C104.201 137.509 103.717 138.012 103.204 138.48L104.4 142.058C104.464 142.249 104.386 142.46 104.214 142.563L101.037 144.485C100.865 144.588 100.642 144.559 100.504 144.414L97.8899 141.699C97.2422 141.933 96.5692 142.126 95.8825 142.276L95.1275 145.971C95.0865 146.168 94.9149 146.311 94.7139 146.316L90.9995 146.393H90.9898ZM87.4998 140.983C87.5466 140.983 87.5915 140.991 87.6363 141.006C88.4206 141.27 89.2419 141.471 90.0807 141.603C90.2524 141.631 90.3909 141.757 90.4319 141.925L91.3234 145.526L94.3491 145.464L95.0904 141.83C95.1255 141.66 95.2582 141.527 95.4279 141.494C96.2609 141.328 97.0744 141.094 97.8469 140.798C98.0089 140.735 98.1922 140.776 98.3112 140.901L100.882 143.572L103.471 142.007L102.295 138.488C102.24 138.324 102.289 138.143 102.418 138.027C103.046 137.473 103.631 136.865 104.158 136.215C104.267 136.08 104.445 136.026 104.612 136.073L108.182 137.103L109.642 134.455L106.866 131.999C106.735 131.884 106.688 131.703 106.743 131.539C107.006 130.759 107.207 129.935 107.34 129.097C107.367 128.925 107.494 128.786 107.662 128.745L111.267 127.856L111.204 124.834L107.566 124.093C107.396 124.058 107.264 123.925 107.23 123.755C107.063 122.922 106.829 122.111 106.534 121.34C106.472 121.178 106.512 120.995 106.637 120.876L109.31 118.309L107.743 115.722L104.22 116.896C104.056 116.951 103.875 116.902 103.762 116.773C103.208 116.147 102.597 115.562 101.948 115.035C101.813 114.926 101.756 114.746 101.805 114.58L102.835 111.016L100.182 109.559L97.7221 112.331C97.607 112.46 97.4256 112.509 97.2617 112.454C96.4794 112.191 95.6581 111.99 94.8173 111.857C94.6456 111.83 94.5071 111.703 94.4662 111.535L93.5746 107.934L90.5489 107.996L89.8076 111.631C89.7725 111.801 89.6398 111.933 89.4701 111.966C88.6352 112.134 87.8217 112.368 87.0511 112.663C86.8892 112.725 86.7077 112.684 86.5868 112.559L84.0156 109.889L81.4269 111.453L82.6032 114.973C82.6578 115.136 82.6091 115.318 82.4803 115.433C81.8541 115.985 81.2669 116.596 80.7402 117.245C80.6309 117.38 80.4534 117.435 80.2856 117.388L76.7156 116.358L75.2564 119.005L78.0324 121.461C78.1631 121.576 78.21 121.758 78.1553 121.921C77.892 122.704 77.691 123.525 77.5584 124.364C77.5311 124.536 77.4043 124.674 77.2365 124.715L73.6314 125.605L73.6938 128.626L77.3321 129.368C77.5018 129.403 77.6345 129.535 77.6676 129.705C77.8354 130.538 78.0695 131.35 78.3641 132.12C78.4265 132.282 78.3855 132.466 78.2607 132.585L75.5881 135.152L77.1546 137.739L80.6778 136.564C80.8416 136.51 81.023 136.558 81.1362 136.687C81.6902 137.315 82.3008 137.901 82.9505 138.425C83.0851 138.535 83.1416 138.714 83.0929 138.88L82.0628 142.444L84.716 143.901L87.174 141.129C87.2579 141.036 87.3749 140.985 87.4959 140.985L87.4998 140.983ZM92.449 136.715C87.0316 136.715 82.5681 132.368 82.4549 126.933C82.4003 124.266 83.3874 121.738 85.2368 119.815C87.0862 117.891 89.5735 116.801 92.2422 116.746C97.7553 116.652 102.33 121.02 102.443 126.525C102.498 129.192 101.511 131.72 99.6612 133.644C97.8118 135.567 95.3245 136.658 92.6558 136.713C92.5875 136.713 92.5173 136.715 92.449 136.715ZM92.2598 117.608C89.8193 117.659 87.5466 118.654 85.8572 120.412C84.1678 122.169 83.2665 124.479 83.3172 126.916C83.4206 131.882 87.4998 135.852 92.449 135.852C92.5114 135.852 92.5739 135.852 92.6382 135.85C95.0787 135.8 97.3514 134.805 99.0408 133.047C100.73 131.289 101.632 128.98 101.581 126.543C101.477 121.514 97.2929 117.487 92.2598 117.608Z" fill="url(#paint0_linear_941_8825)"/>
<path d="M249.044 93.9562L249.109 97.0385L252.414 97.7115C252.556 98.4236 252.755 99.1122 253.01 99.7755L250.584 102.107L252.181 104.744L255.381 103.677C255.855 104.214 256.374 104.711 256.932 105.164L255.995 108.4L258.701 109.887L260.933 107.368C261.606 107.594 262.304 107.764 263.022 107.877L263.832 111.147L266.918 111.084L267.591 107.784C268.303 107.641 268.994 107.442 269.657 107.189L271.992 109.614L274.633 108.018L273.564 104.822C274.103 104.348 274.6 103.831 275.051 103.275L278.291 104.21L279.78 101.508L277.259 99.2761C277.485 98.6031 277.655 97.9047 277.768 97.1887L281.042 96.3811L280.977 93.2988L277.673 92.6258C277.53 91.9137 277.331 91.2251 277.076 90.5618L279.503 88.2305L277.905 85.593L274.706 86.6601C274.232 86.1237 273.713 85.6262 273.155 85.1736L274.089 81.9372L271.383 80.4507L269.152 82.9692C268.479 82.7429 267.78 82.5732 267.062 82.46L266.253 79.1904L263.166 79.2529L262.493 82.5537C261.781 82.6961 261.091 82.895 260.427 83.1487L258.092 80.7238L255.451 82.3196L256.52 85.515C255.982 85.9891 255.484 86.506 255.033 87.062L251.793 86.1276L250.305 88.8294L252.825 91.0612C252.599 91.7342 252.429 92.4326 252.316 93.1486L249.042 93.9562H249.044ZM264.879 87.2356C269.267 87.1459 272.899 90.6262 272.989 95.0097C273.081 99.3932 269.596 103.02 265.207 103.108C260.82 103.197 257.187 99.717 257.097 95.3335C257.006 90.95 260.49 87.3254 264.879 87.2356Z" fill="white"/>
<path d="M263.831 111.584C263.634 111.584 263.461 111.45 263.414 111.257L262.672 108.262C262.126 108.165 261.588 108.034 261.069 107.872L259.022 110.18C258.888 110.33 258.667 110.367 258.492 110.271L255.788 108.785C255.61 108.687 255.525 108.481 255.581 108.287L256.438 105.322C256.02 104.967 255.62 104.587 255.25 104.183L252.317 105.16C252.126 105.223 251.918 105.147 251.812 104.975L250.214 102.335C250.111 102.164 250.138 101.941 250.285 101.801L252.509 99.6648C252.325 99.1537 252.173 98.623 252.052 98.0807L249.024 97.4642C248.827 97.4233 248.685 97.2516 248.679 97.0507L248.615 93.9684C248.611 93.7674 248.747 93.5899 248.943 93.5411L251.941 92.7998C252.039 92.2536 252.171 91.7171 252.331 91.1982L250.021 89.1537C249.871 89.0211 249.832 88.8006 249.93 88.6231L251.418 85.9212C251.516 85.7457 251.721 85.6598 251.916 85.7144L254.885 86.5709C255.24 86.1534 255.622 85.7554 256.026 85.3847L255.047 82.4566C254.982 82.2654 255.06 82.0547 255.232 81.9513L257.873 80.3555C258.047 80.2521 258.267 80.2814 258.406 80.4258L260.546 82.6478C261.057 82.4644 261.59 82.3122 262.132 82.1913L262.749 79.1675C262.788 78.9704 262.959 78.828 263.162 78.8222L266.248 78.7598C266.471 78.7637 266.627 78.8905 266.676 79.0875L267.417 82.084C267.963 82.1815 268.502 82.3122 269.02 82.4741L271.067 80.1663C271.201 80.0161 271.42 79.9771 271.597 80.0746L274.303 81.5611C274.481 81.6587 274.567 81.8655 274.51 82.0586L273.654 85.0239C274.073 85.3789 274.471 85.7613 274.842 86.1631L277.774 85.1858C277.965 85.1214 278.174 85.1994 278.279 85.3711L279.877 88.0106C279.98 88.1822 279.953 88.4046 279.807 88.5451L277.583 90.6812C277.766 91.1924 277.918 91.723 278.039 92.2653L281.067 92.8818C281.264 92.9227 281.406 93.0944 281.412 93.2953L281.476 96.3776C281.48 96.5786 281.344 96.7561 281.149 96.8049L278.15 97.5462C278.053 98.0924 277.92 98.6289 277.76 99.1478L280.07 101.192C280.22 101.325 280.259 101.545 280.162 101.723L278.673 104.425C278.576 104.6 278.371 104.686 278.176 104.632L275.206 103.775C274.851 104.193 274.469 104.591 274.065 104.961L275.045 107.889C275.109 108.081 275.031 108.291 274.859 108.395L272.218 109.99C272.046 110.094 271.824 110.065 271.685 109.92L269.545 107.698C269.032 107.882 268.501 108.034 267.959 108.155L267.343 111.179C267.304 111.376 267.132 111.518 266.929 111.524L263.843 111.586H263.833L263.831 111.584ZM260.932 106.943C260.979 106.943 261.024 106.951 261.069 106.967C261.717 107.183 262.395 107.349 263.088 107.46C263.26 107.488 263.398 107.614 263.439 107.782L264.167 110.718L266.564 110.669L267.169 107.706C267.204 107.536 267.337 107.404 267.507 107.371C268.195 107.232 268.866 107.039 269.504 106.795C269.666 106.733 269.848 106.774 269.969 106.898L272.066 109.076L274.118 107.837L273.158 104.969C273.103 104.805 273.152 104.624 273.281 104.509C273.8 104.052 274.284 103.547 274.719 103.012C274.828 102.878 275.007 102.823 275.173 102.87L278.084 103.711L279.239 101.614L276.976 99.6121C276.847 99.497 276.798 99.3156 276.853 99.1517C277.07 98.506 277.235 97.8291 277.347 97.1346C277.374 96.9629 277.501 96.8244 277.668 96.7834L280.606 96.0577L280.558 93.664L277.59 93.0593C277.421 93.0242 277.288 92.8915 277.255 92.7218C277.116 92.0351 276.923 91.364 276.679 90.7261C276.617 90.5642 276.658 90.3808 276.783 90.2618L278.962 88.1686L277.721 86.1202L274.848 87.0781C274.684 87.1327 274.502 87.0839 274.389 86.9552C273.933 86.4382 273.429 85.9544 272.891 85.5174C272.756 85.4082 272.7 85.2287 272.748 85.0629L273.587 82.1581L271.486 81.0032L269.481 83.2642C269.366 83.393 269.184 83.4417 269.02 83.3871C268.375 83.1706 267.696 83.0048 267.001 82.8936C266.83 82.8662 266.691 82.7394 266.65 82.5717L265.923 79.6357L263.525 79.6845L262.92 82.6478C262.885 82.8175 262.752 82.9501 262.583 82.9833C261.894 83.1218 261.221 83.3149 260.585 83.5588C260.423 83.6212 260.24 83.5802 260.121 83.4554L258.026 81.2783L255.973 82.5171L256.933 85.3847C256.988 85.5486 256.939 85.7301 256.81 85.8452C256.293 86.3016 255.809 86.805 255.372 87.3414C255.263 87.476 255.084 87.5307 254.92 87.4838L252.011 86.645L250.856 88.7421L253.119 90.7437C253.248 90.8588 253.297 91.0402 253.242 91.2041C253.026 91.8498 252.86 92.5267 252.749 93.2212C252.721 93.3929 252.594 93.5314 252.427 93.5724L249.489 94.2981L249.538 96.6917L252.505 97.2965C252.674 97.3316 252.807 97.4642 252.84 97.634C252.979 98.3246 253.172 98.9956 253.416 99.6297C253.478 99.7916 253.437 99.975 253.312 100.094L251.135 102.187L252.376 104.236L255.248 103.278C255.411 103.223 255.593 103.272 255.706 103.401C256.165 103.92 256.67 104.403 257.204 104.836C257.339 104.946 257.395 105.125 257.347 105.291L256.508 108.196L258.609 109.351L260.612 107.09C260.696 106.996 260.813 106.945 260.934 106.945L260.932 106.943ZM265.045 103.543C260.503 103.543 256.763 99.9008 256.668 95.3456C256.621 93.11 257.45 90.9914 258.999 89.3781C260.548 87.7648 262.633 86.8518 264.871 86.8069C264.93 86.8069 264.986 86.8069 265.045 86.8069C269.586 86.8069 273.326 90.4491 273.421 95.0043C273.468 97.2399 272.639 99.3585 271.09 100.972C269.541 102.585 267.456 103.498 265.218 103.543C265.16 103.543 265.101 103.543 265.045 103.543ZM264.889 87.6692C262.881 87.7101 261.01 88.5295 259.619 89.977C258.23 91.4226 257.487 93.3246 257.528 95.33C257.612 99.417 260.969 102.685 265.043 102.685C265.095 102.685 265.146 102.685 265.199 102.685C267.206 102.644 269.077 101.824 270.468 100.379C271.859 98.9313 272.6 97.0312 272.559 95.0257C272.473 90.8861 269.034 87.5931 264.889 87.6731V87.6692Z" fill="url(#paint1_linear_941_8825)"/>
<path d="M284.093 91.533L285.698 96.1233L290.975 95.5166C291.537 96.5135 292.173 97.4499 292.879 98.3199L290.388 103.002L294.073 106.174L298.339 103.01C299.313 103.583 300.333 104.073 301.389 104.479L301.574 109.787L306.351 110.692L308.46 105.825C309.58 105.835 310.71 105.749 311.839 105.567L314.654 110.072L319.244 108.466L318.638 103.189C319.635 102.627 320.571 101.991 321.441 101.287L326.125 103.778L329.297 100.093L326.131 95.8268C326.704 94.8533 327.196 93.833 327.6 92.7796L332.91 92.5962L333.815 87.8187L328.948 85.7098C328.958 84.5901 328.87 83.4605 328.688 82.331L333.193 79.5179L331.587 74.9276L326.31 75.5343C325.748 74.5375 325.112 73.6011 324.406 72.731L326.897 68.049L323.212 64.877L318.946 68.0412C317.972 67.4677 316.952 66.9761 315.897 66.5723L315.711 61.2641L310.934 60.3589L308.825 65.2262C307.705 65.2164 306.576 65.3023 305.446 65.4837L302.631 60.9792L298.041 62.5848L298.65 67.8598C297.653 68.4216 296.716 69.0576 295.846 69.7638L291.162 67.2726L287.99 70.9577L291.156 75.2242C290.583 76.1976 290.093 77.2179 289.687 78.2733L284.377 78.4567L283.472 83.2342L288.339 85.3431C288.33 86.4628 288.418 87.5924 288.599 88.7219L284.094 91.535L284.093 91.533ZM304.51 73.7084C311.037 71.4259 318.177 74.8672 320.462 81.3927C322.744 87.9182 319.305 95.0582 312.777 97.3406C306.25 99.6231 299.11 96.1818 296.826 89.6563C294.543 83.1308 297.982 75.9908 304.51 73.7084Z" fill="white"/>
<path d="M306.353 111.121C306.326 111.121 306.301 111.119 306.274 111.114L301.496 110.208C301.299 110.171 301.153 110.002 301.147 109.801L300.971 104.775C300.08 104.418 299.208 103.999 298.373 103.523L294.333 106.519C294.171 106.64 293.946 106.631 293.794 106.5L290.107 103.328C289.955 103.197 289.914 102.977 290.008 102.799L292.366 98.3669C291.777 97.6197 291.233 96.8179 290.743 95.9771L285.747 96.5526C285.55 96.5741 285.357 96.457 285.29 96.2659L283.685 91.6756C283.619 91.4863 283.693 91.2737 283.864 91.1684L288.129 88.5055C287.988 87.5418 287.914 86.5742 287.908 85.6261L283.301 83.6284C283.115 83.5484 283.012 83.3514 283.049 83.1524L283.954 78.3749C283.991 78.1778 284.161 78.0315 284.362 78.0237L289.389 77.8501C289.746 76.9566 290.166 76.0865 290.64 75.2516L287.643 71.2134C287.522 71.0515 287.532 70.8291 287.663 70.675L290.835 66.9899C290.967 66.8358 291.186 66.7967 291.363 66.8904L295.798 69.2489C296.545 68.6598 297.347 68.1155 298.187 67.6258L297.612 62.6317C297.588 62.4308 297.707 62.2416 297.897 62.1752L302.487 60.5697C302.676 60.5034 302.889 60.5775 302.994 60.7472L305.659 65.0117C306.623 64.8713 307.588 64.7971 308.54 64.7913L310.538 60.1854C310.618 60.0001 310.815 59.8967 311.014 59.9337L315.792 60.8389C315.989 60.876 316.135 61.0457 316.141 61.2466L316.316 66.272C317.21 66.629 318.082 67.0484 318.915 67.5244L322.955 64.5299C323.117 64.4109 323.341 64.4187 323.493 64.5494L327.179 67.7214C327.331 67.8521 327.372 68.0726 327.278 68.2501L324.919 72.6824C325.509 73.4295 326.053 74.2313 326.543 75.0721L331.537 74.4966C331.732 74.4752 331.927 74.5922 331.993 74.7815L333.599 79.3717C333.665 79.561 333.591 79.7736 333.419 79.879L329.155 82.5418C329.295 83.5036 329.371 84.4712 329.375 85.4212L333.983 87.4189C334.168 87.4989 334.272 87.6959 334.235 87.8949L333.329 92.6724C333.292 92.8695 333.123 93.0158 332.922 93.0236L327.894 93.1972C327.539 94.0887 327.118 94.9608 326.642 95.7957L329.639 99.8359C329.759 99.9978 329.75 100.22 329.619 100.374L326.447 104.059C326.316 104.212 326.096 104.253 325.918 104.159L321.484 101.8C320.737 102.389 319.933 102.934 319.094 103.423L319.67 108.418C319.693 108.618 319.574 108.808 319.385 108.874L314.795 110.48C314.605 110.546 314.395 110.472 314.287 110.302L311.623 106.038C310.659 106.178 309.693 106.252 308.741 106.258L306.744 110.864C306.673 111.024 306.517 111.123 306.348 111.123L306.353 111.121ZM301.993 109.426L306.094 110.203L308.066 105.651C308.135 105.493 308.273 105.388 308.466 105.392C309.553 105.402 310.667 105.316 311.773 105.138C311.943 105.111 312.114 105.189 312.206 105.335L314.838 109.547L318.778 108.17L318.211 103.236C318.191 103.064 318.275 102.897 318.427 102.811C319.401 102.261 320.325 101.635 321.17 100.948C321.305 100.839 321.492 100.821 321.644 100.901L326.024 103.23L328.747 100.068L325.788 96.0786C325.684 95.9401 325.674 95.7528 325.762 95.6026C326.322 94.6506 326.806 93.6479 327.2 92.6198C327.262 92.4579 327.415 92.3486 327.586 92.3428L332.551 92.1711L333.328 88.0705L328.776 86.0982C328.616 86.0299 328.515 85.8719 328.517 85.6983C328.527 84.6097 328.441 83.4977 328.263 82.3916C328.236 82.2199 328.314 82.0502 328.46 81.9585L332.674 79.3269L331.295 75.3882L326.361 75.9558C326.189 75.9754 326.022 75.8895 325.936 75.7393C325.386 74.7639 324.759 73.8411 324.073 72.9964C323.964 72.8618 323.946 72.6746 324.026 72.5224L326.355 68.1448L323.191 65.4214L319.2 68.3808C319.061 68.4842 318.872 68.494 318.726 68.4062C317.776 67.8482 316.773 67.3644 315.741 66.9684C315.579 66.906 315.472 66.7538 315.466 66.5802L315.292 61.6154L311.192 60.8389L309.219 65.3902C309.151 65.5482 308.995 65.6497 308.823 65.6497C308.774 65.6555 308.708 65.6497 308.65 65.6497C307.616 65.6497 306.56 65.7355 305.513 65.9033C305.343 65.9325 305.171 65.8525 305.08 65.7062L302.448 61.4944L298.507 62.8717L299.075 67.8053C299.094 67.977 299.011 68.1448 298.858 68.2306C297.883 68.7807 296.96 69.4069 296.116 70.0936C295.981 70.2029 295.794 70.2204 295.642 70.1404L291.262 67.8112L288.539 70.9734L291.498 74.9629C291.601 75.1014 291.611 75.2887 291.523 75.4389C290.963 76.3889 290.482 77.3916 290.086 78.4236C290.023 78.5856 289.871 78.6948 289.699 78.7007L284.734 78.8723L283.958 82.9729L288.509 84.9452C288.669 85.0135 288.771 85.1715 288.769 85.3452C288.759 86.4318 288.845 87.5437 289.022 88.6518C289.05 88.8235 288.972 88.9932 288.825 89.0849L284.614 91.7165L285.991 95.6553L290.926 95.0876C291.096 95.0681 291.266 95.1539 291.352 95.3041C291.902 96.2795 292.53 97.2023 293.215 98.047C293.324 98.1816 293.342 98.3688 293.26 98.521L290.93 102.901L294.095 105.624L298.086 102.665C298.224 102.561 298.412 102.551 298.56 102.639C299.51 103.199 300.515 103.683 301.545 104.077C301.707 104.139 301.816 104.292 301.822 104.465L301.995 109.43L301.993 109.426ZM308.655 98.4722C303.302 98.4722 298.283 95.1285 296.418 89.7969C295.275 86.5332 295.474 83.0178 296.974 79.9024C298.474 76.7869 301.1 74.442 304.366 73.3008C311.106 70.9442 318.507 74.5103 320.866 81.2484C322.009 84.5122 321.81 88.0275 320.31 91.143C318.808 94.2585 316.184 96.6034 312.918 97.7446C311.51 98.2381 310.07 98.4722 308.655 98.4722ZM304.65 74.1143C301.603 75.1794 299.153 77.3682 297.75 80.2769C296.35 83.1856 296.164 86.4649 297.231 89.5121C299.432 95.8035 306.344 99.1297 312.633 96.9311C315.68 95.8659 318.131 93.6771 319.533 90.7684C320.934 87.8598 321.119 84.5804 320.052 81.5332C317.852 75.2418 310.94 71.9157 304.65 74.1143Z" fill="url(#paint2_linear_941_8825)"/>
<path d="M74.8843 254.787C74.7731 254.787 74.6638 254.744 74.5799 254.66C74.4122 254.492 74.4122 254.219 74.5799 254.051L111.831 216.808C111.999 216.64 112.272 216.64 112.44 216.808C112.607 216.976 112.607 217.249 112.44 217.417L75.1886 254.66C75.1047 254.744 74.9935 254.787 74.8843 254.787Z" fill="#FFBD00"/>
<path d="M83.7041 230.251C83.5929 230.251 83.4836 230.208 83.3998 230.124C83.232 229.956 83.232 229.683 83.3998 229.515L113.189 199.732C113.357 199.564 113.63 199.564 113.797 199.732C113.965 199.9 113.965 200.173 113.797 200.341L84.0084 230.124C83.9245 230.208 83.8133 230.251 83.7041 230.251Z" fill="#FFBD00"/>
<path d="M42.2766 137.693C42.2006 137.693 42.1245 137.674 42.0542 137.631C41.8514 137.508 41.785 137.243 41.9099 137.04C56.0982 113.661 76.7223 95.1031 101.554 83.369C111.892 78.4841 122.764 74.879 133.87 72.655C134.104 72.6082 134.33 72.7584 134.377 72.9925C134.424 73.2266 134.272 73.4529 134.039 73.4997C123.004 75.71 112.198 79.2937 101.923 84.1493C77.2451 95.8113 56.7478 114.254 42.6473 137.489C42.5654 137.621 42.4249 137.695 42.2786 137.695L42.2766 137.693Z" fill="#FFBD00"/>
<path d="M24.6934 141.558C24.6232 141.558 24.5529 141.541 24.4866 141.506C24.2779 141.39 24.2018 141.129 24.3169 140.92C32.7561 125.577 43.6534 111.82 56.7103 100.029C70.2217 87.8287 85.7053 78.0531 102.734 70.9775C102.955 70.8858 103.206 70.9911 103.298 71.2096C103.39 71.4301 103.284 71.6817 103.066 71.7734C69.851 85.5755 42.1532 110.281 25.0738 141.336C24.9958 141.478 24.8475 141.558 24.6953 141.558H24.6934Z" fill="#FFBD00"/>
<path d="M118.833 69.0055C118.813 69.0055 118.794 69.0055 118.774 69.0016C118.608 68.9782 118.472 68.8631 118.421 68.7051L116.414 62.3396C116.371 62.205 116.398 62.0587 116.484 61.9455C116.57 61.8343 116.708 61.7738 116.847 61.7797L122.791 62.1035C122.945 62.1113 123.081 62.2011 123.152 62.3396C123.222 62.4761 123.212 62.64 123.128 62.7707L119.192 68.8124C119.112 68.9353 118.975 69.0075 118.831 69.0075L118.833 69.0055ZM117.422 62.6732L118.969 67.5775L122.001 62.9229L117.422 62.6732Z" fill="#FFBD00"/>
<path d="M245.574 42.3007C243.442 42.3007 241.622 40.6639 241.434 38.5005C241.339 37.3944 241.68 36.3156 242.394 35.465C243.108 34.6144 244.113 34.0936 245.219 33.998C247.497 33.8009 249.522 35.4982 249.721 37.7826C249.817 38.8887 249.476 39.9675 248.762 40.8181C248.048 41.6686 247.043 42.1895 245.937 42.2851C245.816 42.2948 245.695 42.3007 245.576 42.3007H245.574ZM242.293 38.4264C242.449 40.2387 244.054 41.5828 245.863 41.4267C246.74 41.3506 247.534 40.9371 248.102 40.264C248.668 39.589 248.939 38.7346 248.863 37.8587C248.707 36.0463 247.105 34.7042 245.293 34.8583C244.415 34.9344 243.621 35.3479 243.053 36.021C242.488 36.696 242.217 37.5504 242.293 38.4264Z" fill="url(#paint3_linear_941_8825)"/>
<path d="M279.642 44.0344C279.642 44.0344 279.629 44.0344 279.621 44.0344L277.336 43.9232C277.098 43.9115 276.915 43.7086 276.927 43.4725C276.939 43.2345 277.143 43.0531 277.377 43.0629L279.662 43.1741C279.9 43.1858 280.083 43.3887 280.072 43.6247C280.06 43.8549 279.869 44.0344 279.642 44.0344Z" fill="url(#paint4_linear_941_8825)"/>
<path d="M271.648 43.6445C271.648 43.6445 271.635 43.6445 271.627 43.6445L269.342 43.5333C269.104 43.5216 268.921 43.3187 268.933 43.0827C268.944 42.8447 269.147 42.6671 269.383 42.673L271.668 42.7842C271.906 42.7959 272.089 42.9988 272.077 43.2348C272.066 43.465 271.874 43.6445 271.648 43.6445Z" fill="url(#paint5_linear_941_8825)"/>
<path d="M274.674 40.9721C274.674 40.9721 274.657 40.9721 274.647 40.9721C274.409 40.9584 274.228 40.7536 274.243 40.5156L274.38 38.2663C274.395 38.0283 274.602 37.8449 274.836 37.8625C275.074 37.8761 275.256 38.081 275.24 38.319L275.103 40.5683C275.09 40.7965 274.901 40.9721 274.674 40.9721Z" fill="url(#paint6_linear_941_8825)"/>
<path d="M274.194 48.8437C274.194 48.8437 274.176 48.8437 274.166 48.8437C273.928 48.83 273.747 48.6252 273.763 48.3872L273.899 46.1379C273.915 45.8999 274.122 45.7165 274.356 45.7341C274.594 45.7477 274.775 45.9526 274.76 46.1906L274.623 48.4399C274.609 48.6681 274.42 48.8437 274.194 48.8437Z" fill="url(#paint7_linear_941_8825)"/>
<path d="M67.748 280.988C68.4601 286.79 66.7687 292.631 63.0661 297.154C59.3634 301.678 53.9733 304.49 48.1462 304.936C42.2781 305.387 36.4861 303.399 32.128 299.443C27.7718 295.487 25.2357 289.911 25.1206 284.025L26.5135 172.497C26.3535 164.467 32.4889 157.71 40.495 157.095C48.5636 156.477 55.6939 162.314 56.6791 170.347L67.7461 280.986L67.748 280.988Z" fill="url(#paint8_linear_941_8825)"/>
<path d="M46.5289 305.428C41.131 305.428 35.854 303.409 31.8373 299.761C27.4128 295.742 24.8065 290.011 24.6875 284.033L26.0804 172.491C25.9165 164.255 32.2333 157.296 40.4599 156.664C48.7802 156.026 56.0879 162.013 57.1043 170.293L68.1713 280.937C68.8931 286.825 67.153 292.834 63.3957 297.424C59.6384 302.016 54.0903 304.909 48.1754 305.362C47.6253 305.405 47.0751 305.424 46.527 305.424L46.5289 305.428ZM41.6733 157.482C41.2929 157.482 40.9125 157.495 40.5282 157.527C32.7561 158.123 26.7885 164.696 26.9446 172.491L25.5517 284.033C25.6649 289.761 28.1697 295.266 32.4186 299.127C36.6695 302.986 42.3951 304.948 48.113 304.509C53.7938 304.074 59.1234 301.294 62.7324 296.883C66.3415 292.473 68.0133 286.7 67.3188 281.043C67.3188 281.039 67.3188 281.037 67.3188 281.033L56.2518 170.394C55.3388 162.963 49.0474 157.486 41.6753 157.486L41.6733 157.482Z" fill="url(#paint9_linear_941_8825)"/>
<path d="M89.3958 299.61C85.2503 299.61 81.6003 296.877 80.4357 292.898L76.1693 278.323C75.3402 275.488 72.7378 273.54 69.7842 273.54H16C12.1394 273.54 9.01025 276.669 9.01025 280.529V328.672H100.847V306.6C100.847 302.739 97.718 299.61 93.8574 299.61H89.3997H89.3958Z" fill="url(#paint10_linear_941_8825)"/>
<path d="M100.846 329.103H9.01072C8.77272 329.103 8.57959 328.91 8.57959 328.672V280.529C8.57959 276.438 11.9096 273.11 16.0005 273.11H69.7866C72.9118 273.11 75.7074 275.206 76.5853 278.204L80.8517 292.779C81.9559 296.548 85.4693 299.181 89.3983 299.181H93.8559C97.9487 299.181 101.277 302.509 101.277 306.6V328.672C101.277 328.91 101.084 329.103 100.846 329.103ZM9.4399 328.241H100.415V306.598C100.415 302.981 97.4727 300.04 93.8539 300.04H89.3963C85.0869 300.04 81.2341 297.152 80.0226 293.019L75.7562 278.444C74.9856 275.81 72.5295 273.971 69.7847 273.971H16.0005C12.3837 273.971 9.4399 276.913 9.4399 280.529V328.241Z" fill="url(#paint11_linear_941_8825)"/>
<path d="M97.3284 299.61C93.1829 299.61 89.533 296.877 88.3683 292.898L84.1019 278.323C83.2728 275.488 80.6704 273.54 77.7168 273.54H23.9327C20.072 273.54 16.9429 276.669 16.9429 280.529V328.672H108.78V306.6C108.78 302.739 105.651 299.61 101.79 299.61H97.3324H97.3284Z" fill="white"/>
<path d="M108.778 329.103H16.9409C16.7029 329.103 16.5098 328.91 16.5098 328.672V280.529C16.5098 276.438 19.8398 273.11 23.9307 273.11H77.7168C80.842 273.11 83.6376 275.206 84.5154 278.204L88.7819 292.779C89.886 296.548 93.3995 299.181 97.3284 299.181H101.786C105.879 299.181 109.207 302.509 109.207 306.6V328.672C109.207 328.91 109.014 329.103 108.776 329.103H108.778ZM17.372 328.241H108.347V306.598C108.347 302.981 105.405 300.04 101.786 300.04H97.3284C93.0191 300.04 89.1662 297.152 87.9547 293.019L83.6883 278.444C82.9177 275.81 80.4616 273.971 77.7168 273.971H23.9326C20.3158 273.971 17.372 276.913 17.372 280.529V328.241Z" fill="url(#paint12_linear_941_8825)"/>
<path d="M101.499 311.274C103.597 311.274 105.298 309.574 105.298 307.476C105.298 305.378 103.597 303.678 101.499 303.678C99.4017 303.678 97.7012 305.378 97.7012 307.476C97.7012 309.574 99.4017 311.274 101.499 311.274Z" fill="white"/>
<path d="M118.044 324.696H0V329.959H118.044V324.696Z" fill="url(#paint13_linear_941_8825)"/>
<path d="M349.025 297.689L138.081 268.352C132.784 267.677 128.816 263.169 128.816 257.83L125.923 110.693C125.923 110.693 130.732 107.226 133.457 105.898C134.844 105.221 136.44 104.926 138.102 105.137L348.42 131.959C353.717 132.634 357.685 137.142 357.685 142.481V286.996C357.685 289.581 356.503 291.862 354.675 293.364C352.991 294.747 349.027 297.687 349.027 297.687L349.025 297.689Z" fill="url(#paint14_linear_941_8825)"/>
<path d="M342.587 299.643L132.269 272.822C126.972 272.147 123.004 267.638 123.004 262.299V117.786C123.004 112.819 127.363 108.982 132.29 109.61L342.608 136.432C347.905 137.107 351.873 141.615 351.873 146.955V291.47C351.873 296.436 347.515 300.274 342.587 299.645V299.643Z" fill="white"/>
<path d="M338.814 294.162C338.564 294.162 338.315 294.146 338.063 294.115L137.242 268.504C133.186 267.988 130.127 264.513 130.127 260.426V121.026C130.127 119.321 130.86 117.698 132.14 116.573C133.42 115.445 135.123 114.924 136.814 115.139L337.636 140.749C341.692 141.266 344.751 144.738 344.751 148.827V288.225C344.751 289.93 344.017 291.553 342.737 292.681C341.647 293.641 340.25 294.162 338.814 294.162ZM338.172 293.258C339.616 293.442 341.073 292.997 342.168 292.033C343.26 291.07 343.888 289.683 343.888 288.225V148.827C343.888 145.172 341.153 142.066 337.527 141.604L136.705 115.993C135.26 115.81 133.804 116.257 132.71 117.218C131.617 118.182 130.989 119.569 130.989 121.026V260.424C130.989 264.08 133.724 267.186 137.351 267.648L338.172 293.258Z" fill="black"/>
<path d="M343.629 300.141C343.264 300.141 342.898 300.118 342.533 300.071L132.217 273.249C126.719 272.549 122.576 267.841 122.576 262.299V203.074C122.576 202.836 122.769 202.643 123.007 202.643C123.245 202.643 123.438 202.836 123.438 203.074V262.299C123.438 267.408 127.26 271.747 132.328 272.394L342.646 299.216C344.87 299.501 347.113 298.812 348.797 297.33C350.48 295.847 351.446 293.711 351.446 291.468V146.953C351.446 141.843 347.624 137.505 342.558 136.859L234.163 123.036C233.927 123.004 233.761 122.79 233.79 122.554C233.821 122.318 234.038 122.152 234.272 122.181L342.667 136.005C348.163 136.705 352.308 141.412 352.308 146.955V291.47C352.308 293.961 351.237 296.333 349.367 297.979C347.775 299.382 345.732 300.143 343.635 300.143L343.629 300.141Z" fill="url(#paint15_linear_941_8825)"/>
<path d="M123.005 155.043C122.767 155.043 122.574 154.849 122.574 154.611V117.784C122.574 115.293 123.647 112.92 125.516 111.274C127.384 109.627 129.872 108.865 132.345 109.179L181.873 115.495C182.109 115.527 182.275 115.741 182.245 115.977C182.216 116.213 182.002 116.381 181.764 116.35L132.236 110.033C130.01 109.748 127.769 110.437 126.085 111.92C124.402 113.402 123.436 115.538 123.436 117.782V154.609C123.436 154.847 123.243 155.041 123.005 155.041V155.043Z" fill="url(#paint16_linear_941_8825)"/>
<path d="M219.888 384.754L3.58514 356.859C1.89183 356.643 0.93788 355.225 0.959339 353.808C0.974945 352.831 1.05297 345.945 1.05297 345.945L115.424 280.561C121.153 277.287 128.568 276.023 135.113 276.862L348.686 304.414C349.971 304.579 351.073 305.412 351.583 306.606L351.926 307.41C351.926 307.41 351.742 313.151 351.817 314.493C351.875 315.543 351.403 316.626 350.305 317.252L238.806 381.003C233.076 384.276 226.435 385.593 219.888 384.754Z" fill="url(#paint17_linear_941_8825)"/>
<path d="M219.888 377.092L4.3596 349.25C1.49775 348.883 0.746682 345.089 3.25154 343.659L114.152 280.319C119.881 277.046 126.522 275.729 133.069 276.568L348.598 304.41C351.46 304.777 352.211 308.571 349.706 310.001L238.805 373.34C233.076 376.614 226.435 377.931 219.888 377.092Z" fill="white"/>
<path d="M223.699 377.764C222.409 377.764 221.118 377.682 219.834 377.519L4.30334 349.676C2.81291 349.485 1.66192 348.41 1.3693 346.935C1.07668 345.463 1.7302 344.029 3.0353 343.284L113.938 279.944C119.712 276.645 126.526 275.294 133.122 276.14L348.653 303.982C350.143 304.173 351.294 305.248 351.587 306.721C351.879 308.194 351.226 309.628 349.921 310.373L239.018 373.712C234.368 376.369 229.04 377.762 223.699 377.762V377.764ZM219.943 376.664C226.358 377.485 232.979 376.171 238.591 372.965L349.493 309.626C350.68 308.949 350.916 307.769 350.742 306.889C350.568 306.011 349.899 305.01 348.543 304.837L133.013 276.995C126.6 276.173 119.977 277.486 114.365 280.693L3.46253 344.033C2.27643 344.71 2.04039 345.892 2.21401 346.77C2.38763 347.649 3.05676 348.648 4.41258 348.824L219.943 376.666V376.664Z" fill="url(#paint18_linear_941_8825)"/>
<path d="M262.086 341.932L75.1935 317.613C72.6087 317.281 71.9298 313.855 74.1927 312.562L118.137 287.718C123.312 284.763 129.309 283.573 135.222 284.33L322.115 308.649C324.7 308.98 325.379 312.406 323.116 313.699L279.171 338.543C273.996 341.499 267.997 342.689 262.086 341.932Z" fill="url(#paint19_linear_941_8825)"/>
<path d="M265.528 342.581C264.361 342.581 263.193 342.507 262.032 342.359L75.1393 318.04C73.7757 317.865 72.7222 316.881 72.455 315.531C72.1877 314.183 72.7866 312.87 73.9805 312.188L117.927 287.342C123.149 284.359 129.312 283.136 135.279 283.901L322.172 308.22C323.536 308.395 324.589 309.378 324.856 310.728C325.123 312.078 324.525 313.389 323.331 314.072L279.385 338.918C275.179 341.319 270.362 342.581 265.528 342.581ZM262.143 341.505C267.925 342.244 273.897 341.06 278.959 338.169L322.905 313.323C323.957 312.722 324.166 311.677 324.012 310.896C323.857 310.116 323.264 309.228 322.061 309.076L135.168 284.757C129.386 284.018 123.414 285.202 118.352 288.093L74.4058 312.939C73.3543 313.54 73.1456 314.585 73.2997 315.366C73.4538 316.146 74.0468 317.034 75.2505 317.186L262.143 341.505Z" fill="url(#paint20_linear_941_8825)"/>
<path d="M140.364 172.756C145.315 173.782 148.653 177.969 147.955 182.274C147.248 186.621 142.685 189.545 137.621 188.891L42.5672 176.65C35.1873 175.7 29.7445 169.845 30.2907 163.447C30.5775 160.074 32.5185 157.036 35.6223 155.099C38.726 153.162 42.6979 152.509 46.5371 153.304L140.366 172.758L140.364 172.756Z" fill="white"/>
<path d="M139.047 189.414C138.56 189.414 138.066 189.383 137.567 189.318L42.513 177.077C34.8502 176.09 29.2923 170.087 29.8619 163.41C30.1604 159.904 32.1775 156.742 35.3944 154.732C38.5879 152.739 42.6808 152.064 46.6253 152.881L140.454 172.335C145.635 173.409 149.118 177.805 148.382 182.344C147.707 186.509 143.743 189.416 139.049 189.416L139.047 189.414ZM43.3148 153.402C40.6285 153.402 38.0163 154.108 35.849 155.462C32.8642 157.325 30.9953 160.249 30.7183 163.482C30.1877 169.697 35.4159 175.294 42.6222 176.221L137.676 188.462C142.526 189.086 146.859 186.338 147.528 182.202C148.189 178.121 145.003 174.155 140.275 173.175L46.4459 153.722C45.4041 153.505 44.3526 153.4 43.3128 153.4L43.3148 153.402Z" fill="url(#paint21_linear_941_8825)"/>
<path d="M69.5317 274.971C70.2438 280.773 68.5524 286.614 64.8497 291.138C61.1471 295.662 55.757 298.473 49.9299 298.92C44.0618 299.37 38.2698 297.382 33.9116 293.426C29.5555 289.47 27.0194 283.894 26.9043 278.009L27.7841 166.808C27.6242 158.778 33.7595 152.021 41.7657 151.406C49.8343 150.788 56.9645 156.625 57.9497 164.658L69.5298 274.971H69.5317Z" fill="white"/>
<path d="M48.3126 299.413C42.9166 299.413 37.6377 297.394 33.621 293.746C29.1965 289.727 26.5902 283.995 26.4712 278.018L27.351 166.804C27.1871 158.565 33.5039 151.607 41.7305 150.975C50.0508 150.337 57.3586 156.324 58.3769 164.603L69.9589 274.92C70.6807 280.808 68.9406 286.818 65.1833 291.409C61.426 296.001 55.8779 298.894 49.963 299.347C49.4129 299.389 48.8627 299.409 48.3145 299.409L48.3126 299.413ZM42.9439 151.792C42.5655 151.792 42.1831 151.806 41.7988 151.837C34.0267 152.434 28.0592 159.006 28.2152 166.802L27.3354 278.016C27.4486 283.746 29.9515 289.251 34.2023 293.112C38.4512 296.97 44.173 298.933 49.8967 298.494C55.5775 298.059 60.9071 295.279 64.5161 290.868C68.1251 286.457 69.797 280.685 69.1025 275.028C69.1025 275.026 69.1025 275.022 69.1025 275.02L57.5224 164.707C56.6094 157.274 50.318 151.796 42.9439 151.796V151.792Z" fill="url(#paint22_linear_941_8825)"/>
<path d="M60.1214 279.16C61.6689 272.22 57.298 265.339 50.3586 263.792C43.4192 262.244 36.5391 266.616 34.9916 273.557C33.444 280.497 37.815 287.378 44.7544 288.925C51.6938 290.473 58.5738 286.101 60.1214 279.16Z" fill="black"/>
<path d="M51.4608 168.145C52.5209 163.501 49.6167 158.877 44.974 157.817C40.3313 156.758 35.7082 159.663 34.6481 164.307C33.5879 168.95 36.4922 173.574 41.1349 174.634C45.7776 175.694 50.4006 172.789 51.4608 168.145Z" fill="black"/>
<path d="M48.0221 294.491C46.7657 294.491 45.4977 294.354 44.2355 294.074C42.866 293.767 41.5395 293.301 40.2948 292.686C40.0822 292.581 39.9944 292.324 40.0998 292.109C40.2051 291.896 40.4646 291.809 40.6772 291.914C41.8614 292.499 43.1235 292.942 44.4247 293.233C51.6896 294.854 59.21 291.403 62.7098 284.84C62.821 284.63 63.0824 284.55 63.2931 284.663C63.5038 284.774 63.5818 285.035 63.4706 285.246C60.3981 291.011 54.3759 294.493 48.024 294.493L48.0221 294.491Z" fill="url(#paint23_linear_941_8825)"/>
<path d="M64.6469 280.972C64.6274 280.972 64.6099 280.972 64.5904 280.968C64.3543 280.937 64.1885 280.72 64.2197 280.484C64.606 277.556 64.1982 274.565 63.0394 271.836C62.9458 271.618 63.0492 271.364 63.2677 271.27C63.4881 271.179 63.7398 271.28 63.8334 271.499C65.0527 274.37 65.4819 277.517 65.0742 280.597C65.0449 280.814 64.8596 280.972 64.6469 280.972Z" fill="url(#paint24_linear_941_8825)"/>
<path d="M48.4631 176.693C48.309 176.693 48.1607 176.611 48.0827 176.467C47.9695 176.258 48.0476 175.996 48.2563 175.883C50.5329 174.654 52.3082 172.661 53.2543 170.269C53.3421 170.048 53.5918 169.939 53.8142 170.027C54.0346 170.115 54.1439 170.364 54.0561 170.587C53.0358 173.168 51.1221 175.32 48.666 176.644C48.6016 176.679 48.5314 176.697 48.4611 176.697L48.4631 176.693Z" fill="url(#paint25_linear_941_8825)"/>
<path d="M53.9057 163.128C53.7242 163.128 53.5545 163.013 53.496 162.83C52.3001 159.151 49.2139 156.341 45.445 155.501C42.4797 154.837 39.3428 155.446 36.8379 157.169C36.6409 157.303 36.3736 157.254 36.239 157.057C36.1044 156.86 36.1532 156.593 36.3502 156.458C39.0521 154.601 42.4368 153.948 45.6322 154.66C49.6997 155.567 53.0258 158.597 54.3153 162.563C54.3895 162.789 54.2646 163.033 54.0383 163.105C53.9935 163.119 53.9486 163.126 53.9057 163.126V163.128Z" fill="url(#paint26_linear_941_8825)"/>
<path d="M157.233 237.662L174.695 228.286L179.609 233.331L186.363 245.916L187.962 253.009L170.499 262.385L157.233 237.662Z" fill="url(#paint27_linear_941_8825)"/>
<path d="M170.498 262.813C170.457 262.813 170.414 262.807 170.373 262.796C170.264 262.763 170.172 262.688 170.118 262.587L156.852 237.866C156.739 237.657 156.819 237.396 157.028 237.283L174.492 227.907C174.661 227.817 174.87 227.849 175.005 227.985L179.917 233.03C179.944 233.059 179.969 233.091 179.987 233.128L186.741 245.712C186.758 245.747 186.774 245.783 186.782 245.822L188.381 252.913C188.424 253.102 188.335 253.295 188.165 253.387L170.701 262.763C170.639 262.796 170.568 262.813 170.498 262.813ZM157.816 237.837L170.676 261.799L187.47 252.782L185.955 246.067L179.257 233.586L174.613 228.818L157.814 237.837H157.816Z" fill="url(#paint28_linear_941_8825)"/>
<path d="M237.623 153.07C213.066 166.254 203.844 196.852 217.026 221.413C230.208 245.974 260.798 255.198 285.355 242.014C309.912 228.83 319.134 198.232 305.952 173.671C292.772 149.11 262.18 139.886 237.623 153.07ZM301.978 175.805C313.982 198.173 305.583 226.037 283.221 238.042C260.859 250.047 233.001 241.649 220.998 219.281C208.994 196.915 217.393 169.049 239.755 157.044C262.117 145.039 289.975 153.437 301.978 175.805Z" fill="#151515"/>
<path d="M156.784 259.854C154.465 261.099 151.575 260.229 150.331 257.91L149.814 256.948C148.569 254.628 149.439 251.737 151.759 250.492L212.178 218.054L217.203 227.418L156.784 259.856V259.854Z" fill="url(#paint29_linear_941_8825)"/>
<path d="M182.224 238.247C182.07 238.247 181.922 238.165 181.844 238.02C181.731 237.811 181.811 237.55 182.02 237.437L187.072 234.723C187.283 234.61 187.542 234.69 187.655 234.899C187.769 235.11 187.689 235.369 187.48 235.482L182.427 238.196C182.363 238.231 182.293 238.247 182.224 238.247Z" fill="white"/>
<path d="M201.466 236.193L196.431 226.811C195.74 225.526 196.224 223.922 197.509 223.231L200.832 221.448C202.117 220.758 203.721 221.242 204.409 222.527L209.444 231.909C210.135 233.194 209.651 234.798 208.366 235.488L205.043 237.271C203.758 237.962 202.154 237.478 201.466 236.193Z" fill="#FFC626"/>
<path d="M203.799 238.019C203.5 238.019 203.202 237.976 202.907 237.886C202.121 237.648 201.475 237.119 201.087 236.396L196.052 227.014C195.25 225.52 195.814 223.653 197.306 222.851L200.629 221.068C201.352 220.68 202.183 220.596 202.97 220.834C203.756 221.07 204.402 221.6 204.79 222.322L209.825 231.704C210.627 233.198 210.063 235.065 208.57 235.867L205.248 237.65C204.796 237.894 204.298 238.017 203.799 238.017V238.019ZM201.846 235.99C202.125 236.511 202.591 236.891 203.157 237.061C203.721 237.232 204.322 237.172 204.842 236.891L208.165 235.108C209.24 234.531 209.643 233.186 209.068 232.112L204.033 222.73C203.754 222.209 203.288 221.829 202.722 221.659C202.158 221.489 201.559 221.55 201.036 221.829L197.714 223.612C196.639 224.189 196.235 225.533 196.811 226.608L201.846 235.99Z" fill="white"/>
<path d="M297.313 178.676C297.159 178.676 297.011 178.594 296.933 178.45C295.003 174.853 292.561 171.593 289.678 168.758C289.508 168.591 289.506 168.319 289.672 168.15C289.838 167.98 290.111 167.978 290.28 168.144C293.226 171.039 295.719 174.369 297.69 178.042C297.803 178.251 297.723 178.513 297.514 178.626C297.45 178.661 297.379 178.676 297.311 178.676H297.313Z" fill="url(#paint30_linear_941_8825)"/>
<path d="M242.509 233.918C242.441 233.918 242.372 233.902 242.308 233.869C235.045 230.049 229.148 224.195 225.252 216.934C214.532 196.958 222.059 171.983 242.031 161.261C256.453 153.519 274.081 155.064 286.941 165.2C287.128 165.346 287.159 165.618 287.013 165.805C286.867 165.992 286.596 166.023 286.408 165.877C273.818 155.953 256.559 154.439 242.439 162.02C222.886 172.518 215.517 196.969 226.013 216.528C229.827 223.635 235.601 229.368 242.712 233.106C242.923 233.217 243.003 233.477 242.893 233.688C242.817 233.834 242.667 233.918 242.511 233.918H242.509Z" fill="url(#paint31_linear_941_8825)"/>
<path d="M130.167 181.784C128.926 179.603 128.635 177.007 129.363 174.605C130.091 172.204 131.774 170.206 134.019 169.083C136.489 167.846 139.357 167.672 141.957 168.605C144.558 169.535 146.665 171.49 147.788 174.014L175.607 236.522L164.485 242.092L130.167 181.784Z" fill="url(#paint32_linear_941_8825)"/>
<path d="M164.486 242.523C164.336 242.523 164.189 242.445 164.111 242.305L129.792 181.997C128.499 179.723 128.193 176.984 128.952 174.481C129.71 171.978 131.488 169.869 133.827 168.698C136.388 167.415 139.406 167.233 142.102 168.199C144.8 169.165 147.016 171.221 148.181 173.839L176 236.347C176.093 236.558 176.005 236.804 175.799 236.907L164.677 242.479C164.615 242.51 164.55 242.523 164.484 242.523H164.486ZM130.541 181.572L164.657 241.525L175.046 236.322L147.393 174.19C146.322 171.787 144.289 169.898 141.811 169.011C139.334 168.123 136.564 168.291 134.211 169.469C132.083 170.534 130.465 172.454 129.775 174.732C129.084 177.011 129.363 179.504 130.54 181.574L130.541 181.572Z" fill="url(#paint33_linear_941_8825)"/>
<path d="M129.749 183.037C128.508 180.856 128.218 178.259 128.945 175.858C129.673 173.456 131.357 171.459 133.602 170.335C136.072 169.098 138.939 168.925 141.54 169.857C144.14 170.788 146.247 172.742 147.371 175.267L175.19 237.775L164.068 243.344L129.749 183.037Z" fill="white"/>
<path d="M164.068 243.775C163.918 243.775 163.774 243.697 163.694 243.557L129.375 183.249C128.082 180.974 127.775 178.236 128.534 175.733C129.293 173.23 131.07 171.121 133.409 169.95C135.971 168.667 138.989 168.485 141.687 169.451C144.385 170.417 146.599 172.473 147.765 175.091L175.584 237.599C175.678 237.81 175.59 238.056 175.383 238.159L164.261 243.729C164.199 243.76 164.135 243.773 164.068 243.773V243.775ZM130.124 182.824L164.24 242.777L174.628 237.574L146.975 175.442C145.904 173.037 143.871 171.15 141.394 170.263C138.916 169.375 136.146 169.543 133.794 170.721C131.665 171.786 130.048 173.706 129.357 175.984C128.667 178.263 128.946 180.756 130.122 182.826L130.124 182.824Z" fill="url(#paint34_linear_941_8825)"/>
<path d="M157.145 237.067L174.868 228.189L175.945 235.065L182.14 247.439L187.427 253.276L169.706 262.154L164.881 257.242L158.048 243.592L157.145 237.067Z" fill="white"/>
<path d="M169.706 262.586C169.593 262.586 169.482 262.541 169.398 262.457L164.573 257.545C164.542 257.513 164.515 257.476 164.495 257.435L157.662 243.786C157.64 243.743 157.627 243.698 157.621 243.651L156.719 237.125C156.694 236.942 156.788 236.765 156.954 236.681L174.677 227.804C174.8 227.742 174.944 227.744 175.067 227.806C175.19 227.869 175.274 227.988 175.295 228.122L176.362 234.933L182.502 247.194L187.749 252.988C187.839 253.087 187.878 253.224 187.853 253.356C187.827 253.489 187.743 253.602 187.622 253.663L169.899 262.539C169.839 262.57 169.772 262.584 169.706 262.584V262.586ZM165.235 256.989L169.792 261.63L186.727 253.148L181.821 247.73C181.795 247.701 181.772 247.67 181.754 247.635L175.559 235.26C175.539 235.221 175.525 235.179 175.518 235.134L174.532 228.84L157.613 237.315L158.463 243.464L165.235 256.989Z" fill="url(#paint35_linear_941_8825)"/>
<path d="M138.728 183.037C140.769 183.034 142.421 181.377 142.418 179.337C142.415 177.296 140.758 175.644 138.718 175.647C136.677 175.65 135.025 177.307 135.028 179.347C135.031 181.388 136.688 183.04 138.728 183.037Z" fill="black"/>
<path d="M171.122 256.245C170.964 256.245 170.812 256.158 170.736 256.007C170.629 255.795 170.715 255.535 170.929 255.43L178.945 251.415C179.158 251.308 179.417 251.394 179.523 251.608C179.63 251.821 179.544 252.08 179.33 252.186L171.314 256.2C171.251 256.232 171.187 256.245 171.12 256.245H171.122Z" fill="black"/>
<path d="M163.555 241.659C163.397 241.659 163.245 241.571 163.169 241.421C163.062 241.209 163.149 240.949 163.362 240.844L171.378 236.829C171.591 236.722 171.85 236.81 171.955 237.022C172.063 237.235 171.975 237.494 171.762 237.6L163.746 241.614C163.684 241.646 163.62 241.659 163.553 241.659H163.555Z" fill="black"/>
<path d="M138.737 185.75C138.056 185.75 137.373 185.639 136.708 185.419C136.234 185.261 135.777 185.048 135.354 184.787C135.151 184.662 135.089 184.396 135.214 184.194C135.339 183.991 135.604 183.928 135.807 184.053C136.174 184.279 136.568 184.465 136.979 184.601C138.173 184.997 139.426 184.984 140.606 184.56C140.83 184.48 141.076 184.595 141.158 184.82C141.238 185.044 141.123 185.29 140.898 185.372C140.194 185.625 139.465 185.752 138.735 185.752L138.737 185.75Z" fill="url(#paint36_linear_941_8825)"/>
<path d="M132.828 180.735C132.621 180.735 132.438 180.585 132.402 180.374C132.233 179.354 132.319 178.293 132.646 177.306C133.444 174.906 135.584 173.195 138.101 172.944C138.341 172.92 138.549 173.094 138.573 173.33C138.596 173.566 138.423 173.778 138.187 173.802C136.008 174.018 134.154 175.501 133.464 177.577C133.179 178.431 133.107 179.35 133.253 180.232C133.292 180.466 133.134 180.688 132.898 180.727C132.875 180.731 132.851 180.733 132.828 180.733V180.735Z" fill="url(#paint37_linear_941_8825)"/>
<path d="M200.618 150.013C199.352 145.832 199.565 143.193 200.716 140.444L202.651 136.593L196.832 134.258L195.049 138.641C194.473 140.054 193.642 141.347 192.597 142.455L191.635 143.475L200.618 150.013Z" fill="white"/>
<path d="M200.62 150.444C200.53 150.444 200.443 150.416 200.367 150.362L191.383 143.825C191.284 143.752 191.219 143.639 191.207 143.516C191.196 143.393 191.239 143.271 191.323 143.181L192.284 142.161C193.297 141.086 194.093 139.849 194.651 138.479L196.434 134.096C196.523 133.877 196.773 133.77 196.994 133.858L202.813 136.193C202.924 136.238 203.012 136.328 203.055 136.441C203.098 136.554 203.092 136.679 203.037 136.786L201.102 140.637C200.107 143.019 199.707 145.518 201.032 149.888C201.086 150.065 201.02 150.256 200.87 150.364C200.796 150.416 200.708 150.444 200.62 150.444ZM192.284 143.415L199.871 148.936C199.015 145.561 199.159 143.052 200.32 140.278L202.058 136.819L197.072 134.818L195.449 138.803C194.852 140.27 193.997 141.599 192.912 142.75L192.286 143.413L192.284 143.415Z" fill="url(#paint38_linear_941_8825)"/>
<path d="M194.269 141.335C194.125 140.881 193.528 140.769 193.202 141.117C192.281 142.096 190.67 143.735 189.447 144.581C188.307 145.369 187.95 146.889 188.596 148.106C190.422 151.548 195.043 159.017 199.915 164.718C200.248 165.108 201.075 165.629 202.269 165.092C206.274 163.292 202.466 155.149 200.295 146.673C200.209 146.339 199.94 146.085 199.603 146.023L198.393 145.801C196.157 145.356 195.217 144.302 194.269 141.335Z" fill="url(#paint39_linear_941_8825)"/>
<path d="M189.72 144.395C189.72 144.395 189.534 144.519 189.445 144.582C188.305 145.37 187.948 146.89 188.594 148.107C190.42 151.548 195.042 159.018 199.913 164.718C200.246 165.108 201.073 165.629 202.267 165.093C202.632 164.929 203.184 164.48 203.184 164.48L202.857 164.063C198.19 158.122 193.969 151.845 190.225 145.284L189.718 144.395H189.72Z" fill="white"/>
<path d="M201.282 165.752C200.527 165.752 199.93 165.401 199.587 164.999C194.719 159.303 190.119 151.897 188.215 148.31C187.462 146.892 187.887 145.136 189.202 144.227L189.479 144.037C189.579 143.971 189.704 143.948 189.819 143.975C189.936 144.002 190.035 144.076 190.096 144.182L190.603 145.071C194.323 151.591 198.56 157.892 203.199 163.799L203.527 164.217C203.672 164.402 203.642 164.669 203.461 164.818C203.4 164.866 202.854 165.307 202.448 165.489C202.031 165.676 201.641 165.754 201.284 165.754L201.282 165.752ZM189.579 145.019C188.713 145.7 188.449 146.915 188.976 147.906C190.862 151.46 195.42 158.795 200.242 164.439C200.355 164.572 200.974 165.204 202.093 164.701C202.228 164.64 202.413 164.519 202.577 164.402L202.521 164.33C197.856 158.39 193.594 152.053 189.854 145.497L189.581 145.017L189.579 145.019Z" fill="url(#paint40_linear_941_8825)"/>
<path d="M201.953 153.442C201.929 153.442 201.906 153.442 201.881 153.436L197.868 152.763C197.634 152.724 197.476 152.502 197.515 152.268C197.554 152.034 197.776 151.874 198.01 151.915L202.023 152.588C202.257 152.627 202.415 152.849 202.376 153.083C202.341 153.294 202.158 153.442 201.951 153.442H201.953Z" fill="white"/>
<path d="M202.602 155.729C202.581 155.729 202.56 155.729 202.538 155.725L199.259 155.239C199.023 155.204 198.861 154.986 198.896 154.75C198.931 154.513 199.15 154.354 199.386 154.387L202.665 154.872C202.901 154.908 203.063 155.126 203.028 155.362C202.997 155.577 202.811 155.729 202.602 155.729Z" fill="white"/>
<path d="M167.829 89.3089C167.829 89.3089 208.223 80.4503 220.532 87.4635C222.388 88.5208 224.145 90.735 224.534 92.8341C225.716 99.225 222.158 113.15 202.696 139.33C202.421 139.699 201.931 139.843 201.502 139.681L195.328 137.34C194.827 137.151 194.555 136.609 194.702 136.094L202.944 107.243C203.158 106.492 202.538 105.766 201.762 105.86L163.268 110.59L167.827 89.3089H167.829Z" fill="white"/>
<path d="M201.865 140.175C201.692 140.175 201.518 140.144 201.35 140.081L195.176 137.74C194.472 137.473 194.082 136.697 194.288 135.973L202.531 107.122C202.593 106.906 202.544 106.683 202.398 106.512C202.252 106.34 202.039 106.256 201.817 106.285L163.323 111.016C163.184 111.034 163.046 110.983 162.952 110.879C162.859 110.776 162.82 110.636 162.849 110.499L167.408 89.2195C167.443 89.0537 167.572 88.9249 167.738 88.8898C169.394 88.527 208.434 80.0779 220.747 87.0912C222.796 88.2577 224.569 90.6417 224.959 92.7564C225.919 97.9455 224.349 110.928 203.044 139.588C202.763 139.966 202.32 140.177 201.865 140.177V140.175ZM201.898 105.419C202.339 105.419 202.763 105.61 203.053 105.952C203.385 106.34 203.5 106.867 203.36 107.358L195.117 136.209C195.032 136.505 195.192 136.825 195.48 136.935L201.655 139.276C201.902 139.369 202.191 139.287 202.351 139.071C223.461 110.675 225.045 97.9611 224.111 92.9105C223.761 91.0221 222.168 88.8898 220.318 87.8364C208.812 81.2816 171.739 88.9171 168.19 89.6701L163.816 110.086L201.709 105.429C201.772 105.421 201.834 105.417 201.897 105.417L201.898 105.419Z" fill="url(#paint41_linear_941_8825)"/>
<path d="M179.757 165.374L180.549 169.135C181.606 174.609 177.607 177.41 177.607 177.41L189.435 178.85C189.435 178.85 186.852 177.279 187.379 169.675L188.056 163.313L179.759 165.374H179.757Z" fill="white"/>
<path d="M189.435 179.281C189.417 179.281 189.4 179.281 189.382 179.277L177.554 177.837C177.377 177.816 177.232 177.687 177.187 177.513C177.145 177.34 177.213 177.158 177.359 177.057C177.513 176.95 181.114 174.337 180.125 169.216L179.335 165.463C179.289 165.237 179.427 165.012 179.653 164.956L187.95 162.896C188.089 162.863 188.231 162.896 188.336 162.989C188.442 163.081 188.496 163.22 188.481 163.36L187.804 169.722C187.31 176.868 189.638 178.471 189.661 178.485C189.829 178.594 189.903 178.807 189.833 178.994C189.77 179.166 189.608 179.279 189.431 179.279L189.435 179.281ZM178.604 177.098L188.352 178.284C187.576 177.108 186.606 174.609 186.949 169.646L187.562 163.881L180.266 165.693L180.972 169.047C181.776 173.202 179.765 175.923 178.606 177.098H178.604Z" fill="url(#paint42_linear_941_8825)"/>
<path d="M179.511 172.348C178.536 173.47 176.768 175.578 175.413 177.619C174.56 178.899 175.071 180.375 175.982 181.603C177.845 184.105 180.401 186.031 183.403 188.013C186.027 189.743 188.959 191.569 192.488 193.183C193.446 193.622 195.606 194.22 197.049 193.501C201.409 191.325 194.138 184.513 188.421 176.665C188.196 176.357 187.816 176.207 187.441 176.281L186.103 176.548C184.763 176.815 183.399 176.251 182.64 175.118L180.84 172.428C180.533 171.969 179.876 171.93 179.513 172.35L179.511 172.348Z" fill="url(#paint43_linear_941_8825)"/>
<path d="M176.115 176.67C176.115 176.67 175.479 177.519 175.412 177.619C175.2 177.938 175.073 178.313 175.005 178.695C174.78 179.928 175.21 181.19 176.074 182.096C176.283 182.314 176.567 182.593 176.897 182.909C180.329 186.175 184.187 188.959 188.344 191.231C190.453 192.384 195.133 194.753 197.047 193.5C197.638 193.114 197.999 191.938 197.999 191.938C197.999 191.938 196.881 192.609 193.516 190.937C187.831 188.112 183.98 184.94 179.289 181.15C178.366 180.404 177.728 179.72 177.071 178.906C176.552 178.264 176.218 177.49 176.113 176.672L176.115 176.67Z" fill="white"/>
<path d="M195.617 194.282C193.902 194.282 191.397 193.389 188.139 191.608C183.892 189.288 180.01 186.465 176.6 183.221C176.263 182.901 175.974 182.616 175.761 182.394C174.778 181.366 174.337 179.953 174.579 178.619C174.667 178.139 174.825 177.722 175.053 177.38C175.124 177.275 175.662 176.555 175.771 176.413C175.877 176.272 176.056 176.21 176.226 176.255C176.395 176.299 176.52 176.442 176.544 176.615C176.639 177.353 176.938 178.051 177.41 178.635C178.138 179.536 178.762 180.166 179.564 180.814L180.016 181.178C184.437 184.75 188.254 187.837 193.713 190.55C196.729 192.048 197.788 191.565 197.798 191.559C197.954 191.483 198.145 191.502 198.276 191.613C198.407 191.725 198.467 191.9 198.416 192.064C198.373 192.199 197.987 193.402 197.287 193.861C196.856 194.142 196.3 194.282 195.619 194.282H195.617ZM175.908 177.669C175.836 177.766 175.785 177.837 175.771 177.856C175.609 178.098 175.494 178.406 175.428 178.771C175.235 179.836 175.594 180.968 176.386 181.799C176.591 182.013 176.87 182.287 177.195 182.597C180.551 185.79 184.372 188.568 188.553 190.853C194.128 193.898 196.122 193.592 196.815 193.139C196.99 193.024 197.164 192.77 197.304 192.497C196.538 192.515 195.287 192.296 193.327 191.321C187.782 188.564 183.931 185.453 179.472 181.848L179.019 181.483C178.167 180.794 177.505 180.125 176.737 179.175C176.372 178.722 176.091 178.213 175.906 177.669H175.908Z" fill="url(#paint44_linear_941_8825)"/>
<path d="M187.351 182.56C187.152 182.56 186.975 182.421 186.93 182.221C186.879 181.988 187.027 181.758 187.26 181.709L191.672 180.755C191.904 180.707 192.135 180.853 192.183 181.085C192.234 181.317 192.086 181.547 191.854 181.596L187.441 182.55C187.41 182.556 187.381 182.56 187.349 182.56H187.351Z" fill="white"/>
<path d="M189.794 184.54C189.599 184.54 189.421 184.407 189.374 184.208C189.32 183.976 189.464 183.744 189.694 183.689L193.274 182.845C193.504 182.788 193.736 182.933 193.793 183.165C193.848 183.397 193.703 183.629 193.473 183.684L189.893 184.528C189.86 184.536 189.827 184.54 189.794 184.54Z" fill="white"/>
<path d="M193.964 100.855C182.195 90.7911 144.326 90.4751 144.326 90.4751C144.326 90.4751 139.597 96.1149 141.854 107.461C142.599 111.203 145.245 114.56 149.425 114.56L172.658 114.757C174.361 114.771 175.713 116.191 175.646 117.892C175.213 129.123 174.829 152.342 178.04 168.163C178.171 168.804 178.654 169.314 179.285 169.485C180.769 169.887 183.676 170.539 186.828 170.496C187.812 170.482 188.635 169.743 188.765 168.767L196.471 111.23C196.703 109.496 196.709 107.734 196.419 106.008C196.108 104.164 195.428 102.108 193.964 100.855Z" fill="white"/>
<path d="M186.534 170.927C183.434 170.927 180.607 170.29 179.171 169.899C178.375 169.683 177.78 169.051 177.616 168.247C174.442 152.607 174.749 129.974 175.215 117.873C175.242 117.167 174.989 116.498 174.501 115.986C174.013 115.477 173.358 115.192 172.652 115.187L149.419 114.992C144.616 114.992 142.113 110.981 141.429 107.547C139.158 96.131 143.795 90.4365 143.994 90.2005C144.076 90.101 144.209 90.0561 144.328 90.0464C145.88 90.06 182.492 90.4795 194.243 100.532C195.554 101.654 196.428 103.472 196.842 105.94C197.127 107.635 197.144 109.434 196.896 111.289L189.191 168.826C189.033 170.009 188.018 170.912 186.832 170.927C186.731 170.927 186.631 170.927 186.532 170.927H186.534ZM144.536 90.9086C143.83 91.888 140.293 97.4107 142.275 107.376C142.896 110.491 145.139 114.127 149.423 114.127L172.659 114.322C173.6 114.33 174.476 114.709 175.125 115.39C175.775 116.07 176.112 116.964 176.075 117.904C175.611 129.966 175.305 152.521 178.461 168.073C178.559 168.555 178.918 168.936 179.398 169.066C180.835 169.457 183.715 170.106 186.824 170.061C187.587 170.052 188.239 169.468 188.34 168.707L196.046 111.17C196.282 109.4 196.266 107.688 195.995 106.076C195.615 103.813 194.838 102.167 193.685 101.182C182.626 91.7241 147.626 90.9555 144.536 90.9067V90.9086Z" fill="url(#paint45_linear_941_8825)"/>
<path d="M185.95 63.894L189.066 69.8714C192.089 75.3122 196.953 78.9193 202.337 82.0386L204.52 83.3047C205.919 84.1163 207.548 84.4401 209.151 84.2255L209.397 84.1923C211.845 83.8646 214.329 84.4499 216.377 85.833L210.95 87.9126C207.641 89.1806 203.958 89.1279 200.714 87.7019C197.606 86.3343 190.603 84.6625 187.3 80.8155C180.379 72.7566 180.65 70.9658 180.65 70.9658L185.954 63.894H185.95Z" fill="white"/>
<path d="M206.057 89.257C204.171 89.257 202.298 88.8688 200.539 88.0943C199.817 87.7764 198.884 87.4428 197.803 87.0585C194.327 85.8177 189.565 84.1166 186.971 81.0948C180.26 73.2818 180.17 71.2314 180.221 70.8998C180.232 70.8296 180.26 70.7632 180.303 70.7047L185.607 63.633C185.695 63.514 185.839 63.4496 185.987 63.4613C186.136 63.473 186.266 63.5608 186.335 63.6915L189.45 69.6688C192.628 75.3847 197.858 78.9391 202.556 81.6625L204.739 82.9286C206.05 83.6874 207.599 83.9957 209.097 83.7947L209.343 83.7616C211.898 83.4202 214.483 84.0288 216.621 85.4724C216.754 85.5622 216.826 85.7182 216.808 85.8782C216.791 86.0382 216.685 86.1747 216.535 86.2313L211.108 88.3109C209.466 88.941 207.76 89.2551 206.063 89.2551L206.057 89.257ZM181.083 71.1027C181.155 71.5143 181.795 73.746 187.624 80.5349C190.07 83.3831 194.708 85.0394 198.092 86.2489C199.187 86.641 200.133 86.9785 200.884 87.3082C204.019 88.6874 207.536 88.7576 210.792 87.5111L215.404 85.7436C213.597 84.7428 211.516 84.3449 209.45 84.6199L209.206 84.6531C207.519 84.8774 205.777 84.5321 204.302 83.6777L202.119 82.4116C197.32 79.6297 191.971 75.9895 188.685 70.0805L185.882 64.7001L181.079 71.1027H181.083Z" fill="url(#paint46_linear_941_8825)"/>
<path d="M170.168 92.7511C170.168 92.7511 170.564 93.5588 160.059 95.0765C152.486 96.1709 145.611 95.6871 142.361 95.3321C141.302 95.217 140.588 94.1967 140.847 93.1647C141.7 89.7566 142.322 86.5924 145.604 77.9385C147.88 71.932 144.421 60.9762 151.493 54.4663C163.426 43.4792 179.891 57.4978 179.891 57.4978L185.069 65.1021C179.136 72.0568 174.476 80.0025 171.302 88.5764L170.17 92.7531L170.168 92.7511Z" fill="url(#paint47_linear_941_8825)"/>
<path d="M165.746 71.8169C165.53 71.8169 165.342 71.653 165.319 71.4326L164.431 63.1572C164.406 62.9211 164.577 62.7085 164.814 62.6831C165.048 62.6578 165.262 62.8295 165.288 63.0655L166.175 71.3409C166.201 71.5769 166.029 71.7896 165.793 71.8149C165.777 71.8149 165.762 71.8169 165.746 71.8169Z" fill="white"/>
<path d="M154.804 76.3624C154.647 76.3624 154.499 76.2785 154.421 76.1322C152.488 72.4412 150.045 62.7729 149.995 60.7051C149.989 60.4671 150.176 60.27 150.414 60.2642C150.662 60.2525 150.849 60.4456 150.855 60.6836C150.904 62.6422 153.338 72.211 155.184 75.7322C155.295 75.9429 155.213 76.2024 155.003 76.3136C154.938 76.3467 154.87 76.3624 154.804 76.3624Z" fill="white"/>
<path d="M221.695 86.5883L193.648 88.7264L209.057 60.8706C209.631 59.8211 210.718 59.1286 211.935 59.0369L234.697 57.3026C236.143 57.1933 237.14 58.674 236.457 59.9206L221.695 86.5903V86.5883Z" fill="#FFC623"/>
<path d="M218.049 73.4421C217.499 74.4467 216.221 75.3246 215.193 75.4026C214.165 75.4807 213.777 74.7296 214.327 73.7249C214.877 72.7203 216.155 71.8424 217.183 71.7644C218.211 71.6863 218.599 72.4374 218.049 73.4421Z" fill="black"/>
<path d="M220.328 88.3946L176.329 91.7481C175.42 91.8163 174.628 91.1355 174.558 90.2264L174.483 89.9787L221.773 86.3755L221.847 86.6232C221.916 87.5323 221.235 88.3263 220.326 88.3965L220.328 88.3946Z" fill="url(#paint48_linear_941_8825)"/>
<path d="M197.876 83.3228L192.148 81.3407C191.298 81.0462 190.354 81.2159 189.661 81.7914L187.004 83.988C186.497 84.4074 185.849 84.6142 185.192 84.5713C182.326 84.3821 168.976 80.7321 167.954 78.3072C167.094 76.2667 166.421 73.8262 166.421 73.8262L156.066 77.4469C156.066 77.4469 156.234 80.6463 160.444 84.94C164.027 88.5939 173.268 89.8229 185.98 89.0562C185.98 89.0562 188.637 88.7558 190.865 86.0968C192.287 84.3977 195.753 85.2736 197.81 84.7683C198.539 84.5889 198.586 83.5686 197.876 83.3228Z" fill="white"/>
<path d="M179.246 89.7018C169.566 89.7018 163.021 88.186 160.135 85.2422C155.861 80.8821 155.643 77.6087 155.635 77.4702C155.625 77.279 155.742 77.1034 155.924 77.041L166.279 73.4202C166.392 73.3812 166.515 73.389 166.62 73.4456C166.725 73.5002 166.803 73.5978 166.834 73.7129C166.84 73.7363 167.511 76.1514 168.35 78.1412C169.23 80.2267 182.221 83.943 185.221 84.142C185.769 84.181 186.308 84.0054 186.729 83.6562L189.386 81.4596C190.192 80.7943 191.304 80.5934 192.289 80.9348L198.016 82.9168C198.516 83.0905 198.836 83.5626 198.812 84.0912C198.787 84.6199 198.426 85.0608 197.911 85.1876C197.144 85.3749 196.243 85.3827 195.287 85.3924C193.666 85.4061 191.99 85.4217 191.192 86.3737C188.881 89.1341 186.142 89.4716 186.027 89.4853C183.621 89.6316 181.356 89.7037 179.246 89.7037V89.7018ZM156.542 77.7374C156.71 78.6211 157.469 81.2918 160.75 84.6394C164.086 88.0417 172.802 89.4209 185.953 88.6269C185.953 88.6269 188.454 88.3031 190.533 85.8197C191.587 84.5614 193.463 84.5458 195.281 84.5302C196.185 84.5224 197.037 84.5146 197.706 84.3507C197.923 84.298 197.95 84.1088 197.952 84.0522C197.954 83.9956 197.946 83.8045 197.736 83.7323L192.008 81.7503C191.304 81.5064 190.51 81.6508 189.936 82.1248L187.279 84.3214C186.686 84.8111 185.935 85.053 185.164 85.0023C182.509 84.8267 168.721 81.2372 167.556 78.4768C166.905 76.9317 166.366 75.1857 166.13 74.3859L156.54 77.7374H156.542Z" fill="url(#paint49_linear_941_8825)"/>
<path d="M178.459 56.7368C185.531 60.5253 188.393 66.0813 192.097 71.048C189.487 73.4046 186.374 76.604 184.353 78.8767C182.451 77.4116 180.041 75.929 178.292 73.826L178.459 56.7368Z" fill="url(#paint50_linear_941_8825)"/>
<path d="M169.665 42.9679L169.65 50.7127C169.698 51.7232 170.36 52.603 171.318 52.9288L172.792 53.5628C173.173 53.7267 171.807 55.7907 165.74 54.8601C163.407 54.5031 161.189 53.5999 159.252 52.2538L157.832 51.2648C158.813 51.1204 161.509 50.4005 161.757 49.4388L163.994 39.355L169.665 42.966V42.9679Z" fill="white"/>
<path d="M168.571 55.525C167.73 55.525 166.768 55.4528 165.678 55.287C163.313 54.9241 161.007 53.9975 159.01 52.6085L157.589 51.6214C157.445 51.5199 157.375 51.3405 157.416 51.1688C157.457 50.9971 157.597 50.8664 157.773 50.8411C159.08 50.6479 161.199 49.8969 161.343 49.335L163.577 39.2649C163.608 39.1283 163.701 39.0132 163.832 38.9605C163.961 38.9079 164.111 38.9196 164.228 38.9957L169.899 42.6066C170.024 42.6866 170.098 42.8232 170.098 42.9714L170.083 50.7162C170.122 51.5355 170.662 52.2534 171.458 52.5246L172.964 53.1703C173.219 53.2796 173.34 53.5605 173.257 53.8531C173.042 54.6061 171.587 55.5289 168.571 55.5289V55.525ZM158.889 51.4751L159.499 51.9003C161.392 53.2172 163.573 54.0931 165.806 54.4345C169.958 55.0704 171.741 54.2472 172.262 53.8024L171.148 53.3225C170.045 52.9479 169.277 51.9257 169.22 50.7299L169.234 43.2016L164.283 40.0491L162.18 49.5321C161.92 50.5426 160.071 51.1707 158.889 51.4731V51.4751Z" fill="url(#paint51_linear_941_8825)"/>
<path d="M179.987 34.2399C178.307 32.9758 179.302 36.2337 174.105 30.0496C172.035 27.5876 171.329 31.4541 170.791 30.8162C168.801 28.4616 168.871 28.5396 167.457 28.0558C166.52 27.7339 165.018 28.8576 164.435 30.0554C163.664 31.6356 164.608 32.8061 163.621 36.5712C162.927 39.2145 161.871 40.4006 162.523 41.2863C163.182 42.1837 164.608 41.4424 165.402 42.369C166.431 43.5668 164.716 45.5898 165.34 47.3182C165.734 48.4087 167.363 49.8777 171.202 50.3966C171.825 50.4805 172.422 50.1079 172.621 49.511C172.876 48.7462 173.192 47.7767 173.418 46.8247C174.493 42.2929 173.75 40.6113 174.848 39.9831C176.53 39.0194 178.705 41.6628 179.948 40.7791C181.239 39.8622 182.289 35.9703 179.991 34.2399H179.987Z" fill="#222222"/>
<path d="M170.454 35.3516L170.329 36.6157C170.27 37.2107 170.171 37.8018 170.03 38.3851C169.767 39.4776 169.33 41.3601 169.166 42.4331C168.924 44.0094 173.739 45.094 173.739 45.094L174.466 44.5049L175.034 44.62C175.143 44.6414 175.258 44.6414 175.366 44.6063C175.631 44.5166 175.797 44.2747 175.795 44.0133C175.787 42.5872 175.875 39.4522 176.702 37.1386C176.702 37.1386 174.347 34.5089 170.454 35.3516Z" fill="white"/>
<path d="M173.74 45.5257C173.709 45.5257 173.678 45.5218 173.645 45.516C172.775 45.3209 168.452 44.248 168.74 42.3693C168.908 41.271 169.359 39.3397 169.612 38.2862C169.747 37.7264 169.845 37.1509 169.901 36.5754L170.026 35.3112C170.044 35.124 170.18 34.9718 170.363 34.9328C174.456 34.0491 176.92 36.7392 177.024 36.8524C177.129 36.9694 177.162 37.1353 177.107 37.2855C176.29 39.5718 176.218 42.7517 176.226 44.0139C176.228 44.4703 175.937 44.8722 175.502 45.0185C175.332 45.0751 175.141 45.0849 174.948 45.0458L174.579 44.9717L174.01 45.4321C173.932 45.4945 173.836 45.5277 173.738 45.5277L173.74 45.5257ZM170.851 35.7151L170.758 36.6612C170.697 37.2757 170.594 37.8902 170.449 38.4891C170.2 39.5289 169.755 41.4329 169.591 42.502C169.478 43.2413 171.803 44.1875 173.631 44.6303L174.195 44.1738C174.294 44.0919 174.425 44.0607 174.552 44.086L175.12 44.2011C175.162 44.2089 175.203 44.2109 175.229 44.2011C175.311 44.1738 175.363 44.1016 175.363 44.0197C175.354 42.4551 175.455 39.5504 176.206 37.2562C175.64 36.7275 173.736 35.2235 170.849 35.717L170.851 35.7151Z" fill="#222222"/>
<path d="M168.983 39.0757C168.983 39.0757 169.285 36.0344 167.873 36.1983C166.46 36.3622 166.213 39.7195 168.983 39.0757Z" fill="white"/>
<circle cx="262" cy="199" r="28" fill="#FFBB00"/>
<circle cx="261" cy="198" r="10" fill="black"/>
<defs>
<linearGradient id="paint0_linear_941_8825" x1="112.139" y1="126.726" x2="72.7632" y2="126.726" gradientUnits="userSpaceOnUse">
<stop stop-color="#00E4AD"/>
<stop offset="0.45" stop-color="#00BDC3"/>
<stop offset="1" stop-color="#008AE0"/>
</linearGradient>
<linearGradient id="paint1_linear_941_8825" x1="281.476" y1="95.173" x2="248.615" y2="95.173" gradientUnits="userSpaceOnUse">
<stop stop-color="#00E4AD"/>
<stop offset="0.45" stop-color="#00BDC3"/>
<stop offset="1" stop-color="#008AE0"/>
</linearGradient>
<linearGradient id="paint2_linear_941_8825" x1="334.242" y1="85.5248" x2="283.042" y2="85.5248" gradientUnits="userSpaceOnUse">
<stop stop-color="#00E4AD"/>
<stop offset="0.45" stop-color="#00BDC3"/>
<stop offset="1" stop-color="#008AE0"/>
</linearGradient>
<linearGradient id="paint3_linear_941_8825" x1="249.737" y1="38.1416" x2="241.418" y2="38.1416" gradientUnits="userSpaceOnUse">
<stop stop-color="#00E4AD"/>
<stop offset="0.45" stop-color="#00BDC3"/>
<stop offset="1" stop-color="#008AE0"/>
</linearGradient>
<linearGradient id="paint4_linear_941_8825" x1="280.072" y1="43.5484" x2="276.926" y2="43.5484" gradientUnits="userSpaceOnUse">
<stop stop-color="#00E4AD"/>
<stop offset="0.45" stop-color="#00BDC3"/>
<stop offset="1" stop-color="#008AE0"/>
</linearGradient>
<linearGradient id="paint5_linear_941_8825" x1="272.078" y1="43.1587" x2="268.932" y2="43.1587" gradientUnits="userSpaceOnUse">
<stop stop-color="#00E4AD"/>
<stop offset="0.45" stop-color="#00BDC3"/>
<stop offset="1" stop-color="#008AE0"/>
</linearGradient>
<linearGradient id="paint6_linear_941_8825" x1="275.241" y1="39.4167" x2="274.242" y2="39.4167" gradientUnits="userSpaceOnUse">
<stop stop-color="#00E4AD"/>
<stop offset="0.45" stop-color="#00BDC3"/>
<stop offset="1" stop-color="#008AE0"/>
</linearGradient>
<linearGradient id="paint7_linear_941_8825" x1="274.76" y1="47.2883" x2="273.762" y2="47.2883" gradientUnits="userSpaceOnUse">
<stop stop-color="#00E4AD"/>
<stop offset="0.45" stop-color="#00BDC3"/>
<stop offset="1" stop-color="#008AE0"/>
</linearGradient>
<linearGradient id="paint8_linear_941_8825" x1="67.9075" y1="231.025" x2="25.1206" y2="231.025" gradientUnits="userSpaceOnUse">
<stop stop-color="#00E4AD"/>
<stop offset="0.45" stop-color="#00BDC3"/>
<stop offset="1" stop-color="#008AE0"/>
</linearGradient>
<linearGradient id="paint9_linear_941_8825" x1="68.3315" y1="231.023" x2="24.6875" y2="231.023" gradientUnits="userSpaceOnUse">
<stop stop-color="#00E4AD"/>
<stop offset="0.45" stop-color="#00BDC3"/>
<stop offset="1" stop-color="#008AE0"/>
</linearGradient>
<linearGradient id="paint10_linear_941_8825" x1="100.847" y1="301.106" x2="9.01025" y2="301.106" gradientUnits="userSpaceOnUse">
<stop stop-color="#00E4AD"/>
<stop offset="0.45" stop-color="#00BDC3"/>
<stop offset="1" stop-color="#008AE0"/>
</linearGradient>
<linearGradient id="paint11_linear_941_8825" x1="101.277" y1="301.107" x2="8.57959" y2="301.107" gradientUnits="userSpaceOnUse">
<stop stop-color="#00E4AD"/>
<stop offset="0.45" stop-color="#00BDC3"/>
<stop offset="1" stop-color="#008AE0"/>
</linearGradient>
<linearGradient id="paint12_linear_941_8825" x1="109.207" y1="301.107" x2="16.5098" y2="301.107" gradientUnits="userSpaceOnUse">
<stop stop-color="#00E4AD"/>
<stop offset="0.45" stop-color="#00BDC3"/>
<stop offset="1" stop-color="#008AE0"/>
</linearGradient>
<linearGradient id="paint13_linear_941_8825" x1="118.044" y1="327.328" x2="0" y2="327.328" gradientUnits="userSpaceOnUse">
<stop stop-color="#00E4AD"/>
<stop offset="0.45" stop-color="#00BDC3"/>
<stop offset="1" stop-color="#008AE0"/>
</linearGradient>
<linearGradient id="paint14_linear_941_8825" x1="357.685" y1="201.379" x2="125.923" y2="201.379" gradientUnits="userSpaceOnUse">
<stop stop-color="#00E4AD"/>
<stop offset="0.45" stop-color="#00BDC3"/>
<stop offset="1" stop-color="#008AE0"/>
</linearGradient>
<linearGradient id="paint15_linear_941_8825" x1="352.308" y1="211.16" x2="122.576" y2="211.16" gradientUnits="userSpaceOnUse">
<stop stop-color="#00E4AD"/>
<stop offset="0.45" stop-color="#00BDC3"/>
<stop offset="1" stop-color="#008AE0"/>
</linearGradient>
<linearGradient id="paint16_linear_941_8825" x1="182.249" y1="132.076" x2="122.574" y2="132.076" gradientUnits="userSpaceOnUse">
<stop stop-color="#00E4AD"/>
<stop offset="0.45" stop-color="#00BDC3"/>
<stop offset="1" stop-color="#008AE0"/>
</linearGradient>
<linearGradient id="paint17_linear_941_8825" x1="351.926" y1="330.805" x2="0.958984" y2="330.805" gradientUnits="userSpaceOnUse">
<stop stop-color="#00E4AD"/>
<stop offset="0.45" stop-color="#00BDC3"/>
<stop offset="1" stop-color="#008AE0"/>
</linearGradient>
<linearGradient id="paint18_linear_941_8825" x1="351.656" y1="326.829" x2="1.30029" y2="326.829" gradientUnits="userSpaceOnUse">
<stop stop-color="#00E4AD"/>
<stop offset="0.45" stop-color="#00BDC3"/>
<stop offset="1" stop-color="#008AE0"/>
</linearGradient>
<linearGradient id="paint19_linear_941_8825" x1="324.487" y1="313.131" x2="72.8213" y2="313.131" gradientUnits="userSpaceOnUse">
<stop stop-color="#00E4AD"/>
<stop offset="0.45" stop-color="#00BDC3"/>
<stop offset="1" stop-color="#008AE0"/>
</linearGradient>
<linearGradient id="paint20_linear_941_8825" x1="324.919" y1="313.13" x2="72.3921" y2="313.13" gradientUnits="userSpaceOnUse">
<stop stop-color="#00E4AD"/>
<stop offset="0.45" stop-color="#00BDC3"/>
<stop offset="1" stop-color="#008AE0"/>
</linearGradient>
<linearGradient id="paint21_linear_941_8825" x1="148.48" y1="170.979" x2="29.8218" y2="170.979" gradientUnits="userSpaceOnUse">
<stop stop-color="#00E4AD"/>
<stop offset="0.45" stop-color="#00BDC3"/>
<stop offset="1" stop-color="#008AE0"/>
</linearGradient>
<linearGradient id="paint22_linear_941_8825" x1="70.1191" y1="225.171" x2="26.4712" y2="225.171" gradientUnits="userSpaceOnUse">
<stop stop-color="#00E4AD"/>
<stop offset="0.45" stop-color="#00BDC3"/>
<stop offset="1" stop-color="#008AE0"/>
</linearGradient>
<linearGradient id="paint23_linear_941_8825" x1="63.5212" y1="289.552" x2="40.0552" y2="289.552" gradientUnits="userSpaceOnUse">
<stop stop-color="#00E4AD"/>
<stop offset="0.45" stop-color="#00BDC3"/>
<stop offset="1" stop-color="#008AE0"/>
</linearGradient>
<linearGradient id="paint24_linear_941_8825" x1="65.2238" y1="276.104" x2="63.0049" y2="276.104" gradientUnits="userSpaceOnUse">
<stop stop-color="#00E4AD"/>
<stop offset="0.45" stop-color="#00BDC3"/>
<stop offset="1" stop-color="#008AE0"/>
</linearGradient>
<linearGradient id="paint25_linear_941_8825" x1="54.0865" y1="173.347" x2="48.0308" y2="173.347" gradientUnits="userSpaceOnUse">
<stop stop-color="#00E4AD"/>
<stop offset="0.45" stop-color="#00BDC3"/>
<stop offset="1" stop-color="#008AE0"/>
</linearGradient>
<linearGradient id="paint26_linear_941_8825" x1="54.3367" y1="158.753" x2="36.1631" y2="158.753" gradientUnits="userSpaceOnUse">
<stop stop-color="#00E4AD"/>
<stop offset="0.45" stop-color="#00BDC3"/>
<stop offset="1" stop-color="#008AE0"/>
</linearGradient>
<linearGradient id="paint27_linear_941_8825" x1="187.962" y1="245.335" x2="157.233" y2="245.335" gradientUnits="userSpaceOnUse">
<stop stop-color="#00E4AD"/>
<stop offset="0.45" stop-color="#00BDC3"/>
<stop offset="1" stop-color="#008AE0"/>
</linearGradient>
<linearGradient id="paint28_linear_941_8825" x1="188.392" y1="245.335" x2="156.801" y2="245.335" gradientUnits="userSpaceOnUse">
<stop stop-color="#00E4AD"/>
<stop offset="0.45" stop-color="#00BDC3"/>
<stop offset="1" stop-color="#008AE0"/>
</linearGradient>
<linearGradient id="paint29_linear_941_8825" x1="217.203" y1="239.238" x2="149.246" y2="239.238" gradientUnits="userSpaceOnUse">
<stop stop-color="#00E4AD"/>
<stop offset="0.45" stop-color="#00BDC3"/>
<stop offset="1" stop-color="#008AE0"/>
</linearGradient>
<linearGradient id="paint30_linear_941_8825" x1="297.741" y1="173.349" x2="289.549" y2="173.349" gradientUnits="userSpaceOnUse">
<stop stop-color="#00E4AD"/>
<stop offset="0.45" stop-color="#00BDC3"/>
<stop offset="1" stop-color="#008AE0"/>
</linearGradient>
<linearGradient id="paint31_linear_941_8825" x1="287.105" y1="195.143" x2="220.37" y2="195.143" gradientUnits="userSpaceOnUse">
<stop stop-color="#00E4AD"/>
<stop offset="0.45" stop-color="#00BDC3"/>
<stop offset="1" stop-color="#008AE0"/>
</linearGradient>
<linearGradient id="paint32_linear_941_8825" x1="175.607" y1="205.052" x2="128.97" y2="205.052" gradientUnits="userSpaceOnUse">
<stop stop-color="#00E4AD"/>
<stop offset="0.45" stop-color="#00BDC3"/>
<stop offset="1" stop-color="#008AE0"/>
</linearGradient>
<linearGradient id="paint33_linear_941_8825" x1="176.037" y1="205.055" x2="128.542" y2="205.055" gradientUnits="userSpaceOnUse">
<stop stop-color="#00E4AD"/>
<stop offset="0.45" stop-color="#00BDC3"/>
<stop offset="1" stop-color="#008AE0"/>
</linearGradient>
<linearGradient id="paint34_linear_941_8825" x1="175.621" y1="206.307" x2="128.125" y2="206.307" gradientUnits="userSpaceOnUse">
<stop stop-color="#00E4AD"/>
<stop offset="0.45" stop-color="#00BDC3"/>
<stop offset="1" stop-color="#008AE0"/>
</linearGradient>
<linearGradient id="paint35_linear_941_8825" x1="187.86" y1="245.172" x2="156.715" y2="245.172" gradientUnits="userSpaceOnUse">
<stop stop-color="#00E4AD"/>
<stop offset="0.45" stop-color="#00BDC3"/>
<stop offset="1" stop-color="#008AE0"/>
</linearGradient>
<linearGradient id="paint36_linear_941_8825" x1="141.183" y1="184.87" x2="135.149" y2="184.87" gradientUnits="userSpaceOnUse">
<stop stop-color="#00E4AD"/>
<stop offset="0.45" stop-color="#00BDC3"/>
<stop offset="1" stop-color="#008AE0"/>
</linearGradient>
<linearGradient id="paint37_linear_941_8825" x1="138.575" y1="176.838" x2="132.317" y2="176.838" gradientUnits="userSpaceOnUse">
<stop stop-color="#00E4AD"/>
<stop offset="0.45" stop-color="#00BDC3"/>
<stop offset="1" stop-color="#008AE0"/>
</linearGradient>
<linearGradient id="paint38_linear_941_8825" x1="203.083" y1="142.135" x2="191.206" y2="142.135" gradientUnits="userSpaceOnUse">
<stop stop-color="#00E4AD"/>
<stop offset="0.45" stop-color="#00BDC3"/>
<stop offset="1" stop-color="#008AE0"/>
</linearGradient>
<linearGradient id="paint39_linear_941_8825" x1="204.024" y1="153.117" x2="188.276" y2="153.117" gradientUnits="userSpaceOnUse">
<stop stop-color="#00E4AD"/>
<stop offset="0.45" stop-color="#00BDC3"/>
<stop offset="1" stop-color="#008AE0"/>
</linearGradient>
<linearGradient id="paint40_linear_941_8825" x1="203.619" y1="154.859" x2="187.844" y2="154.859" gradientUnits="userSpaceOnUse">
<stop stop-color="#00E4AD"/>
<stop offset="0.45" stop-color="#00BDC3"/>
<stop offset="1" stop-color="#008AE0"/>
</linearGradient>
<linearGradient id="paint41_linear_941_8825" x1="225.167" y1="112.247" x2="162.839" y2="112.247" gradientUnits="userSpaceOnUse">
<stop stop-color="#00E4AD"/>
<stop offset="0.45" stop-color="#00BDC3"/>
<stop offset="1" stop-color="#008AE0"/>
</linearGradient>
<linearGradient id="paint42_linear_941_8825" x1="189.859" y1="171.082" x2="177.175" y2="171.082" gradientUnits="userSpaceOnUse">
<stop stop-color="#00E4AD"/>
<stop offset="0.45" stop-color="#00BDC3"/>
<stop offset="1" stop-color="#008AE0"/>
</linearGradient>
<linearGradient id="paint43_linear_941_8825" x1="198.38" y1="182.947" x2="174.977" y2="182.947" gradientUnits="userSpaceOnUse">
<stop stop-color="#00E4AD"/>
<stop offset="0.45" stop-color="#00BDC3"/>
<stop offset="1" stop-color="#008AE0"/>
</linearGradient>
<linearGradient id="paint44_linear_941_8825" x1="198.434" y1="185.261" x2="174.514" y2="185.261" gradientUnits="userSpaceOnUse">
<stop stop-color="#00E4AD"/>
<stop offset="0.45" stop-color="#00BDC3"/>
<stop offset="1" stop-color="#008AE0"/>
</linearGradient>
<linearGradient id="paint45_linear_941_8825" x1="197.07" y1="130.487" x2="140.804" y2="130.487" gradientUnits="userSpaceOnUse">
<stop stop-color="#00E4AD"/>
<stop offset="0.45" stop-color="#00BDC3"/>
<stop offset="1" stop-color="#008AE0"/>
</linearGradient>
<linearGradient id="paint46_linear_941_8825" x1="216.811" y1="76.3585" x2="180.214" y2="76.3585" gradientUnits="userSpaceOnUse">
<stop stop-color="#00E4AD"/>
<stop offset="0.45" stop-color="#00BDC3"/>
<stop offset="1" stop-color="#008AE0"/>
</linearGradient>
<linearGradient id="paint47_linear_941_8825" x1="185.069" y1="73.0064" x2="140.794" y2="73.0064" gradientUnits="userSpaceOnUse">
<stop stop-color="#00E4AD"/>
<stop offset="0.45" stop-color="#00BDC3"/>
<stop offset="1" stop-color="#008AE0"/>
</linearGradient>
<linearGradient id="paint48_linear_941_8825" x1="221.852" y1="89.0641" x2="174.483" y2="89.0641" gradientUnits="userSpaceOnUse">
<stop stop-color="#00E4AD"/>
<stop offset="0.45" stop-color="#00BDC3"/>
<stop offset="1" stop-color="#008AE0"/>
</linearGradient>
<linearGradient id="paint49_linear_941_8825" x1="198.814" y1="81.5499" x2="155.634" y2="81.5499" gradientUnits="userSpaceOnUse">
<stop stop-color="#00E4AD"/>
<stop offset="0.45" stop-color="#00BDC3"/>
<stop offset="1" stop-color="#008AE0"/>
</linearGradient>
<linearGradient id="paint50_linear_941_8825" x1="192.097" y1="67.8068" x2="178.292" y2="67.8068" gradientUnits="userSpaceOnUse">
<stop stop-color="#00E4AD"/>
<stop offset="0.45" stop-color="#00BDC3"/>
<stop offset="1" stop-color="#008AE0"/>
</linearGradient>
<linearGradient id="paint51_linear_941_8825" x1="173.283" y1="47.2285" x2="157.404" y2="47.2285" gradientUnits="userSpaceOnUse">
<stop stop-color="#00E4AD"/>
<stop offset="0.45" stop-color="#00BDC3"/>
<stop offset="1" stop-color="#008AE0"/>
</linearGradient>
</defs>
</svg>
