<svg width="53" height="53" viewBox="0 0 53 53" fill="none" xmlns="http://www.w3.org/2000/svg">
<g clip-path="url(#clip0_1057_151)">
<path opacity="0.2" d="M4.23457 31.8536H10.7346V43.2286H4.23457C3.8036 43.2286 3.39027 43.0574 3.08552 42.7526C2.78078 42.4479 2.60957 42.0345 2.60957 41.6036V33.4786C2.60957 33.0476 2.78078 32.6343 3.08552 32.3295C3.39027 32.0248 3.8036 31.8536 4.23457 31.8536ZM42.4221 12.3536C41.5788 12.3541 40.7462 12.5421 39.9846 12.904C39.9293 11.6842 39.4828 10.5145 38.7113 9.56808C37.9398 8.62161 36.8842 7.94857 35.7005 7.64851C34.5169 7.34845 33.2681 7.4373 32.1388 7.90192C31.0096 8.36654 30.0599 9.18225 29.4301 10.2284C28.8004 11.2746 28.5241 12.4957 28.642 13.711C28.76 14.9264 29.2659 16.0715 30.0851 16.9771C30.9043 17.8826 31.9931 18.5005 33.1906 18.7393C34.3882 18.9781 35.6307 18.8252 36.7346 18.3031C36.7859 19.4154 37.1625 20.4881 37.8178 21.3883C38.4732 22.2885 39.3783 22.9766 40.421 23.3672C41.4637 23.7577 42.5981 23.8337 43.6836 23.5855C44.7691 23.3373 45.7578 22.776 46.5272 21.9712C47.2966 21.1663 47.8129 20.1533 48.0119 19.0578C48.211 17.9622 48.0841 16.8324 47.647 15.8083C47.2098 14.7842 46.4817 13.911 45.553 13.2969C44.6242 12.6827 43.5355 12.3547 42.4221 12.3536Z" fill="url(#paint0_linear_1057_151)"/>
<path d="M47.7704 29.6313C47.1657 29.1661 46.4618 28.8465 45.7136 28.6975C44.9653 28.5485 44.1928 28.574 43.456 28.7721L34.9572 30.7262C35.155 29.8909 35.1611 29.0217 34.9751 28.1838C34.7891 27.3458 34.4159 26.5608 33.8834 25.8876C33.3509 25.2144 32.6729 24.6704 31.9003 24.2965C31.1277 23.9226 30.2804 23.7284 29.4221 23.7285H19.2536C18.3997 23.7264 17.5538 23.8935 16.7648 24.2202C15.9758 24.5468 15.2594 25.0266 14.6569 25.6318L10.0622 30.2285H4.23457C3.37262 30.2285 2.54597 30.5709 1.93648 31.1804C1.32698 31.7899 0.984573 32.6166 0.984573 33.4785L0.984573 41.6035C0.984573 42.4655 1.32698 43.2921 1.93648 43.9016C2.54597 44.5111 3.37262 44.8535 4.23457 44.8535H25.3596C25.4924 44.8536 25.6248 44.8372 25.7536 44.8048L38.7536 41.5548C38.8365 41.535 38.9174 41.5079 38.9954 41.4735L46.8908 38.1138L46.9802 38.0732C47.739 37.694 48.3888 37.1279 48.8684 36.4282C49.3479 35.7285 49.6415 34.9182 49.7213 34.0737C49.8012 33.2292 49.6647 32.3783 49.3248 31.6011C48.9849 30.8239 48.4528 30.146 47.7785 29.6313H47.7704ZM4.23457 33.4785H9.10957V41.6035H4.23457V33.4785ZM45.5563 35.1462L37.8375 38.4327L25.1564 41.6035H12.3596V32.5259L16.9563 27.9312C17.257 27.6281 17.6149 27.3878 18.0093 27.2242C18.4037 27.0607 18.8267 26.9772 19.2536 26.9785H29.4221C30.0685 26.9785 30.6885 27.2353 31.1456 27.6924C31.6028 28.1496 31.8596 28.7696 31.8596 29.416C31.8596 30.0625 31.6028 30.6825 31.1456 31.1396C30.6885 31.5967 30.0685 31.8535 29.4221 31.8535H23.7346C23.3036 31.8535 22.8903 32.0247 22.5855 32.3295C22.2808 32.6342 22.1096 33.0475 22.1096 33.4785C22.1096 33.9095 22.2808 34.3228 22.5855 34.6276C22.8903 34.9323 23.3036 35.1035 23.7346 35.1035H30.2346C30.3569 35.1032 30.4788 35.0896 30.5982 35.0629L44.2075 31.9327L44.2705 31.9165C44.686 31.8012 45.1294 31.8435 45.5155 32.0355C45.9016 32.2274 46.203 32.5554 46.3618 32.9562C46.5207 33.3571 46.5256 33.8025 46.3758 34.2068C46.226 34.6111 45.9319 34.9457 45.5502 35.1462H45.5563ZM34.2971 20.4785C34.6986 20.479 35.0994 20.4464 35.4955 20.381C35.9411 21.7045 36.7563 22.8727 37.8447 23.7475C38.9332 24.6223 40.2493 25.1672 41.6376 25.3177C43.0259 25.4682 44.4283 25.2181 45.679 24.5968C46.9296 23.9756 47.9762 23.0093 48.695 21.812C49.4139 20.6148 49.7749 19.2368 49.7354 17.8409C49.6959 16.4451 49.2575 15.0897 48.4721 13.935C47.6867 12.7804 46.5871 11.8748 45.3033 11.3253C44.0195 10.7758 42.6053 10.6053 41.2277 10.8341C40.7987 9.55902 40.0262 8.42696 38.9953 7.56257C37.9643 6.69817 36.7149 6.13493 35.3845 5.93484C34.0541 5.73476 32.6943 5.90557 31.4547 6.42849C30.2151 6.95141 29.1438 7.80617 28.3587 8.8987C27.5736 9.99122 27.1051 11.2792 27.0048 12.6208C26.9045 13.9624 27.1763 15.3057 27.7902 16.5028C28.4041 17.7 29.3363 18.7045 30.4844 19.406C31.6324 20.1074 32.9517 20.4785 34.2971 20.4785ZM46.4846 18.041C46.4846 18.8445 46.2463 19.6299 45.7999 20.298C45.3535 20.9661 44.7191 21.4868 43.9767 21.7943C43.2344 22.1018 42.4176 22.1822 41.6295 22.0255C40.8415 21.8687 40.1176 21.4818 39.5495 20.9136C38.9813 20.3455 38.5944 19.6216 38.4376 18.8336C38.2809 18.0455 38.3613 17.2287 38.6688 16.4864C38.9763 15.744 39.497 15.1096 40.1651 14.6632C40.8331 14.2168 41.6186 13.9785 42.4221 13.9785C43.4995 13.9785 44.5328 14.4065 45.2947 15.1684C46.0566 15.9303 46.4846 16.9636 46.4846 18.041ZM34.2971 9.10352C35.1833 9.10396 36.0451 9.3942 36.7511 9.92999C37.457 10.4658 37.9684 11.2177 38.2072 12.0712C37.375 12.6568 36.6741 13.4096 36.1494 14.2816C35.6248 15.1536 35.2879 16.1255 35.1604 17.1351C34.8767 17.1963 34.5873 17.2277 34.2971 17.2285C33.2196 17.2285 32.1863 16.8005 31.4245 16.0386C30.6626 15.2768 30.2346 14.2435 30.2346 13.166C30.2346 12.0886 30.6626 11.0553 31.4245 10.2934C32.1863 9.53153 33.2196 9.10352 34.2971 9.10352Z" fill="url(#paint1_linear_1057_151)"/>
</g>
<defs>
<linearGradient id="paint0_linear_1057_151" x1="48.1035" y1="25.3513" x2="2.60957" y2="25.3513" gradientUnits="userSpaceOnUse">
<stop stop-color="#00E4AD"/>
<stop offset="0.45" stop-color="#00BDC3"/>
<stop offset="1" stop-color="#008AE0"/>
</linearGradient>
<linearGradient id="paint1_linear_1057_151" x1="49.7435" y1="25.3535" x2="0.984573" y2="25.3535" gradientUnits="userSpaceOnUse">
<stop stop-color="#00E4AD"/>
<stop offset="0.45" stop-color="#00BDC3"/>
<stop offset="1" stop-color="#008AE0"/>
</linearGradient>
<clipPath id="clip0_1057_151">
<rect width="52" height="52" fill="white" transform="translate(0.984573 0.978516)"/>
</clipPath>
</defs>
</svg>
