<svg width="52" height="52" viewBox="0 0 52 52" fill="none" xmlns="http://www.w3.org/2000/svg">
<path opacity="0.2" d="M45.5 26C45.5029 28.7347 44.9292 31.4393 43.8161 33.9373C42.7031 36.4353 41.0759 38.6705 39.0406 40.497C37.817 38.0902 35.951 36.0691 33.6493 34.6576C31.3476 33.2461 28.7 32.4993 26 32.5C27.607 32.5 29.1779 32.0235 30.514 31.1307C31.8502 30.2379 32.8916 28.969 33.5065 27.4843C34.1215 25.9997 34.2824 24.366 33.9689 22.7899C33.6554 21.2138 32.8815 19.7661 31.7452 18.6298C30.6089 17.4935 29.1612 16.7196 27.5851 16.4061C26.009 16.0926 24.3754 16.2535 22.8907 16.8685C21.4061 17.4834 20.1371 18.5248 19.2443 19.861C18.3515 21.1971 17.875 22.768 17.875 24.375C17.875 26.5299 18.731 28.5965 20.2548 30.1202C21.7785 31.644 23.8451 32.5 26 32.5C23.3 32.4993 20.6525 33.2461 18.3508 34.6576C16.0491 36.0691 14.183 38.0902 12.9594 40.497C10.5427 38.3233 8.70775 35.5799 7.62137 32.5164C6.53499 29.4528 6.23166 26.1663 6.73895 22.9557C7.24624 19.7451 8.54806 16.7122 10.526 14.1328C12.504 11.5535 15.0954 9.50949 18.0645 8.18672C21.0337 6.86396 24.2864 6.30439 27.5268 6.55889C30.7673 6.8134 33.8928 7.87391 36.619 9.64399C39.3452 11.4141 41.5857 13.8376 43.1367 16.6941C44.6878 19.5506 45.5002 22.7495 45.5 26Z" fill="url(#paint0_linear_999_512)"/>
<path d="M44.9617 21.1473C44.5367 21.2185 44.1573 21.4555 43.907 21.8064C43.6567 22.1572 43.5561 22.5931 43.6272 23.0181C43.7922 24.0035 43.8751 25.0009 43.875 26C43.8788 30.3757 42.2706 34.5995 39.3575 37.8645C37.5451 35.2383 34.9968 33.2065 32.0328 32.0247C33.6249 30.7707 34.7867 29.0517 35.3566 27.1068C35.9265 25.1619 35.8761 23.0878 35.2125 21.1728C34.549 19.2579 33.3051 17.5973 31.6541 16.422C30.003 15.2467 28.0267 14.6152 26 14.6152C23.9733 14.6152 21.997 15.2467 20.3459 16.422C18.6948 17.5973 17.451 19.2579 16.7874 21.1728C16.1239 23.0878 16.0735 25.1619 16.6434 27.1068C17.2133 29.0517 18.3751 30.7707 19.9672 32.0247C17.0032 33.2065 14.4548 35.2383 12.6425 37.8645C10.3568 35.2888 8.8637 32.1077 8.34283 28.7037C7.82196 25.2996 8.29546 21.8176 9.70639 18.6763C11.1173 15.5349 13.4056 12.868 16.2961 10.9962C19.1867 9.12436 22.5563 8.12734 26 8.12499C26.9991 8.12483 27.9965 8.20772 28.9819 8.37281C29.405 8.43957 29.8374 8.33656 30.185 8.08617C30.5325 7.83579 30.7672 7.4583 30.8379 7.0358C30.9085 6.6133 30.8095 6.17999 30.5624 5.83011C30.3152 5.48023 29.9399 5.24209 29.5181 5.16749C25.1051 4.4251 20.5703 5.10439 16.5686 7.10728C12.5668 9.11018 9.30507 12.333 7.25437 16.3105C5.20366 20.288 4.47007 24.8143 5.15952 29.2359C5.84897 33.6575 7.92579 37.7456 11.0901 40.9099C14.2544 44.0742 18.3425 46.151 22.7641 46.8405C27.1857 47.5299 31.712 46.7963 35.6895 44.7456C39.667 42.6949 42.8898 39.4332 44.8927 35.4314C46.8956 31.4296 47.5749 26.8949 46.8325 22.4819C46.7614 22.0568 46.5243 21.6774 46.1735 21.4272C45.8226 21.1769 45.3868 21.0762 44.9617 21.1473ZM19.5 24.375C19.5 23.0894 19.8812 21.8327 20.5954 20.7638C21.3097 19.6949 22.3248 18.8617 23.5126 18.3698C24.7003 17.8778 26.0072 17.7491 27.2681 17.9999C28.529 18.2507 29.6871 18.8698 30.5962 19.7788C31.5052 20.6878 32.1243 21.846 32.3751 23.1069C32.6259 24.3678 32.4972 25.6747 32.0052 26.8624C31.5132 28.0502 30.6801 29.0653 29.6112 29.7795C28.5423 30.4938 27.2856 30.875 26 30.875C24.2761 30.875 22.6228 30.1902 21.4038 28.9712C20.1848 27.7522 19.5 26.0989 19.5 24.375ZM15.0475 40.1172C16.223 38.2787 17.8425 36.7656 19.7566 35.7176C21.6707 34.6696 23.8178 34.1202 26 34.1202C28.1822 34.1202 30.3293 34.6696 32.2434 35.7176C34.1575 36.7656 35.7769 38.2787 36.9525 40.1172C33.821 42.5526 29.9671 43.8749 26 43.8749C22.0329 43.8749 18.179 42.5526 15.0475 40.1172ZM48.2747 9.27468L41.7747 15.7747C41.6238 15.9258 41.4445 16.0456 41.2473 16.1274C41.05 16.2092 40.8385 16.2513 40.625 16.2513C40.4114 16.2513 40.2 16.2092 40.0027 16.1274C39.8054 16.0456 39.6262 15.9258 39.4753 15.7747L36.2253 12.5247C36.0743 12.3737 35.9546 12.1945 35.8729 11.9972C35.7911 11.7999 35.7491 11.5885 35.7491 11.375C35.7491 11.1615 35.7911 10.9501 35.8729 10.7528C35.9546 10.5555 36.0743 10.3763 36.2253 10.2253C36.5302 9.92039 36.9438 9.74909 37.375 9.74909C37.5885 9.74909 37.7999 9.79114 37.9972 9.87285C38.1945 9.95456 38.3737 10.0743 38.5247 10.2253L40.625 12.3276L45.9753 6.97531C46.1263 6.82433 46.3055 6.70456 46.5028 6.62285C46.7001 6.54114 46.9115 6.49909 47.125 6.49909C47.3385 6.49909 47.5499 6.54114 47.7472 6.62285C47.9445 6.70456 48.1237 6.82433 48.2747 6.97531C48.4257 7.12628 48.5454 7.30552 48.6271 7.50279C48.7088 7.70005 48.7509 7.91148 48.7509 8.12499C48.7509 8.33851 48.7088 8.54994 48.6271 8.7472C48.5454 8.94446 48.4257 9.1237 48.2747 9.27468Z" fill="url(#paint1_linear_999_512)"/>
<defs>
<linearGradient id="paint0_linear_999_512" x1="45.5" y1="23.498" x2="6.5" y2="23.498" gradientUnits="userSpaceOnUse">
<stop stop-color="#00E4AD"/>
<stop offset="0.45" stop-color="#00BDC3"/>
<stop offset="1" stop-color="#008AE0"/>
</linearGradient>
<linearGradient id="paint1_linear_999_512" x1="48.7509" y1="25.9837" x2="4.90747" y2="25.9837" gradientUnits="userSpaceOnUse">
<stop stop-color="#00E4AD"/>
<stop offset="0.45" stop-color="#00BDC3"/>
<stop offset="1" stop-color="#008AE0"/>
</linearGradient>
</defs>
</svg>
